<svg class="main-svg" xmlns="http://www.w3.org/2000/svg" xmlns:xlink="http://www.w3.org/1999/xlink" width="600" height="400" style=""><rect x="0" y="0" width="600" height="400" style="fill: rgb(255, 255, 255); fill-opacity: 1;"/><defs id="defs-704b6c"><g class="clips"><clipPath id="clip704b6cxyplot" class="plotclip"><rect width="547.681539807524" height="325.4133858267717"/></clipPath><clipPath class="axesclip" id="clip704b6cx"><rect x="48.381452318460184" y="0" width="547.681539807524" height="400"/></clipPath><clipPath class="axesclip" id="clip704b6cy"><rect x="0" y="41.04330708661415" width="600" height="325.4133858267717"/></clipPath><clipPath class="axesclip" id="clip704b6cxy"><rect x="48.381452318460184" y="41.04330708661415" width="547.681539807524" height="325.4133858267717"/></clipPath></g><g class="gradients"/><g class="patterns"/></defs><g class="bglayer"/><g class="layer-below"><g class="imagelayer"/><g class="shapelayer"/></g><g class="cartesianlayer"><g class="subplot xy"><g class="layer-subplot"><g class="shapelayer"/><g class="imagelayer"/></g><g class="gridlayer"><g class="x"><path class="xgrid crisp" transform="translate(91.83145231846018,0)" d="M0,41.04330708661415v325.4133858267717" style="stroke: rgb(0, 0, 0); stroke-opacity: 0.1; stroke-width: 0.5px;"/><path class="xgrid crisp" transform="translate(165.37145231846017,0)" d="M0,41.04330708661415v325.4133858267717" style="stroke: rgb(0, 0, 0); stroke-opacity: 0.1; stroke-width: 0.5px;"/><path class="xgrid crisp" transform="translate(238.9114523184602,0)" d="M0,41.04330708661415v325.4133858267717" style="stroke: rgb(0, 0, 0); stroke-opacity: 0.1; stroke-width: 0.5px;"/><path class="xgrid crisp" transform="translate(312.45145231846016,0)" d="M0,41.04330708661415v325.4133858267717" style="stroke: rgb(0, 0, 0); stroke-opacity: 0.1; stroke-width: 0.5px;"/><path class="xgrid crisp" transform="translate(385.9814523184602,0)" d="M0,41.04330708661415v325.4133858267717" style="stroke: rgb(0, 0, 0); stroke-opacity: 0.1; stroke-width: 0.5px;"/><path class="xgrid crisp" transform="translate(459.52145231846015,0)" d="M0,41.04330708661415v325.4133858267717" style="stroke: rgb(0, 0, 0); stroke-opacity: 0.1; stroke-width: 0.5px;"/><path class="xgrid crisp" transform="translate(533.0614523184602,0)" d="M0,41.04330708661415v325.4133858267717" style="stroke: rgb(0, 0, 0); stroke-opacity: 0.1; stroke-width: 0.5px;"/></g><g class="y"><path class="ygrid crisp" transform="translate(0,336.22330708661417)" d="M48.381452318460184,0h547.681539807524" style="stroke: rgb(0, 0, 0); stroke-opacity: 0.1; stroke-width: 0.5px;"/><path class="ygrid crisp" transform="translate(0,283.68330708661415)" d="M48.381452318460184,0h547.681539807524" style="stroke: rgb(0, 0, 0); stroke-opacity: 0.1; stroke-width: 0.5px;"/><path class="ygrid crisp" transform="translate(0,231.13330708661414)" d="M48.381452318460184,0h547.681539807524" style="stroke: rgb(0, 0, 0); stroke-opacity: 0.1; stroke-width: 0.5px;"/><path class="ygrid crisp" transform="translate(0,178.58330708661413)" d="M48.381452318460184,0h547.681539807524" style="stroke: rgb(0, 0, 0); stroke-opacity: 0.1; stroke-width: 0.5px;"/><path class="ygrid crisp" transform="translate(0,126.03330708661414)" d="M48.381452318460184,0h547.681539807524" style="stroke: rgb(0, 0, 0); stroke-opacity: 0.1; stroke-width: 0.5px;"/><path class="ygrid crisp" transform="translate(0,73.48330708661415)" d="M48.381452318460184,0h547.681539807524" style="stroke: rgb(0, 0, 0); stroke-opacity: 0.1; stroke-width: 0.5px;"/></g></g><g class="zerolinelayer"/><path class="xlines-below"/><path class="ylines-below"/><g class="overlines-below"/><g class="xaxislayer-below"/><g class="yaxislayer-below"/><g class="overaxes-below"/><g class="plot" transform="translate(48.381452318460184,41.04330708661415)" clip-path="url(#clip704b6cxyplot)"><g class="scatterlayer mlayer"><g class="trace scatter tracedd4abb" style="stroke-miterlimit: 2;"><g class="fills"><g><path class="js-fill" d="M528.8,2397.12L528.8,2397.12L528.8,274.16L411.14,274.16L411.14,316.2L528.8,316.2L528.8,274.16L528.8,274.16" style="fill: rgb(0, 154, 250); fill-opacity: 0.5; stroke-width: 0;"/></g></g><g class="errorbars"/><g class="lines"><path class="js-line" d="M528.8,274.16L411.14,274.16L411.14,316.2L528.8,316.2L528.8,274.16L528.8,274.16" style="vector-effect: non-scaling-stroke; fill: none; stroke: rgb(0, 0, 0); stroke-opacity: 0.5; stroke-width: 1px; opacity: 1;"/></g><g class="points"/><g class="text"/></g><g class="trace scatter trace87a2ae" style="stroke-miterlimit: 2;"><g class="fills"><g><path class="js-fill" d="M529.99,2397.12L529.99,2397.12L529.99,268.85L409.98,268.85L409.98,311.56L529.99,311.56L529.99,268.85L529.99,268.85" style="fill: rgb(227, 111, 71); fill-opacity: 0.5; stroke-width: 0;"/></g></g><g class="errorbars"/><g class="lines"><path class="js-line" d="M529.99,268.85L409.98,268.85L409.98,311.56L529.99,311.56L529.99,268.85L529.99,268.85" style="vector-effect: non-scaling-stroke; fill: none; stroke: rgb(0, 0, 0); stroke-opacity: 0.5; stroke-width: 1px; opacity: 1;"/></g><g class="points"/><g class="text"/></g><g class="trace scatter trace6d6646" style="stroke-miterlimit: 2;"><g class="fills"><g><path class="js-fill" d="M530.92,2397.12L530.92,2397.12L530.92,263.51L408.54,263.51L408.54,306.91L530.92,306.91L530.92,263.51L530.92,263.51" style="fill: rgb(62, 164, 78); fill-opacity: 0.5; stroke-width: 0;"/></g></g><g class="errorbars"/><g class="lines"><path class="js-line" d="M530.92,263.51L408.54,263.51L408.54,306.91L530.92,306.91L530.92,263.51L530.92,263.51" style="vector-effect: non-scaling-stroke; fill: none; stroke: rgb(0, 0, 0); stroke-opacity: 0.5; stroke-width: 1px; opacity: 1;"/></g><g class="points"/><g class="text"/></g><g class="trace scatter traceb08bdf" style="stroke-miterlimit: 2;"><g class="fills"><g><path class="js-fill" d="M531.6,2397.12L531.6,2397.12L531.6,258.16L406.81,258.16L406.81,302.26L531.6,302.26L531.6,258.16L531.6,258.16" style="fill: rgb(195, 113, 210); fill-opacity: 0.5; stroke-width: 0;"/></g></g><g class="errorbars"/><g class="lines"><path class="js-line" d="M531.6,258.16L406.81,258.16L406.81,302.26L531.6,302.26L531.6,258.16L531.6,258.16" style="vector-effect: non-scaling-stroke; fill: none; stroke: rgb(0, 0, 0); stroke-opacity: 0.5; stroke-width: 1px; opacity: 1;"/></g><g class="points"/><g class="text"/></g><g class="trace scatter traceab40b6" style="stroke-miterlimit: 2;"><g class="fills"><g><path class="js-fill" d="M532.02,2397.12L532.02,2397.12L532.02,252.79L404.79,252.79L404.79,297.6L532.02,297.6L532.02,252.79L532.02,252.79" style="fill: rgb(172, 142, 24); fill-opacity: 0.5; stroke-width: 0;"/></g></g><g class="errorbars"/><g class="lines"><path class="js-line" d="M532.02,252.79L404.79,252.79L404.79,297.6L532.02,297.6L532.02,252.79L532.02,252.79" style="vector-effect: non-scaling-stroke; fill: none; stroke: rgb(0, 0, 0); stroke-opacity: 0.5; stroke-width: 1px; opacity: 1;"/></g><g class="points"/><g class="text"/></g><g class="trace scatter tracea59807" style="stroke-miterlimit: 2;"><g class="fills"><g><path class="js-fill" d="M532.18,2397.12L532.18,2397.12L532.18,247.41L402.49,247.41L402.49,292.94L532.18,292.94L532.18,247.41L532.18,247.41" style="fill: rgb(0, 170, 174); fill-opacity: 0.5; stroke-width: 0;"/></g></g><g class="errorbars"/><g class="lines"><path class="js-line" d="M532.18,247.41L402.49,247.41L402.49,292.94L532.18,292.94L532.18,247.41L532.18,247.41" style="vector-effect: non-scaling-stroke; fill: none; stroke: rgb(0, 0, 0); stroke-opacity: 0.5; stroke-width: 1px; opacity: 1;"/></g><g class="points"/><g class="text"/></g><g class="trace scatter trace105627" style="stroke-miterlimit: 2;"><g class="fills"><g><path class="js-fill" d="M532.09,2397.12L532.09,2397.12L532.09,242.01L399.9,242.01L399.9,288.29L532.09,288.29L532.09,242.01L532.09,242.01" style="fill: rgb(237, 94, 147); fill-opacity: 0.5; stroke-width: 0;"/></g></g><g class="errorbars"/><g class="lines"><path class="js-line" d="M532.09,242.01L399.9,242.01L399.9,288.29L532.09,288.29L532.09,242.01L532.09,242.01" style="vector-effect: non-scaling-stroke; fill: none; stroke: rgb(0, 0, 0); stroke-opacity: 0.5; stroke-width: 1px; opacity: 1;"/></g><g class="points"/><g class="text"/></g><g class="trace scatter trace584279" style="stroke-miterlimit: 2;"><g class="fills"><g><path class="js-fill" d="M531.74,2397.12L531.74,2397.12L531.74,236.6L397.02,236.6L397.02,283.63L531.74,283.63L531.74,236.6L531.74,236.6" style="fill: rgb(198, 130, 37); fill-opacity: 0.5; stroke-width: 0;"/></g></g><g class="errorbars"/><g class="lines"><path class="js-line" d="M531.74,236.6L397.02,236.6L397.02,283.63L531.74,283.63L531.74,236.6L531.74,236.6" style="vector-effect: non-scaling-stroke; fill: none; stroke: rgb(0, 0, 0); stroke-opacity: 0.5; stroke-width: 1px; opacity: 1;"/></g><g class="points"/><g class="text"/></g><g class="trace scatter traceedbd26" style="stroke-miterlimit: 2;"><g class="fills"><g><path class="js-fill" d="M531.13,2397.12L531.13,2397.12L531.13,231.18L393.85,231.18L393.85,278.98L531.13,278.98L531.13,231.18L531.13,231.18" style="fill: rgb(0, 169, 141); fill-opacity: 0.5; stroke-width: 0;"/></g></g><g class="errorbars"/><g class="lines"><path class="js-line" d="M531.13,231.18L393.85,231.18L393.85,278.98L531.13,278.98L531.13,231.18L531.13,231.18" style="vector-effect: non-scaling-stroke; fill: none; stroke: rgb(0, 0, 0); stroke-opacity: 0.5; stroke-width: 1px; opacity: 1;"/></g><g class="points"/><g class="text"/></g><g class="trace scatter tracede16d3" style="stroke-miterlimit: 2;"><g class="fills"><g><path class="js-fill" d="M530.27,2397.12L530.27,2397.12L530.27,225.74L390.39,225.74L390.39,274.33L530.27,274.33L530.27,225.74L530.27,225.74" style="fill: rgb(142, 151, 30); fill-opacity: 0.5; stroke-width: 0;"/></g></g><g class="errorbars"/><g class="lines"><path class="js-line" d="M530.27,225.74L390.39,225.74L390.39,274.33L530.27,274.33L530.27,225.74L530.27,225.74" style="vector-effect: non-scaling-stroke; fill: none; stroke: rgb(0, 0, 0); stroke-opacity: 0.5; stroke-width: 1px; opacity: 1;"/></g><g class="points"/><g class="text"/></g><g class="trace scatter trace397850" style="stroke-miterlimit: 2;"><g class="fills"><g><path class="js-fill" d="M529.15,2397.12L529.15,2397.12L529.15,220.3L386.65,220.3L386.65,269.69L529.15,269.69L529.15,220.3L529.15,220.3" style="fill: rgb(0, 169, 204); fill-opacity: 0.5; stroke-width: 0;"/></g></g><g class="errorbars"/><g class="lines"><path class="js-line" d="M529.15,220.3L386.65,220.3L386.65,269.69L529.15,269.69L529.15,220.3L529.15,220.3" style="vector-effect: non-scaling-stroke; fill: none; stroke: rgb(0, 0, 0); stroke-opacity: 0.5; stroke-width: 1px; opacity: 1;"/></g><g class="points"/><g class="text"/></g><g class="trace scatter tracede2882" style="stroke-miterlimit: 2;"><g class="fills"><g><path class="js-fill" d="M527.77,2397.12L527.77,2397.12L527.77,214.85L382.61,214.85L382.61,265.05L527.77,265.05L527.77,214.85L527.77,214.85" style="fill: rgb(155, 127, 233); fill-opacity: 0.5; stroke-width: 0;"/></g></g><g class="errorbars"/><g class="lines"><path class="js-line" d="M527.77,214.85L382.61,214.85L382.61,265.05L527.77,265.05L527.77,214.85L527.77,214.85" style="vector-effect: non-scaling-stroke; fill: none; stroke: rgb(0, 0, 0); stroke-opacity: 0.5; stroke-width: 1px; opacity: 1;"/></g><g class="points"/><g class="text"/></g><g class="trace scatter trace3c89f2" style="stroke-miterlimit: 2;"><g class="fills"><g><path class="js-fill" d="M526.14,2397.12L526.14,2397.12L526.14,209.39L378.29,209.39L378.29,260.43L526.14,260.43L526.14,209.39L526.14,209.39" style="fill: rgb(97, 141, 246); fill-opacity: 0.5; stroke-width: 0;"/></g></g><g class="errorbars"/><g class="lines"><path class="js-line" d="M526.14,209.39L378.29,209.39L378.29,260.43L526.14,260.43L526.14,209.39L526.14,209.39" style="vector-effect: non-scaling-stroke; fill: none; stroke: rgb(0, 0, 0); stroke-opacity: 0.5; stroke-width: 1px; opacity: 1;"/></g><g class="points"/><g class="text"/></g><g class="trace scatter traced10b67" style="stroke-miterlimit: 2;"><g class="fills"><g><path class="js-fill" d="M524.26,2397.12L524.26,2397.12L524.26,203.92L373.69,203.92L373.69,255.81L524.26,255.81L524.26,203.92L524.26,203.92" style="fill: rgb(240, 96, 115); fill-opacity: 0.5; stroke-width: 0;"/></g></g><g class="errorbars"/><g class="lines"><path class="js-line" d="M524.26,203.92L373.69,203.92L373.69,255.81L524.26,255.81L524.26,203.92L524.26,203.92" style="vector-effect: non-scaling-stroke; fill: none; stroke: rgb(0, 0, 0); stroke-opacity: 0.5; stroke-width: 1px; opacity: 1;"/></g><g class="points"/><g class="text"/></g><g class="trace scatter trace53e78a" style="stroke-miterlimit: 2;"><g class="fills"><g><path class="js-fill" d="M522.12,2397.12L522.12,2397.12L522.12,198.46L368.79,198.46L368.79,251.2L522.12,251.2L522.12,198.46L522.12,198.46" style="fill: rgb(221, 101, 182); fill-opacity: 0.5; stroke-width: 0;"/></g></g><g class="errorbars"/><g class="lines"><path class="js-line" d="M522.12,198.46L368.79,198.46L368.79,251.2L522.12,251.2L522.12,198.46L522.12,198.46" style="vector-effect: non-scaling-stroke; fill: none; stroke: rgb(0, 0, 0); stroke-opacity: 0.5; stroke-width: 1px; opacity: 1;"/></g><g class="points"/><g class="text"/></g><g class="trace scatter trace4bdbe5" style="stroke-miterlimit: 2;"><g class="fills"><g><path class="js-fill" d="M519.73,2397.12L519.73,2397.12L519.73,192.98L363.61,192.98L363.61,246.61L519.73,246.61L519.73,192.98L519.73,192.98" style="fill: rgb(108, 159, 51); fill-opacity: 0.5; stroke-width: 0;"/></g></g><g class="errorbars"/><g class="lines"><path class="js-line" d="M519.73,192.98L363.61,192.98L363.61,246.61L519.73,246.61L519.73,192.98L519.73,192.98" style="vector-effect: non-scaling-stroke; fill: none; stroke: rgb(0, 0, 0); stroke-opacity: 0.5; stroke-width: 1px; opacity: 1;"/></g><g class="points"/><g class="text"/></g><g class="trace scatter trace1afd96" style="stroke-miterlimit: 2;"><g class="fills"><g><path class="js-fill" d="M517.09,2397.12L517.09,2397.12L517.09,187.51L358.14,187.51L358.14,242.03L517.09,242.03L517.09,187.51L517.09,187.51" style="fill: rgb(0, 154, 250); fill-opacity: 0.5; stroke-width: 0;"/></g></g><g class="errorbars"/><g class="lines"><path class="js-line" d="M517.09,187.51L358.14,187.51L358.14,242.03L517.09,242.03L517.09,187.51L517.09,187.51" style="vector-effect: non-scaling-stroke; fill: none; stroke: rgb(0, 0, 0); stroke-opacity: 0.5; stroke-width: 1px; opacity: 1;"/></g><g class="points"/><g class="text"/></g><g class="trace scatter traceda686c" style="stroke-miterlimit: 2;"><g class="fills"><g><path class="js-fill" d="M514.2,2397.12L514.2,2397.12L514.2,182.03L352.39,182.03L352.39,237.47L514.2,237.47L514.2,182.03L514.2,182.03" style="fill: rgb(227, 111, 71); fill-opacity: 0.5; stroke-width: 0;"/></g></g><g class="errorbars"/><g class="lines"><path class="js-line" d="M514.2,182.03L352.39,182.03L352.39,237.47L514.2,237.47L514.2,182.03L514.2,182.03" style="vector-effect: non-scaling-stroke; fill: none; stroke: rgb(0, 0, 0); stroke-opacity: 0.5; stroke-width: 1px; opacity: 1;"/></g><g class="points"/><g class="text"/></g><g class="trace scatter trace42df1b" style="stroke-miterlimit: 2;"><g class="fills"><g><path class="js-fill" d="M511.06,2397.12L511.06,2397.12L511.06,176.56L346.36,176.56L346.36,232.93L511.06,232.93L511.06,176.56L511.06,176.56" style="fill: rgb(62, 164, 78); fill-opacity: 0.5; stroke-width: 0;"/></g></g><g class="errorbars"/><g class="lines"><path class="js-line" d="M511.06,176.56L346.36,176.56L346.36,232.93L511.06,232.93L511.06,176.56L511.06,176.56" style="vector-effect: non-scaling-stroke; fill: none; stroke: rgb(0, 0, 0); stroke-opacity: 0.5; stroke-width: 1px; opacity: 1;"/></g><g class="points"/><g class="text"/></g><g class="trace scatter trace0b5f78" style="stroke-miterlimit: 2;"><g class="fills"><g><path class="js-fill" d="M507.67,2397.12L507.67,2397.12L507.67,171.08L340.04,171.08L340.04,228.4L507.67,228.4L507.67,171.08L507.67,171.08" style="fill: rgb(195, 113, 210); fill-opacity: 0.5; stroke-width: 0;"/></g></g><g class="errorbars"/><g class="lines"><path class="js-line" d="M507.67,171.08L340.04,171.08L340.04,228.4L507.67,228.4L507.67,171.08L507.67,171.08" style="vector-effect: non-scaling-stroke; fill: none; stroke: rgb(0, 0, 0); stroke-opacity: 0.5; stroke-width: 1px; opacity: 1;"/></g><g class="points"/><g class="text"/></g><g class="trace scatter trace6bfbd1" style="stroke-miterlimit: 2;"><g class="fills"><g><path class="js-fill" d="M504.04,2397.12L504.04,2397.12L504.04,165.61L333.45,165.61L333.45,223.9L504.04,223.9L504.04,165.61L504.04,165.61" style="fill: rgb(172, 142, 24); fill-opacity: 0.5; stroke-width: 0;"/></g></g><g class="errorbars"/><g class="lines"><path class="js-line" d="M504.04,165.61L333.45,165.61L333.45,223.9L504.04,223.9L504.04,165.61L504.04,165.61" style="vector-effect: non-scaling-stroke; fill: none; stroke: rgb(0, 0, 0); stroke-opacity: 0.5; stroke-width: 1px; opacity: 1;"/></g><g class="points"/><g class="text"/></g><g class="trace scatter trace86f4b4" style="stroke-miterlimit: 2;"><g class="fills"><g><path class="js-fill" d="M500.16,2397.12L500.16,2397.12L500.16,160.15L326.57,160.15L326.57,219.41L500.16,219.41L500.16,160.15L500.16,160.15" style="fill: rgb(0, 170, 174); fill-opacity: 0.5; stroke-width: 0;"/></g></g><g class="errorbars"/><g class="lines"><path class="js-line" d="M500.16,160.15L326.57,160.15L326.57,219.41L500.16,219.41L500.16,160.15L500.16,160.15" style="vector-effect: non-scaling-stroke; fill: none; stroke: rgb(0, 0, 0); stroke-opacity: 0.5; stroke-width: 1px; opacity: 1;"/></g><g class="points"/><g class="text"/></g><g class="trace scatter trace67e03d" style="stroke-miterlimit: 2;"><g class="fills"><g><path class="js-fill" d="M496.04,2397.12L496.04,2397.12L496.04,154.69L319.41,154.69L319.41,214.95L496.04,214.95L496.04,154.69L496.04,154.69" style="fill: rgb(237, 94, 147); fill-opacity: 0.5; stroke-width: 0;"/></g></g><g class="errorbars"/><g class="lines"><path class="js-line" d="M496.04,154.69L319.41,154.69L319.41,214.95L496.04,214.95L496.04,154.69L496.04,154.69" style="vector-effect: non-scaling-stroke; fill: none; stroke: rgb(0, 0, 0); stroke-opacity: 0.5; stroke-width: 1px; opacity: 1;"/></g><g class="points"/><g class="text"/></g><g class="trace scatter trace95e589" style="stroke-miterlimit: 2;"><g class="fills"><g><path class="js-fill" d="M491.68,2397.12L491.68,2397.12L491.68,149.23L311.98,149.23L311.98,210.52L491.68,210.52L491.68,149.23L491.68,149.23" style="fill: rgb(198, 130, 37); fill-opacity: 0.5; stroke-width: 0;"/></g></g><g class="errorbars"/><g class="lines"><path class="js-line" d="M491.68,149.23L311.98,149.23L311.98,210.52L491.68,210.52L491.68,149.23L491.68,149.23" style="vector-effect: non-scaling-stroke; fill: none; stroke: rgb(0, 0, 0); stroke-opacity: 0.5; stroke-width: 1px; opacity: 1;"/></g><g class="points"/><g class="text"/></g><g class="trace scatter tracef6ece4" style="stroke-miterlimit: 2;"><g class="fills"><g><path class="js-fill" d="M487.08,2397.12L487.08,2397.12L487.08,143.79L304.27,143.79L304.27,206.11L487.08,206.11L487.08,143.79L487.08,143.79" style="fill: rgb(0, 169, 141); fill-opacity: 0.5; stroke-width: 0;"/></g></g><g class="errorbars"/><g class="lines"><path class="js-line" d="M487.08,143.79L304.27,143.79L304.27,206.11L487.08,206.11L487.08,143.79L487.08,143.79" style="vector-effect: non-scaling-stroke; fill: none; stroke: rgb(0, 0, 0); stroke-opacity: 0.5; stroke-width: 1px; opacity: 1;"/></g><g class="points"/><g class="text"/></g><g class="trace scatter trace599cfe" style="stroke-miterlimit: 2;"><g class="fills"><g><path class="js-fill" d="M482.25,2397.12L482.25,2397.12L482.25,138.35L296.29,138.35L296.29,201.72L482.25,201.72L482.25,138.35L482.25,138.35" style="fill: rgb(142, 151, 30); fill-opacity: 0.5; stroke-width: 0;"/></g></g><g class="errorbars"/><g class="lines"><path class="js-line" d="M482.25,138.35L296.29,138.35L296.29,201.72L482.25,201.72L482.25,138.35L482.25,138.35" style="vector-effect: non-scaling-stroke; fill: none; stroke: rgb(0, 0, 0); stroke-opacity: 0.5; stroke-width: 1px; opacity: 1;"/></g><g class="points"/><g class="text"/></g><g class="trace scatter trace6a2ca8" style="stroke-miterlimit: 2;"><g class="fills"><g><path class="js-fill" d="M477.18,2397.12L477.18,2397.12L477.18,132.92L288.04,132.92L288.04,197.37L477.18,197.37L477.18,132.92L477.18,132.92" style="fill: rgb(0, 169, 204); fill-opacity: 0.5; stroke-width: 0;"/></g></g><g class="errorbars"/><g class="lines"><path class="js-line" d="M477.18,132.92L288.04,132.92L288.04,197.37L477.18,197.37L477.18,132.92L477.18,132.92" style="vector-effect: non-scaling-stroke; fill: none; stroke: rgb(0, 0, 0); stroke-opacity: 0.5; stroke-width: 1px; opacity: 1;"/></g><g class="points"/><g class="text"/></g><g class="trace scatter trace9b2361" style="stroke-miterlimit: 2;"><g class="fills"><g><path class="js-fill" d="M471.88,2397.12L471.88,2397.12L471.88,127.51L279.52,127.51L279.52,193.05L471.88,193.05L471.88,127.51L471.88,127.51" style="fill: rgb(155, 127, 233); fill-opacity: 0.5; stroke-width: 0;"/></g></g><g class="errorbars"/><g class="lines"><path class="js-line" d="M471.88,127.51L279.52,127.51L279.52,193.05L471.88,193.05L471.88,127.51L471.88,127.51" style="vector-effect: non-scaling-stroke; fill: none; stroke: rgb(0, 0, 0); stroke-opacity: 0.5; stroke-width: 1px; opacity: 1;"/></g><g class="points"/><g class="text"/></g><g class="trace scatter trace4e5c6b" style="stroke-miterlimit: 2;"><g class="fills"><g><path class="js-fill" d="M466.35,2397.12L466.35,2397.12L466.35,122.11L270.73,122.11L270.73,188.76L466.35,188.76L466.35,122.11L466.35,122.11" style="fill: rgb(97, 141, 246); fill-opacity: 0.5; stroke-width: 0;"/></g></g><g class="errorbars"/><g class="lines"><path class="js-line" d="M466.35,122.11L270.73,122.11L270.73,188.76L466.35,188.76L466.35,122.11L466.35,122.11" style="vector-effect: non-scaling-stroke; fill: none; stroke: rgb(0, 0, 0); stroke-opacity: 0.5; stroke-width: 1px; opacity: 1;"/></g><g class="points"/><g class="text"/></g><g class="trace scatter tracec75da8" style="stroke-miterlimit: 2;"><g class="fills"><g><path class="js-fill" d="M460.59,2397.12L460.59,2397.12L460.59,116.72L261.68,116.72L261.68,184.51L460.59,184.51L460.59,116.72L460.59,116.72" style="fill: rgb(240, 96, 115); fill-opacity: 0.5; stroke-width: 0;"/></g></g><g class="errorbars"/><g class="lines"><path class="js-line" d="M460.59,116.72L261.68,116.72L261.68,184.51L460.59,184.51L460.59,116.72L460.59,116.72" style="vector-effect: non-scaling-stroke; fill: none; stroke: rgb(0, 0, 0); stroke-opacity: 0.5; stroke-width: 1px; opacity: 1;"/></g><g class="points"/><g class="text"/></g><g class="trace scatter tracece32af" style="stroke-miterlimit: 2;"><g class="fills"><g><path class="js-fill" d="M454.61,2397.12L454.61,2397.12L454.61,111.35L252.36,111.35L252.36,180.29L454.61,180.29L454.61,111.35L454.61,111.35" style="fill: rgb(221, 101, 182); fill-opacity: 0.5; stroke-width: 0;"/></g></g><g class="errorbars"/><g class="lines"><path class="js-line" d="M454.61,111.35L252.36,111.35L252.36,180.29L454.61,180.29L454.61,111.35L454.61,111.35" style="vector-effect: non-scaling-stroke; fill: none; stroke: rgb(0, 0, 0); stroke-opacity: 0.5; stroke-width: 1px; opacity: 1;"/></g><g class="points"/><g class="text"/></g><g class="trace scatter tracefb4160" style="stroke-miterlimit: 2;"><g class="fills"><g><path class="js-fill" d="M448.41,2397.12L448.41,2397.12L448.41,106L242.79,106L242.79,176.1L448.41,176.1L448.41,106L448.41,106" style="fill: rgb(108, 159, 51); fill-opacity: 0.5; stroke-width: 0;"/></g></g><g class="errorbars"/><g class="lines"><path class="js-line" d="M448.41,106L242.79,106L242.79,176.1L448.41,176.1L448.41,106L448.41,106" style="vector-effect: non-scaling-stroke; fill: none; stroke: rgb(0, 0, 0); stroke-opacity: 0.5; stroke-width: 1px; opacity: 1;"/></g><g class="points"/><g class="text"/></g><g class="trace scatter trace791c3c" style="stroke-miterlimit: 2;"><g class="fills"><g><path class="js-fill" d="M441.99,2397.12L441.99,2397.12L441.99,100.66L232.95,100.66L232.95,171.96L441.99,171.96L441.99,100.66L441.99,100.66" style="fill: rgb(0, 154, 250); fill-opacity: 0.5; stroke-width: 0;"/></g></g><g class="errorbars"/><g class="lines"><path class="js-line" d="M441.99,100.66L232.95,100.66L232.95,171.96L441.99,171.96L441.99,100.66L441.99,100.66" style="vector-effect: non-scaling-stroke; fill: none; stroke: rgb(0, 0, 0); stroke-opacity: 0.5; stroke-width: 1px; opacity: 1;"/></g><g class="points"/><g class="text"/></g><g class="trace scatter trace25fe0f" style="stroke-miterlimit: 2;"><g class="fills"><g><path class="js-fill" d="M435.35,2397.12L435.35,2397.12L435.35,95.35L222.87,95.35L222.87,167.85L435.35,167.85L435.35,95.35L435.35,95.35" style="fill: rgb(227, 111, 71); fill-opacity: 0.5; stroke-width: 0;"/></g></g><g class="errorbars"/><g class="lines"><path class="js-line" d="M435.35,95.35L222.87,95.35L222.87,167.85L435.35,167.85L435.35,95.35L435.35,95.35" style="vector-effect: non-scaling-stroke; fill: none; stroke: rgb(0, 0, 0); stroke-opacity: 0.5; stroke-width: 1px; opacity: 1;"/></g><g class="points"/><g class="text"/></g><g class="trace scatter trace4080ae" style="stroke-miterlimit: 2;"><g class="fills"><g><path class="js-fill" d="M428.5,2397.12L428.5,2397.12L428.5,90.05L212.53,90.05L212.53,163.79L428.5,163.79L428.5,90.05L428.5,90.05" style="fill: rgb(62, 164, 78); fill-opacity: 0.5; stroke-width: 0;"/></g></g><g class="errorbars"/><g class="lines"><path class="js-line" d="M428.5,90.05L212.53,90.05L212.53,163.79L428.5,163.79L428.5,90.05L428.5,90.05" style="vector-effect: non-scaling-stroke; fill: none; stroke: rgb(0, 0, 0); stroke-opacity: 0.5; stroke-width: 1px; opacity: 1;"/></g><g class="points"/><g class="text"/></g><g class="trace scatter tracec364ee" style="stroke-miterlimit: 2;"><g class="fills"><g><path class="js-fill" d="M421.45,2397.12L421.45,2397.12L421.45,84.78L201.94,84.78L201.94,159.77L421.45,159.77L421.45,84.78L421.45,84.78" style="fill: rgb(195, 113, 210); fill-opacity: 0.5; stroke-width: 0;"/></g></g><g class="errorbars"/><g class="lines"><path class="js-line" d="M421.45,84.78L201.94,84.78L201.94,159.77L421.45,159.77L421.45,84.78L421.45,84.78" style="vector-effect: non-scaling-stroke; fill: none; stroke: rgb(0, 0, 0); stroke-opacity: 0.5; stroke-width: 1px; opacity: 1;"/></g><g class="points"/><g class="text"/></g><g class="trace scatter tracec5061b" style="stroke-miterlimit: 2;"><g class="fills"><g><path class="js-fill" d="M414.18,2397.12L414.18,2397.12L414.18,79.53L191.11,79.53L191.11,155.79L414.18,155.79L414.18,79.53L414.18,79.53" style="fill: rgb(172, 142, 24); fill-opacity: 0.5; stroke-width: 0;"/></g></g><g class="errorbars"/><g class="lines"><path class="js-line" d="M414.18,79.53L191.11,79.53L191.11,155.79L414.18,155.79L414.18,79.53L414.18,79.53" style="vector-effect: non-scaling-stroke; fill: none; stroke: rgb(0, 0, 0); stroke-opacity: 0.5; stroke-width: 1px; opacity: 1;"/></g><g class="points"/><g class="text"/></g><g class="trace scatter tracefd08ed" style="stroke-miterlimit: 2;"><g class="fills"><g><path class="js-fill" d="M406.72,2397.12L406.72,2397.12L406.72,74.31L180.03,74.31L180.03,151.86L406.72,151.86L406.72,74.31L406.72,74.31" style="fill: rgb(0, 170, 174); fill-opacity: 0.5; stroke-width: 0;"/></g></g><g class="errorbars"/><g class="lines"><path class="js-line" d="M406.72,74.31L180.03,74.31L180.03,151.86L406.72,151.86L406.72,74.31L406.72,74.31" style="vector-effect: non-scaling-stroke; fill: none; stroke: rgb(0, 0, 0); stroke-opacity: 0.5; stroke-width: 1px; opacity: 1;"/></g><g class="points"/><g class="text"/></g><g class="trace scatter tracea398ab" style="stroke-miterlimit: 2;"><g class="fills"><g><path class="js-fill" d="M399.05,2397.12L399.05,2397.12L399.05,69.11L168.72,69.11L168.72,147.98L399.05,147.98L399.05,69.11L399.05,69.11" style="fill: rgb(237, 94, 147); fill-opacity: 0.5; stroke-width: 0;"/></g></g><g class="errorbars"/><g class="lines"><path class="js-line" d="M399.05,69.11L168.72,69.11L168.72,147.98L399.05,147.98L399.05,69.11L399.05,69.11" style="vector-effect: non-scaling-stroke; fill: none; stroke: rgb(0, 0, 0); stroke-opacity: 0.5; stroke-width: 1px; opacity: 1;"/></g><g class="points"/><g class="text"/></g><g class="trace scatter traceb82e8e" style="stroke-miterlimit: 2;"><g class="fills"><g><path class="js-fill" d="M391.19,2397.12L391.19,2397.12L391.19,63.94L157.16,63.94L157.16,144.14L391.19,144.14L391.19,63.94L391.19,63.94" style="fill: rgb(198, 130, 37); fill-opacity: 0.5; stroke-width: 0;"/></g></g><g class="errorbars"/><g class="lines"><path class="js-line" d="M391.19,63.94L157.16,63.94L157.16,144.14L391.19,144.14L391.19,63.94L391.19,63.94" style="vector-effect: non-scaling-stroke; fill: none; stroke: rgb(0, 0, 0); stroke-opacity: 0.5; stroke-width: 1px; opacity: 1;"/></g><g class="points"/><g class="text"/></g><g class="trace scatter trace1accdd" style="stroke-miterlimit: 2;"><g class="fills"><g><path class="js-fill" d="M383.14,2397.12L383.14,2397.12L383.14,58.8L145.38,58.8L145.38,140.36L383.14,140.36L383.14,58.8L383.14,58.8" style="fill: rgb(0, 169, 141); fill-opacity: 0.5; stroke-width: 0;"/></g></g><g class="errorbars"/><g class="lines"><path class="js-line" d="M383.14,58.8L145.38,58.8L145.38,140.36L383.14,140.36L383.14,58.8L383.14,58.8" style="vector-effect: non-scaling-stroke; fill: none; stroke: rgb(0, 0, 0); stroke-opacity: 0.5; stroke-width: 1px; opacity: 1;"/></g><g class="points"/><g class="text"/></g><g class="trace scatter trace05155f" style="stroke-miterlimit: 2;"><g class="fills"><g><path class="js-fill" d="M374.9,2397.12L374.9,2397.12L374.9,53.69L133.36,53.69L133.36,136.63L374.9,136.63L374.9,53.69L374.9,53.69" style="fill: rgb(142, 151, 30); fill-opacity: 0.5; stroke-width: 0;"/></g></g><g class="errorbars"/><g class="lines"><path class="js-line" d="M374.9,53.69L133.36,53.69L133.36,136.63L374.9,136.63L374.9,53.69L374.9,53.69" style="vector-effect: non-scaling-stroke; fill: none; stroke: rgb(0, 0, 0); stroke-opacity: 0.5; stroke-width: 1px; opacity: 1;"/></g><g class="points"/><g class="text"/></g><g class="trace scatter traced665f2" style="stroke-miterlimit: 2;"><g class="fills"><g><path class="js-fill" d="M366.47,2397.12L366.47,2397.12L366.47,48.61L121.12,48.61L121.12,132.95L366.47,132.95L366.47,48.61L366.47,48.61" style="fill: rgb(0, 169, 204); fill-opacity: 0.5; stroke-width: 0;"/></g></g><g class="errorbars"/><g class="lines"><path class="js-line" d="M366.47,48.61L121.12,48.61L121.12,132.95L366.47,132.95L366.47,48.61L366.47,48.61" style="vector-effect: non-scaling-stroke; fill: none; stroke: rgb(0, 0, 0); stroke-opacity: 0.5; stroke-width: 1px; opacity: 1;"/></g><g class="points"/><g class="text"/></g><g class="trace scatter trace649848" style="stroke-miterlimit: 2;"><g class="fills"><g><path class="js-fill" d="M357.86,2397.12L357.86,2397.12L357.86,43.56L108.66,43.56L108.66,129.32L357.86,129.32L357.86,43.56L357.86,43.56" style="fill: rgb(155, 127, 233); fill-opacity: 0.5; stroke-width: 0;"/></g></g><g class="errorbars"/><g class="lines"><path class="js-line" d="M357.86,43.56L108.66,43.56L108.66,129.32L357.86,129.32L357.86,43.56L357.86,43.56" style="vector-effect: non-scaling-stroke; fill: none; stroke: rgb(0, 0, 0); stroke-opacity: 0.5; stroke-width: 1px; opacity: 1;"/></g><g class="points"/><g class="text"/></g><g class="trace scatter trace60f4ee" style="stroke-miterlimit: 2;"><g class="fills"><g><path class="js-fill" d="M349.08,2397.12L349.08,2397.12L349.08,38.54L95.98,38.54L95.98,125.75L349.08,125.75L349.08,38.54L349.08,38.54" style="fill: rgb(97, 141, 246); fill-opacity: 0.5; stroke-width: 0;"/></g></g><g class="errorbars"/><g class="lines"><path class="js-line" d="M349.08,38.54L95.98,38.54L95.98,125.75L349.08,125.75L349.08,38.54L349.08,38.54" style="vector-effect: non-scaling-stroke; fill: none; stroke: rgb(0, 0, 0); stroke-opacity: 0.5; stroke-width: 1px; opacity: 1;"/></g><g class="points"/><g class="text"/></g><g class="trace scatter traceb46a43" style="stroke-miterlimit: 2;"><g class="fills"><g><path class="js-fill" d="M340.12,2397.12L340.12,2397.12L340.12,33.56L83.08,33.56L83.08,122.23L340.12,122.23L340.12,33.56L340.12,33.56" style="fill: rgb(240, 96, 115); fill-opacity: 0.5; stroke-width: 0;"/></g></g><g class="errorbars"/><g class="lines"><path class="js-line" d="M340.12,33.56L83.08,33.56L83.08,122.23L340.12,122.23L340.12,33.56L340.12,33.56" style="vector-effect: non-scaling-stroke; fill: none; stroke: rgb(0, 0, 0); stroke-opacity: 0.5; stroke-width: 1px; opacity: 1;"/></g><g class="points"/><g class="text"/></g><g class="trace scatter trace3be7fe" style="stroke-miterlimit: 2;"><g class="fills"><g><path class="js-fill" d="M331,2397.12L331,2397.12L331,28.62L69.97,28.62L69.97,118.78L331,118.78L331,28.62L331,28.62" style="fill: rgb(221, 101, 182); fill-opacity: 0.5; stroke-width: 0;"/></g></g><g class="errorbars"/><g class="lines"><path class="js-line" d="M331,28.62L69.97,28.62L69.97,118.78L331,118.78L331,28.62L331,28.62" style="vector-effect: non-scaling-stroke; fill: none; stroke: rgb(0, 0, 0); stroke-opacity: 0.5; stroke-width: 1px; opacity: 1;"/></g><g class="points"/><g class="text"/></g><g class="trace scatter trace402842" style="stroke-miterlimit: 2;"><g class="fills"><g><path class="js-fill" d="M321.71,2397.12L321.71,2397.12L321.71,23.71L56.65,23.71L56.65,115.38L321.71,115.38L321.71,23.71L321.71,23.71" style="fill: rgb(108, 159, 51); fill-opacity: 0.5; stroke-width: 0;"/></g></g><g class="errorbars"/><g class="lines"><path class="js-line" d="M321.71,23.71L56.65,23.71L56.65,115.38L321.71,115.38L321.71,23.71L321.71,23.71" style="vector-effect: non-scaling-stroke; fill: none; stroke: rgb(0, 0, 0); stroke-opacity: 0.5; stroke-width: 1px; opacity: 1;"/></g><g class="points"/><g class="text"/></g><g class="trace scatter tracee55a54" style="stroke-miterlimit: 2;"><g class="fills"><g><path class="js-fill" d="M312.26,2397.12L312.26,2397.12L312.26,18.83L43.13,18.83L43.13,112.05L312.26,112.05L312.26,18.83L312.26,18.83" style="fill: rgb(0, 154, 250); fill-opacity: 0.5; stroke-width: 0;"/></g></g><g class="errorbars"/><g class="lines"><path class="js-line" d="M312.26,18.83L43.13,18.83L43.13,112.05L312.26,112.05L312.26,18.83L312.26,18.83" style="vector-effect: non-scaling-stroke; fill: none; stroke: rgb(0, 0, 0); stroke-opacity: 0.5; stroke-width: 1px; opacity: 1;"/></g><g class="points"/><g class="text"/></g><g class="trace scatter trace0e3e57" style="stroke-miterlimit: 2;"><g class="fills"><g><path class="js-fill" d="M302.66,2397.12L302.66,2397.12L302.66,14L29.41,14L29.41,108.78L302.66,108.78L302.66,14L302.66,14" style="fill: rgb(227, 111, 71); fill-opacity: 0.5; stroke-width: 0;"/></g></g><g class="errorbars"/><g class="lines"><path class="js-line" d="M302.66,14L29.41,14L29.41,108.78L302.66,108.78L302.66,14L302.66,14" style="vector-effect: non-scaling-stroke; fill: none; stroke: rgb(0, 0, 0); stroke-opacity: 0.5; stroke-width: 1px; opacity: 1;"/></g><g class="points"/><g class="text"/></g><g class="trace scatter trace8817e7" style="stroke-miterlimit: 2;"><g class="fills"><g><path class="js-fill" d="M292.9,2397.12L292.9,2397.12L292.9,9.21L15.5,9.21L15.5,105.57L292.9,105.57L292.9,9.21L292.9,9.21" style="fill: rgb(62, 164, 78); fill-opacity: 0.5; stroke-width: 0;"/></g></g><g class="errorbars"/><g class="lines"><path class="js-line" d="M292.9,9.21L15.5,9.21L15.5,105.57L292.9,105.57L292.9,9.21L292.9,9.21" style="vector-effect: non-scaling-stroke; fill: none; stroke: rgb(0, 0, 0); stroke-opacity: 0.5; stroke-width: 1px; opacity: 1;"/></g><g class="points"/><g class="text"/></g></g></g><g class="overplot"/><path class="xlines-above crisp" d="M47.381452318460184,366.95669291338584H596.0629921259842" style="fill: none; stroke-width: 1px; stroke: rgb(0, 0, 0); stroke-opacity: 1;"/><path class="ylines-above crisp" d="M47.881452318460184,41.04330708661415V366.45669291338584" style="fill: none; stroke-width: 1px; stroke: rgb(0, 0, 0); stroke-opacity: 1;"/><g class="overlines-above"/><g class="xaxislayer-above"><path class="xtick ticks crisp" d="M0,366.45669291338584v-5" transform="translate(91.83145231846018,0)" style="stroke: rgb(0, 0, 0); stroke-opacity: 1; stroke-width: 1px;"/><path class="xtick ticks crisp" d="M0,366.45669291338584v-5" transform="translate(165.37145231846017,0)" style="stroke: rgb(0, 0, 0); stroke-opacity: 1; stroke-width: 1px;"/><path class="xtick ticks crisp" d="M0,366.45669291338584v-5" transform="translate(238.9114523184602,0)" style="stroke: rgb(0, 0, 0); stroke-opacity: 1; stroke-width: 1px;"/><path class="xtick ticks crisp" d="M0,366.45669291338584v-5" transform="translate(312.45145231846016,0)" style="stroke: rgb(0, 0, 0); stroke-opacity: 1; stroke-width: 1px;"/><path class="xtick ticks crisp" d="M0,366.45669291338584v-5" transform="translate(385.9814523184602,0)" style="stroke: rgb(0, 0, 0); stroke-opacity: 1; stroke-width: 1px;"/><path class="xtick ticks crisp" d="M0,366.45669291338584v-5" transform="translate(459.52145231846015,0)" style="stroke: rgb(0, 0, 0); stroke-opacity: 1; stroke-width: 1px;"/><path class="xtick ticks crisp" d="M0,366.45669291338584v-5" transform="translate(533.0614523184602,0)" style="stroke: rgb(0, 0, 0); stroke-opacity: 1; stroke-width: 1px;"/><g class="xtick"><text text-anchor="middle" x="0" y="380.6566929133858" transform="translate(91.83145231846018,0)" style="font-family: sans-serif; font-size: 11px; fill: rgb(0, 0, 0); fill-opacity: 1; white-space: pre; opacity: 1;">1.18</text></g><g class="xtick"><text text-anchor="middle" x="0" y="380.6566929133858" style="font-family: sans-serif; font-size: 11px; fill: rgb(0, 0, 0); fill-opacity: 1; white-space: pre; opacity: 1;" transform="translate(165.37145231846017,0)">1.20</text></g><g class="xtick"><text text-anchor="middle" x="0" y="380.6566929133858" style="font-family: sans-serif; font-size: 11px; fill: rgb(0, 0, 0); fill-opacity: 1; white-space: pre; opacity: 1;" transform="translate(238.9114523184602,0)">1.22</text></g><g class="xtick"><text text-anchor="middle" x="0" y="380.6566929133858" style="font-family: sans-serif; font-size: 11px; fill: rgb(0, 0, 0); fill-opacity: 1; white-space: pre; opacity: 1;" transform="translate(312.45145231846016,0)">1.24</text></g><g class="xtick"><text text-anchor="middle" x="0" y="380.6566929133858" style="font-family: sans-serif; font-size: 11px; fill: rgb(0, 0, 0); fill-opacity: 1; white-space: pre; opacity: 1;" transform="translate(385.9814523184602,0)">1.26</text></g><g class="xtick"><text text-anchor="middle" x="0" y="380.6566929133858" style="font-family: sans-serif; font-size: 11px; fill: rgb(0, 0, 0); fill-opacity: 1; white-space: pre; opacity: 1;" transform="translate(459.52145231846015,0)">1.28</text></g><g class="xtick"><text text-anchor="middle" x="0" y="380.6566929133858" style="font-family: sans-serif; font-size: 11px; fill: rgb(0, 0, 0); fill-opacity: 1; white-space: pre; opacity: 1;" transform="translate(533.0614523184602,0)">1.30</text></g></g><g class="yaxislayer-above"><path class="ytick ticks crisp" d="M48.381452318460184,0h5" transform="translate(0,336.22330708661417)" style="stroke: rgb(0, 0, 0); stroke-opacity: 1; stroke-width: 1px;"/><path class="ytick ticks crisp" d="M48.381452318460184,0h5" transform="translate(0,283.68330708661415)" style="stroke: rgb(0, 0, 0); stroke-opacity: 1; stroke-width: 1px;"/><path class="ytick ticks crisp" d="M48.381452318460184,0h5" transform="translate(0,231.13330708661414)" style="stroke: rgb(0, 0, 0); stroke-opacity: 1; stroke-width: 1px;"/><path class="ytick ticks crisp" d="M48.381452318460184,0h5" transform="translate(0,178.58330708661413)" style="stroke: rgb(0, 0, 0); stroke-opacity: 1; stroke-width: 1px;"/><path class="ytick ticks crisp" d="M48.381452318460184,0h5" transform="translate(0,126.03330708661414)" style="stroke: rgb(0, 0, 0); stroke-opacity: 1; stroke-width: 1px;"/><path class="ytick ticks crisp" d="M48.381452318460184,0h5" transform="translate(0,73.48330708661415)" style="stroke: rgb(0, 0, 0); stroke-opacity: 1; stroke-width: 1px;"/><g class="ytick"><text text-anchor="end" x="45.18145231846018" y="3.8499999999999996" transform="translate(0,336.22330708661417)" style="font-family: sans-serif; font-size: 11px; fill: rgb(0, 0, 0); fill-opacity: 1; white-space: pre; opacity: 1;">1.000</text></g><g class="ytick"><text text-anchor="end" x="45.18145231846018" y="3.8499999999999996" style="font-family: sans-serif; font-size: 11px; fill: rgb(0, 0, 0); fill-opacity: 1; white-space: pre; opacity: 1;" transform="translate(0,283.68330708661415)">1.025</text></g><g class="ytick"><text text-anchor="end" x="45.18145231846018" y="3.8499999999999996" style="font-family: sans-serif; font-size: 11px; fill: rgb(0, 0, 0); fill-opacity: 1; white-space: pre; opacity: 1;" transform="translate(0,231.13330708661414)">1.050</text></g><g class="ytick"><text text-anchor="end" x="45.18145231846018" y="3.8499999999999996" style="font-family: sans-serif; font-size: 11px; fill: rgb(0, 0, 0); fill-opacity: 1; white-space: pre; opacity: 1;" transform="translate(0,178.58330708661413)">1.075</text></g><g class="ytick"><text text-anchor="end" x="45.18145231846018" y="3.8499999999999996" style="font-family: sans-serif; font-size: 11px; fill: rgb(0, 0, 0); fill-opacity: 1; white-space: pre; opacity: 1;" transform="translate(0,126.03330708661414)">1.100</text></g><g class="ytick"><text text-anchor="end" x="45.18145231846018" y="3.8499999999999996" style="font-family: sans-serif; font-size: 11px; fill: rgb(0, 0, 0); fill-opacity: 1; white-space: pre; opacity: 1;" transform="translate(0,73.48330708661415)">1.125</text></g></g><g class="overaxes-above"/></g></g><g class="polarlayer"/><g class="ternarylayer"/><g class="geolayer"/><g class="funnelarealayer"/><g class="pielayer"/><g class="iciclelayer"/><g class="treemaplayer"/><g class="sunburstlayer"/><g class="glimages"/><defs id="topdefs-704b6c"><g class="clips"/></defs><g class="layer-above"><g class="imagelayer"/><g class="shapelayer"/></g><g class="infolayer"><g class="g-gtitle"/><g class="g-xtitle"/><g class="g-ytitle"/><g class="annotation" data-index="0" style="opacity: 1;"><g class="annotation-text-g" transform="rotate(0,322.22222222222223,33.50000000000001)"><g class="cursor-pointer" transform="translate(193,20)"><rect class="bg" x="0.5" y="0.5" width="258" height="26" style="stroke-width: 1px; stroke: rgb(0, 0, 0); stroke-opacity: 0; fill: rgb(0, 0, 0); fill-opacity: 0;"/><text class="annotation-text" text-anchor="middle" x="129.310546875" y="20.3330078125" style="font-family: sans-serif; font-size: 20px; fill: rgb(0, 0, 0); fill-opacity: 1; white-space: pre;">Lotka_Volterra_Concrete_50</text></g></g></g></g></svg>