<svg class="main-svg" xmlns="http://www.w3.org/2000/svg" xmlns:xlink="http://www.w3.org/1999/xlink" width="600" height="400" style=""><rect x="0" y="0" width="600" height="400" style="fill: rgb(255, 255, 255); fill-opacity: 1;"/><defs id="defs-e5b88c"><g class="clips"><clipPath id="clipe5b88cxyplot" class="plotclip"><rect width="556.5704286964129" height="325.4133858267717"/></clipPath><clipPath class="axesclip" id="clipe5b88cx"><rect x="39.4925634295713" y="0" width="556.5704286964129" height="400"/></clipPath><clipPath class="axesclip" id="clipe5b88cy"><rect x="0" y="41.04330708661415" width="600" height="325.4133858267717"/></clipPath><clipPath class="axesclip" id="clipe5b88cxy"><rect x="39.4925634295713" y="41.04330708661415" width="556.5704286964129" height="325.4133858267717"/></clipPath></g><g class="gradients"/><g class="patterns"/></defs><g class="bglayer"/><g class="layer-below"><g class="imagelayer"/><g class="shapelayer"/></g><g class="cartesianlayer"><g class="subplot xy"><g class="layer-subplot"><g class="shapelayer"/><g class="imagelayer"/></g><g class="gridlayer"><g class="x"><path class="xgrid crisp" transform="translate(80.0625634295713,0)" d="M0,41.04330708661415v325.4133858267717" style="stroke: rgb(0, 0, 0); stroke-opacity: 0.1; stroke-width: 0.5px;"/><path class="xgrid crisp" transform="translate(150.5225634295713,0)" d="M0,41.04330708661415v325.4133858267717" style="stroke: rgb(0, 0, 0); stroke-opacity: 0.1; stroke-width: 0.5px;"/><path class="xgrid crisp" transform="translate(220.98256342957131,0)" d="M0,41.04330708661415v325.4133858267717" style="stroke: rgb(0, 0, 0); stroke-opacity: 0.1; stroke-width: 0.5px;"/><path class="xgrid crisp" transform="translate(291.4325634295713,0)" d="M0,41.04330708661415v325.4133858267717" style="stroke: rgb(0, 0, 0); stroke-opacity: 0.1; stroke-width: 0.5px;"/><path class="xgrid crisp" transform="translate(361.8925634295713,0)" d="M0,41.04330708661415v325.4133858267717" style="stroke: rgb(0, 0, 0); stroke-opacity: 0.1; stroke-width: 0.5px;"/><path class="xgrid crisp" transform="translate(432.3525634295713,0)" d="M0,41.04330708661415v325.4133858267717" style="stroke: rgb(0, 0, 0); stroke-opacity: 0.1; stroke-width: 0.5px;"/><path class="xgrid crisp" transform="translate(502.8125634295713,0)" d="M0,41.04330708661415v325.4133858267717" style="stroke: rgb(0, 0, 0); stroke-opacity: 0.1; stroke-width: 0.5px;"/><path class="xgrid crisp" transform="translate(573.2625634295713,0)" d="M0,41.04330708661415v325.4133858267717" style="stroke: rgb(0, 0, 0); stroke-opacity: 0.1; stroke-width: 0.5px;"/></g><g class="y"><path class="ygrid crisp" transform="translate(0,321.4033070866142)" d="M39.4925634295713,0h556.5704286964129" style="stroke: rgb(0, 0, 0); stroke-opacity: 0.1; stroke-width: 0.5px;"/><path class="ygrid crisp" transform="translate(0,253.61330708661416)" d="M39.4925634295713,0h556.5704286964129" style="stroke: rgb(0, 0, 0); stroke-opacity: 0.1; stroke-width: 0.5px;"/><path class="ygrid crisp" transform="translate(0,185.82330708661414)" d="M39.4925634295713,0h556.5704286964129" style="stroke: rgb(0, 0, 0); stroke-opacity: 0.1; stroke-width: 0.5px;"/><path class="ygrid crisp" transform="translate(0,118.04330708661415)" d="M39.4925634295713,0h556.5704286964129" style="stroke: rgb(0, 0, 0); stroke-opacity: 0.1; stroke-width: 0.5px;"/><path class="ygrid crisp" transform="translate(0,50.25330708661415)" d="M39.4925634295713,0h556.5704286964129" style="stroke: rgb(0, 0, 0); stroke-opacity: 0.1; stroke-width: 0.5px;"/></g></g><g class="zerolinelayer"/><path class="xlines-below"/><path class="ylines-below"/><g class="overlines-below"/><g class="xaxislayer-below"/><g class="yaxislayer-below"/><g class="overaxes-below"/><g class="plot" transform="translate(39.4925634295713,41.04330708661415)" clip-path="url(#clipe5b88cxyplot)"><g class="scatterlayer mlayer"><g class="trace scatter trace502b43" style="stroke-miterlimit: 2;"><g class="fills"><g><path class="js-fill" d="M533.77,77L533.77,77L533.77,9.21L463.32,9.21L463.32,77L533.77,77L533.77,9.21L533.77,9.21" style="fill: rgb(0, 154, 250); fill-opacity: 0.5; stroke-width: 0;"/></g></g><g class="errorbars"/><g class="lines"><path class="js-line" d="M533.77,9.21L463.32,9.21L463.32,77L533.77,77L533.77,9.21L533.77,9.21" style="vector-effect: non-scaling-stroke; fill: none; stroke: rgb(0, 0, 0); stroke-opacity: 0.5; stroke-width: 1px; opacity: 1;"/></g><g class="points"/><g class="text"/></g><g class="trace scatter tracec61077" style="stroke-miterlimit: 2;"><g class="fills"><g><path class="js-fill" d="M540.82,77L540.82,77L540.82,135.37L463.32,135.37L463.32,189.92L540.82,189.92L540.82,135.37L540.82,135.37" style="fill: rgb(227, 111, 71); fill-opacity: 0.5; stroke-width: 0;"/></g></g><g class="errorbars"/><g class="lines"><path class="js-line" d="M540.82,135.37L463.32,135.37L463.32,189.92L540.82,189.92L540.82,135.37L540.82,135.37" style="vector-effect: non-scaling-stroke; fill: none; stroke: rgb(0, 0, 0); stroke-opacity: 0.5; stroke-width: 1px; opacity: 1;"/></g><g class="points"/><g class="text"/></g><g class="trace scatter trace01c790" style="stroke-miterlimit: 2;"><g class="fills"><g><path class="js-fill" d="M534.75,77L534.75,77L534.75,195.71L451.58,195.71L451.58,250.4L534.75,250.4L534.75,195.71L534.75,195.71" style="fill: rgb(62, 164, 78); fill-opacity: 0.5; stroke-width: 0;"/></g></g><g class="errorbars"/><g class="lines"><path class="js-line" d="M534.75,195.71L451.58,195.71L451.58,250.4L534.75,250.4L534.75,195.71L534.75,195.71" style="vector-effect: non-scaling-stroke; fill: none; stroke: rgb(0, 0, 0); stroke-opacity: 0.5; stroke-width: 1px; opacity: 1;"/></g><g class="points"/><g class="text"/></g><g class="trace scatter trace618037" style="stroke-miterlimit: 2;"><g class="fills"><g><path class="js-fill" d="M522.41,77L522.41,77L522.41,228.24L433.55,228.24L433.55,286.43L522.41,286.43L522.41,228.24L522.41,228.24" style="fill: rgb(195, 113, 210); fill-opacity: 0.5; stroke-width: 0;"/></g></g><g class="errorbars"/><g class="lines"><path class="js-line" d="M522.41,228.24L433.55,228.24L433.55,286.43L522.41,286.43L522.41,228.24L522.41,228.24" style="vector-effect: non-scaling-stroke; fill: none; stroke: rgb(0, 0, 0); stroke-opacity: 0.5; stroke-width: 1px; opacity: 1;"/></g><g class="points"/><g class="text"/></g><g class="trace scatter trace2ff2f3" style="stroke-miterlimit: 2;"><g class="fills"><g><path class="js-fill" d="M506.69,77L506.69,77L506.69,244.5L411.79,244.5L411.79,306.13L506.69,306.13L506.69,244.5L506.69,244.5" style="fill: rgb(172, 142, 24); fill-opacity: 0.5; stroke-width: 0;"/></g></g><g class="errorbars"/><g class="lines"><path class="js-line" d="M506.69,244.5L411.79,244.5L411.79,306.13L506.69,306.13L506.69,244.5L506.69,244.5" style="vector-effect: non-scaling-stroke; fill: none; stroke: rgb(0, 0, 0); stroke-opacity: 0.5; stroke-width: 1px; opacity: 1;"/></g><g class="points"/><g class="text"/></g><g class="trace scatter trace06c56c" style="stroke-miterlimit: 2;"><g class="fills"><g><path class="js-fill" d="M489.28,77L489.28,77L489.28,249.69L387.97,249.69L387.97,314.47L489.28,314.47L489.28,249.69L489.28,249.69" style="fill: rgb(0, 170, 174); fill-opacity: 0.5; stroke-width: 0;"/></g></g><g class="errorbars"/><g class="lines"><path class="js-line" d="M489.28,249.69L387.97,249.69L387.97,314.47L489.28,314.47L489.28,249.69L489.28,249.69" style="vector-effect: non-scaling-stroke; fill: none; stroke: rgb(0, 0, 0); stroke-opacity: 0.5; stroke-width: 1px; opacity: 1;"/></g><g class="points"/><g class="text"/></g><g class="trace scatter trace8f9d5e" style="stroke-miterlimit: 2;"><g class="fills"><g><path class="js-fill" d="M471.33,77L471.33,77L471.33,248.69L363.29,248.69L363.29,316.2L471.33,316.2L471.33,248.69L471.33,248.69" style="fill: rgb(237, 94, 147); fill-opacity: 0.5; stroke-width: 0;"/></g></g><g class="errorbars"/><g class="lines"><path class="js-line" d="M471.33,248.69L363.29,248.69L363.29,316.2L471.33,316.2L471.33,248.69L471.33,248.69" style="vector-effect: non-scaling-stroke; fill: none; stroke: rgb(0, 0, 0); stroke-opacity: 0.5; stroke-width: 1px; opacity: 1;"/></g><g class="points"/><g class="text"/></g><g class="trace scatter tracead2f52" style="stroke-miterlimit: 2;"><g class="fills"><g><path class="js-fill" d="M453.49,77L453.49,77L453.49,243.28L338.42,243.28L338.42,313.14L453.49,313.14L453.49,243.28L453.49,243.28" style="fill: rgb(198, 130, 37); fill-opacity: 0.5; stroke-width: 0;"/></g></g><g class="errorbars"/><g class="lines"><path class="js-line" d="M453.49,243.28L338.42,243.28L338.42,313.14L453.49,313.14L453.49,243.28L453.49,243.28" style="vector-effect: non-scaling-stroke; fill: none; stroke: rgb(0, 0, 0); stroke-opacity: 0.5; stroke-width: 1px; opacity: 1;"/></g><g class="points"/><g class="text"/></g><g class="trace scatter trace026cd5" style="stroke-miterlimit: 2;"><g class="fills"><g><path class="js-fill" d="M436.2,77L436.2,77L436.2,234.59L313.88,234.59L313.88,306.9L436.2,306.9L436.2,234.59L436.2,234.59" style="fill: rgb(0, 169, 141); fill-opacity: 0.5; stroke-width: 0;"/></g></g><g class="errorbars"/><g class="lines"><path class="js-line" d="M436.2,234.59L313.88,234.59L313.88,306.9L436.2,306.9L436.2,234.59L436.2,234.59" style="vector-effect: non-scaling-stroke; fill: none; stroke: rgb(0, 0, 0); stroke-opacity: 0.5; stroke-width: 1px; opacity: 1;"/></g><g class="points"/><g class="text"/></g><g class="trace scatter trace5231c3" style="stroke-miterlimit: 2;"><g class="fills"><g><path class="js-fill" d="M419.82,77L419.82,77L419.82,223.47L289.98,223.47L289.98,298.71L419.82,298.71L419.82,223.47L419.82,223.47" style="fill: rgb(142, 151, 30); fill-opacity: 0.5; stroke-width: 0;"/></g></g><g class="errorbars"/><g class="lines"><path class="js-line" d="M419.82,223.47L289.98,223.47L289.98,298.71L419.82,298.71L419.82,223.47L419.82,223.47" style="vector-effect: non-scaling-stroke; fill: none; stroke: rgb(0, 0, 0); stroke-opacity: 0.5; stroke-width: 1px; opacity: 1;"/></g><g class="points"/><g class="text"/></g><g class="trace scatter tracee04591" style="stroke-miterlimit: 2;"><g class="fills"><g><path class="js-fill" d="M404.6,77L404.6,77L404.6,211.4L266.94,211.4L266.94,289.48L404.6,289.48L404.6,211.4L404.6,211.4" style="fill: rgb(0, 169, 204); fill-opacity: 0.5; stroke-width: 0;"/></g></g><g class="errorbars"/><g class="lines"><path class="js-line" d="M404.6,211.4L266.94,211.4L266.94,289.48L404.6,289.48L404.6,211.4L404.6,211.4" style="vector-effect: non-scaling-stroke; fill: none; stroke: rgb(0, 0, 0); stroke-opacity: 0.5; stroke-width: 1px; opacity: 1;"/></g><g class="points"/><g class="text"/></g><g class="trace scatter trace8d9588" style="stroke-miterlimit: 2;"><g class="fills"><g><path class="js-fill" d="M390.63,77L390.63,77L390.63,199.03L244.85,199.03L244.85,279.74L390.63,279.74L390.63,199.03L390.63,199.03" style="fill: rgb(155, 127, 233); fill-opacity: 0.5; stroke-width: 0;"/></g></g><g class="errorbars"/><g class="lines"><path class="js-line" d="M390.63,199.03L244.85,199.03L244.85,279.74L390.63,279.74L390.63,199.03L390.63,199.03" style="vector-effect: non-scaling-stroke; fill: none; stroke: rgb(0, 0, 0); stroke-opacity: 0.5; stroke-width: 1px; opacity: 1;"/></g><g class="points"/><g class="text"/></g><g class="trace scatter trace666d2f" style="stroke-miterlimit: 2;"><g class="fills"><g><path class="js-fill" d="M377.94,77L377.94,77L377.94,186.56L223.78,186.56L223.78,270.08L377.94,270.08L377.94,186.56L377.94,186.56" style="fill: rgb(97, 141, 246); fill-opacity: 0.5; stroke-width: 0;"/></g></g><g class="errorbars"/><g class="lines"><path class="js-line" d="M377.94,186.56L223.78,186.56L223.78,270.08L377.94,270.08L377.94,186.56L377.94,186.56" style="vector-effect: non-scaling-stroke; fill: none; stroke: rgb(0, 0, 0); stroke-opacity: 0.5; stroke-width: 1px; opacity: 1;"/></g><g class="points"/><g class="text"/></g><g class="trace scatter tracec7dfc4" style="stroke-miterlimit: 2;"><g class="fills"><g><path class="js-fill" d="M366.55,77L366.55,77L366.55,174.45L203.71,174.45L203.71,260.88L366.55,260.88L366.55,174.45L366.55,174.45" style="fill: rgb(240, 96, 115); fill-opacity: 0.5; stroke-width: 0;"/></g></g><g class="errorbars"/><g class="lines"><path class="js-line" d="M366.55,174.45L203.71,174.45L203.71,260.88L366.55,260.88L366.55,174.45L366.55,174.45" style="vector-effect: non-scaling-stroke; fill: none; stroke: rgb(0, 0, 0); stroke-opacity: 0.5; stroke-width: 1px; opacity: 1;"/></g><g class="points"/><g class="text"/></g><g class="trace scatter trace3f0a25" style="stroke-miterlimit: 2;"><g class="fills"><g><path class="js-fill" d="M356.42,77L356.42,77L356.42,161.51L184.6,161.51L184.6,252.35L356.42,252.35L356.42,161.51L356.42,161.51" style="fill: rgb(221, 101, 182); fill-opacity: 0.5; stroke-width: 0;"/></g></g><g class="errorbars"/><g class="lines"><path class="js-line" d="M356.42,161.51L184.6,161.51L184.6,252.35L356.42,252.35L356.42,161.51L356.42,161.51" style="vector-effect: non-scaling-stroke; fill: none; stroke: rgb(0, 0, 0); stroke-opacity: 0.5; stroke-width: 1px; opacity: 1;"/></g><g class="points"/><g class="text"/></g><g class="trace scatter trace05600e" style="stroke-miterlimit: 2;"><g class="fills"><g><path class="js-fill" d="M347.64,77L347.64,77L347.64,148.2L166.37,148.2L166.37,244.54L347.64,244.54L347.64,148.2L347.64,148.2" style="fill: rgb(108, 159, 51); fill-opacity: 0.5; stroke-width: 0;"/></g></g><g class="errorbars"/><g class="lines"><path class="js-line" d="M347.64,148.2L166.37,148.2L166.37,244.54L347.64,244.54L347.64,148.2L347.64,148.2" style="vector-effect: non-scaling-stroke; fill: none; stroke: rgb(0, 0, 0); stroke-opacity: 0.5; stroke-width: 1px; opacity: 1;"/></g><g class="points"/><g class="text"/></g><g class="trace scatter tracec75f6c" style="stroke-miterlimit: 2;"><g class="fills"><g><path class="js-fill" d="M340.23,77L340.23,77L340.23,135.23L148.96,135.23L148.96,237.48L340.23,237.48L340.23,135.23L340.23,135.23" style="fill: rgb(0, 154, 250); fill-opacity: 0.5; stroke-width: 0;"/></g></g><g class="errorbars"/><g class="lines"><path class="js-line" d="M340.23,135.23L148.96,135.23L148.96,237.48L340.23,237.48L340.23,135.23L340.23,135.23" style="vector-effect: non-scaling-stroke; fill: none; stroke: rgb(0, 0, 0); stroke-opacity: 0.5; stroke-width: 1px; opacity: 1;"/></g><g class="points"/><g class="text"/></g><g class="trace scatter trace36e6e9" style="stroke-miterlimit: 2;"><g class="fills"><g><path class="js-fill" d="M334.18,77L334.18,77L334.18,123.63L132.28,123.63L132.28,231.19L334.18,231.19L334.18,123.63L334.18,123.63" style="fill: rgb(227, 111, 71); fill-opacity: 0.5; stroke-width: 0;"/></g></g><g class="errorbars"/><g class="lines"><path class="js-line" d="M334.18,123.63L132.28,123.63L132.28,231.19L334.18,231.19L334.18,123.63L334.18,123.63" style="vector-effect: non-scaling-stroke; fill: none; stroke: rgb(0, 0, 0); stroke-opacity: 0.5; stroke-width: 1px; opacity: 1;"/></g><g class="points"/><g class="text"/></g><g class="trace scatter tracee9fdd9" style="stroke-miterlimit: 2;"><g class="fills"><g><path class="js-fill" d="M329.33,77L329.33,77L329.33,113.02L116.25,113.02L116.25,225.71L329.33,225.71L329.33,113.02L329.33,113.02" style="fill: rgb(62, 164, 78); fill-opacity: 0.5; stroke-width: 0;"/></g></g><g class="errorbars"/><g class="lines"><path class="js-line" d="M329.33,113.02L116.25,113.02L116.25,225.71L329.33,225.71L329.33,113.02L329.33,113.02" style="vector-effect: non-scaling-stroke; fill: none; stroke: rgb(0, 0, 0); stroke-opacity: 0.5; stroke-width: 1px; opacity: 1;"/></g><g class="points"/><g class="text"/></g><g class="trace scatter trace873d9e" style="stroke-miterlimit: 2;"><g class="fills"><g><path class="js-fill" d="M325.59,77L325.59,77L325.59,102.35L100.79,102.35L100.79,221.02L325.59,221.02L325.59,102.35L325.59,102.35" style="fill: rgb(195, 113, 210); fill-opacity: 0.5; stroke-width: 0;"/></g></g><g class="errorbars"/><g class="lines"><path class="js-line" d="M325.59,102.35L100.79,102.35L100.79,221.02L325.59,221.02L325.59,102.35L325.59,102.35" style="vector-effect: non-scaling-stroke; fill: none; stroke: rgb(0, 0, 0); stroke-opacity: 0.5; stroke-width: 1px; opacity: 1;"/></g><g class="points"/><g class="text"/></g><g class="trace scatter trace931780" style="stroke-miterlimit: 2;"><g class="fills"><g><path class="js-fill" d="M322.95,77L322.95,77L322.95,93.13L85.82,93.13L85.82,217.08L322.95,217.08L322.95,93.13L322.95,93.13" style="fill: rgb(172, 142, 24); fill-opacity: 0.5; stroke-width: 0;"/></g></g><g class="errorbars"/><g class="lines"><path class="js-line" d="M322.95,93.13L85.82,93.13L85.82,217.08L322.95,217.08L322.95,93.13L322.95,93.13" style="vector-effect: non-scaling-stroke; fill: none; stroke: rgb(0, 0, 0); stroke-opacity: 0.5; stroke-width: 1px; opacity: 1;"/></g><g class="points"/><g class="text"/></g><g class="trace scatter trace857e3a" style="stroke-miterlimit: 2;"><g class="fills"><g><path class="js-fill" d="M321.28,77L321.28,77L321.28,85.11L71.26,85.11L71.26,213.85L321.28,213.85L321.28,85.11L321.28,85.11" style="fill: rgb(0, 170, 174); fill-opacity: 0.5; stroke-width: 0;"/></g></g><g class="errorbars"/><g class="lines"><path class="js-line" d="M321.28,85.11L71.26,85.11L71.26,213.85L321.28,213.85L321.28,85.11L321.28,85.11" style="vector-effect: non-scaling-stroke; fill: none; stroke: rgb(0, 0, 0); stroke-opacity: 0.5; stroke-width: 1px; opacity: 1;"/></g><g class="points"/><g class="text"/></g><g class="trace scatter trace501d75" style="stroke-miterlimit: 2;"><g class="fills"><g><path class="js-fill" d="M320.43,77L320.43,77L320.43,77.64L57.04,77.64L57.04,211.23L320.43,211.23L320.43,77.64L320.43,77.64" style="fill: rgb(237, 94, 147); fill-opacity: 0.5; stroke-width: 0;"/></g></g><g class="errorbars"/><g class="lines"><path class="js-line" d="M320.43,77.64L57.04,77.64L57.04,211.23L320.43,211.23L320.43,77.64L320.43,77.64" style="vector-effect: non-scaling-stroke; fill: none; stroke: rgb(0, 0, 0); stroke-opacity: 0.5; stroke-width: 1px; opacity: 1;"/></g><g class="points"/><g class="text"/></g><g class="trace scatter trace40652c" style="stroke-miterlimit: 2;"><g class="fills"><g><path class="js-fill" d="M320.37,77L320.37,77L320.37,71.8L43.09,71.8L43.09,209.21L320.37,209.21L320.37,71.8L320.37,71.8" style="fill: rgb(198, 130, 37); fill-opacity: 0.5; stroke-width: 0;"/></g></g><g class="errorbars"/><g class="lines"><path class="js-line" d="M320.37,71.8L43.09,71.8L43.09,209.21L320.37,209.21L320.37,71.8L320.37,71.8" style="vector-effect: non-scaling-stroke; fill: none; stroke: rgb(0, 0, 0); stroke-opacity: 0.5; stroke-width: 1px; opacity: 1;"/></g><g class="points"/><g class="text"/></g><g class="trace scatter tracef2560b" style="stroke-miterlimit: 2;"><g class="fills"><g><path class="js-fill" d="M320.91,77L320.91,77L320.91,67.02L29.34,67.02L29.34,207.74L320.91,207.74L320.91,67.02L320.91,67.02" style="fill: rgb(0, 169, 141); fill-opacity: 0.5; stroke-width: 0;"/></g></g><g class="errorbars"/><g class="lines"><path class="js-line" d="M320.91,67.02L29.34,67.02L29.34,207.74L320.91,207.74L320.91,67.02L320.91,67.02" style="vector-effect: non-scaling-stroke; fill: none; stroke: rgb(0, 0, 0); stroke-opacity: 0.5; stroke-width: 1px; opacity: 1;"/></g><g class="points"/><g class="text"/></g><g class="trace scatter trace5035ce" style="stroke-miterlimit: 2;"><g class="fills"><g><path class="js-fill" d="M321.94,77L321.94,77L321.94,62.91L15.75,62.91L15.75,206.76L321.94,206.76L321.94,62.91L321.94,62.91" style="fill: rgb(142, 151, 30); fill-opacity: 0.5; stroke-width: 0;"/></g></g><g class="errorbars"/><g class="lines"><path class="js-line" d="M321.94,62.91L15.75,62.91L15.75,206.76L321.94,206.76L321.94,62.91L321.94,62.91" style="vector-effect: non-scaling-stroke; fill: none; stroke: rgb(0, 0, 0); stroke-opacity: 0.5; stroke-width: 1px; opacity: 1;"/></g><g class="points"/><g class="text"/></g></g></g><g class="overplot"/><path class="xlines-above crisp" d="M38.4925634295713,366.95669291338584H596.0629921259842" style="fill: none; stroke-width: 1px; stroke: rgb(0, 0, 0); stroke-opacity: 1;"/><path class="ylines-above crisp" d="M38.9925634295713,41.04330708661415V366.45669291338584" style="fill: none; stroke-width: 1px; stroke: rgb(0, 0, 0); stroke-opacity: 1;"/><g class="overlines-above"/><g class="xaxislayer-above"><path class="xtick ticks crisp" d="M0,366.45669291338584v-5" transform="translate(80.0625634295713,0)" style="stroke: rgb(0, 0, 0); stroke-opacity: 1; stroke-width: 1px;"/><path class="xtick ticks crisp" d="M0,366.45669291338584v-5" transform="translate(150.5225634295713,0)" style="stroke: rgb(0, 0, 0); stroke-opacity: 1; stroke-width: 1px;"/><path class="xtick ticks crisp" d="M0,366.45669291338584v-5" transform="translate(220.98256342957131,0)" style="stroke: rgb(0, 0, 0); stroke-opacity: 1; stroke-width: 1px;"/><path class="xtick ticks crisp" d="M0,366.45669291338584v-5" transform="translate(291.4325634295713,0)" style="stroke: rgb(0, 0, 0); stroke-opacity: 1; stroke-width: 1px;"/><path class="xtick ticks crisp" d="M0,366.45669291338584v-5" transform="translate(361.8925634295713,0)" style="stroke: rgb(0, 0, 0); stroke-opacity: 1; stroke-width: 1px;"/><path class="xtick ticks crisp" d="M0,366.45669291338584v-5" transform="translate(432.3525634295713,0)" style="stroke: rgb(0, 0, 0); stroke-opacity: 1; stroke-width: 1px;"/><path class="xtick ticks crisp" d="M0,366.45669291338584v-5" transform="translate(502.8125634295713,0)" style="stroke: rgb(0, 0, 0); stroke-opacity: 1; stroke-width: 1px;"/><path class="xtick ticks crisp" d="M0,366.45669291338584v-5" transform="translate(573.2625634295713,0)" style="stroke: rgb(0, 0, 0); stroke-opacity: 1; stroke-width: 1px;"/><g class="xtick"><text text-anchor="middle" x="0" y="380.6566929133858" transform="translate(80.0625634295713,0)" style="font-family: sans-serif; font-size: 11px; fill: rgb(0, 0, 0); fill-opacity: 1; white-space: pre; opacity: 1;">−0.2</text></g><g class="xtick"><text text-anchor="middle" x="0" y="380.6566929133858" style="font-family: sans-serif; font-size: 11px; fill: rgb(0, 0, 0); fill-opacity: 1; white-space: pre; opacity: 1;" transform="translate(150.5225634295713,0)">0.0</text></g><g class="xtick"><text text-anchor="middle" x="0" y="380.6566929133858" style="font-family: sans-serif; font-size: 11px; fill: rgb(0, 0, 0); fill-opacity: 1; white-space: pre; opacity: 1;" transform="translate(220.98256342957131,0)">0.2</text></g><g class="xtick"><text text-anchor="middle" x="0" y="380.6566929133858" style="font-family: sans-serif; font-size: 11px; fill: rgb(0, 0, 0); fill-opacity: 1; white-space: pre; opacity: 1;" transform="translate(291.4325634295713,0)">0.4</text></g><g class="xtick"><text text-anchor="middle" x="0" y="380.6566929133858" style="font-family: sans-serif; font-size: 11px; fill: rgb(0, 0, 0); fill-opacity: 1; white-space: pre; opacity: 1;" transform="translate(361.8925634295713,0)">0.6</text></g><g class="xtick"><text text-anchor="middle" x="0" y="380.6566929133858" style="font-family: sans-serif; font-size: 11px; fill: rgb(0, 0, 0); fill-opacity: 1; white-space: pre; opacity: 1;" transform="translate(432.3525634295713,0)">0.8</text></g><g class="xtick"><text text-anchor="middle" x="0" y="380.6566929133858" style="font-family: sans-serif; font-size: 11px; fill: rgb(0, 0, 0); fill-opacity: 1; white-space: pre; opacity: 1;" transform="translate(502.8125634295713,0)">1.0</text></g><g class="xtick"><text text-anchor="middle" x="0" y="380.6566929133858" style="font-family: sans-serif; font-size: 11px; fill: rgb(0, 0, 0); fill-opacity: 1; white-space: pre; opacity: 1;" transform="translate(573.2625634295713,0)">1.2</text></g></g><g class="yaxislayer-above"><path class="ytick ticks crisp" d="M39.4925634295713,0h5" transform="translate(0,321.4033070866142)" style="stroke: rgb(0, 0, 0); stroke-opacity: 1; stroke-width: 1px;"/><path class="ytick ticks crisp" d="M39.4925634295713,0h5" transform="translate(0,253.61330708661416)" style="stroke: rgb(0, 0, 0); stroke-opacity: 1; stroke-width: 1px;"/><path class="ytick ticks crisp" d="M39.4925634295713,0h5" transform="translate(0,185.82330708661414)" style="stroke: rgb(0, 0, 0); stroke-opacity: 1; stroke-width: 1px;"/><path class="ytick ticks crisp" d="M39.4925634295713,0h5" transform="translate(0,118.04330708661415)" style="stroke: rgb(0, 0, 0); stroke-opacity: 1; stroke-width: 1px;"/><path class="ytick ticks crisp" d="M39.4925634295713,0h5" transform="translate(0,50.25330708661415)" style="stroke: rgb(0, 0, 0); stroke-opacity: 1; stroke-width: 1px;"/><g class="ytick"><text text-anchor="end" x="36.292563429571295" y="3.8499999999999996" transform="translate(0,321.4033070866142)" style="font-family: sans-serif; font-size: 11px; fill: rgb(0, 0, 0); fill-opacity: 1; white-space: pre; opacity: 1;">−0.6</text></g><g class="ytick"><text text-anchor="end" x="36.292563429571295" y="3.8499999999999996" style="font-family: sans-serif; font-size: 11px; fill: rgb(0, 0, 0); fill-opacity: 1; white-space: pre; opacity: 1;" transform="translate(0,253.61330708661416)">−0.4</text></g><g class="ytick"><text text-anchor="end" x="36.292563429571295" y="3.8499999999999996" style="font-family: sans-serif; font-size: 11px; fill: rgb(0, 0, 0); fill-opacity: 1; white-space: pre; opacity: 1;" transform="translate(0,185.82330708661414)">−0.2</text></g><g class="ytick"><text text-anchor="end" x="36.292563429571295" y="3.8499999999999996" style="font-family: sans-serif; font-size: 11px; fill: rgb(0, 0, 0); fill-opacity: 1; white-space: pre; opacity: 1;" transform="translate(0,118.04330708661415)">0.0</text></g><g class="ytick"><text text-anchor="end" x="36.292563429571295" y="3.8499999999999996" style="font-family: sans-serif; font-size: 11px; fill: rgb(0, 0, 0); fill-opacity: 1; white-space: pre; opacity: 1;" transform="translate(0,50.25330708661415)">0.2</text></g></g><g class="overaxes-above"/></g></g><g class="polarlayer"/><g class="ternarylayer"/><g class="geolayer"/><g class="funnelarealayer"/><g class="pielayer"/><g class="iciclelayer"/><g class="treemaplayer"/><g class="sunburstlayer"/><g class="glimages"/><defs id="topdefs-e5b88c"><g class="clips"/></defs><g class="layer-above"><g class="imagelayer"/><g class="shapelayer"/></g><g class="infolayer"><g class="g-gtitle"/><g class="g-xtitle"/><g class="g-ytitle"/><g class="annotation" data-index="0" style="opacity: 1;"><g class="annotation-text-g" transform="rotate(0,317.7777777777777,33.500000000000014)"><g class="cursor-pointer" transform="translate(140,20)"><rect class="bg" x="0.5" y="0.5" width="355" height="26" style="stroke-width: 1px; stroke: rgb(0, 0, 0); stroke-opacity: 0; fill: rgb(0, 0, 0); fill-opacity: 0;"/><text class="annotation-text" text-anchor="middle" x="178.2109375" y="20.3330078125" style="font-family: sans-serif; font-size: 20px; fill: rgb(0, 0, 0); fill-opacity: 1; white-space: pre;">Single Pendulum Concrete Reachability</text></g></g></g></g></svg>