<svg class="main-svg" xmlns="http://www.w3.org/2000/svg" xmlns:xlink="http://www.w3.org/1999/xlink" width="600" height="400" style=""><rect x="0" y="0" width="600" height="400" style="fill: rgb(255, 255, 255); fill-opacity: 1;"/><defs id="defs-76c5e6"><g class="clips"><clipPath id="clip76c5e6xyplot" class="plotclip"><rect width="556.5704286964129" height="325.4133858267717"/></clipPath><clipPath class="axesclip" id="clip76c5e6x"><rect x="39.4925634295713" y="0" width="556.5704286964129" height="400"/></clipPath><clipPath class="axesclip" id="clip76c5e6y"><rect x="0" y="41.04330708661415" width="600" height="325.4133858267717"/></clipPath><clipPath class="axesclip" id="clip76c5e6xy"><rect x="39.4925634295713" y="41.04330708661415" width="556.5704286964129" height="325.4133858267717"/></clipPath></g><g class="gradients"/><g class="patterns"/></defs><g class="bglayer"/><g class="layer-below"><g class="imagelayer"/><g class="shapelayer"/></g><g class="cartesianlayer"><g class="subplot xy"><g class="layer-subplot"><g class="shapelayer"/><g class="imagelayer"/></g><g class="gridlayer"><g class="x"><path class="xgrid crisp" transform="translate(125.8425634295713,0)" d="M0,41.04330708661415v325.4133858267717" style="stroke: rgb(0, 0, 0); stroke-opacity: 0.1; stroke-width: 0.5px;"/><path class="xgrid crisp" transform="translate(226.6325634295713,0)" d="M0,41.04330708661415v325.4133858267717" style="stroke: rgb(0, 0, 0); stroke-opacity: 0.1; stroke-width: 0.5px;"/><path class="xgrid crisp" transform="translate(327.4325634295713,0)" d="M0,41.04330708661415v325.4133858267717" style="stroke: rgb(0, 0, 0); stroke-opacity: 0.1; stroke-width: 0.5px;"/><path class="xgrid crisp" transform="translate(428.2225634295713,0)" d="M0,41.04330708661415v325.4133858267717" style="stroke: rgb(0, 0, 0); stroke-opacity: 0.1; stroke-width: 0.5px;"/><path class="xgrid crisp" transform="translate(529.0225634295713,0)" d="M0,41.04330708661415v325.4133858267717" style="stroke: rgb(0, 0, 0); stroke-opacity: 0.1; stroke-width: 0.5px;"/></g><g class="y"><path class="ygrid crisp" transform="translate(0,330.43330708661415)" d="M39.4925634295713,0h556.5704286964129" style="stroke: rgb(0, 0, 0); stroke-opacity: 0.1; stroke-width: 0.5px;"/><path class="ygrid crisp" transform="translate(0,250.38330708661414)" d="M39.4925634295713,0h556.5704286964129" style="stroke: rgb(0, 0, 0); stroke-opacity: 0.1; stroke-width: 0.5px;"/><path class="ygrid crisp" transform="translate(0,170.33330708661413)" d="M39.4925634295713,0h556.5704286964129" style="stroke: rgb(0, 0, 0); stroke-opacity: 0.1; stroke-width: 0.5px;"/><path class="ygrid crisp" transform="translate(0,90.28330708661414)" d="M39.4925634295713,0h556.5704286964129" style="stroke: rgb(0, 0, 0); stroke-opacity: 0.1; stroke-width: 0.5px;"/></g></g><g class="zerolinelayer"/><path class="xlines-below"/><path class="ylines-below"/><g class="overlines-below"/><g class="xaxislayer-below"/><g class="yaxislayer-below"/><g class="overaxes-below"/><g class="plot" transform="translate(39.4925634295713,41.04330708661415)" clip-path="url(#clip76c5e6xyplot)"><g class="scatterlayer mlayer"><g class="trace scatter trace379e4d" style="stroke-miterlimit: 2;"><g class="fills"><g><path class="js-fill" d="M523.12,49.24L523.12,49.24L523.12,9.21L187.14,9.21L187.14,89.26L523.12,89.26L523.12,9.21L523.12,9.21" style="fill: rgb(0, 154, 250); fill-opacity: 0.5; stroke-width: 0;"/></g></g><g class="errorbars"/><g class="lines"><path class="js-line" d="M523.12,9.21L187.14,9.21L187.14,89.26L523.12,89.26L523.12,9.21L523.12,9.21" style="vector-effect: non-scaling-stroke; fill: none; stroke: rgb(0, 0, 0); stroke-opacity: 0.5; stroke-width: 1px; opacity: 1;"/></g><g class="points"/><g class="text"/></g><g class="trace scatter trace8ab6be" style="stroke-miterlimit: 2;"><g class="fills"><g><path class="js-fill" d="M524.8,49.24L524.8,49.24L524.8,18.69L185.46,18.69L185.46,132.24L524.8,132.24L524.8,18.69L524.8,18.69" style="fill: rgb(227, 111, 71); fill-opacity: 0.5; stroke-width: 0;"/></g></g><g class="errorbars"/><g class="lines"><path class="js-line" d="M524.8,18.69L185.46,18.69L185.46,132.24L524.8,132.24L524.8,18.69L524.8,18.69" style="vector-effect: non-scaling-stroke; fill: none; stroke: rgb(0, 0, 0); stroke-opacity: 0.5; stroke-width: 1px; opacity: 1;"/></g><g class="points"/><g class="text"/></g><g class="trace scatter traced55f88" style="stroke-miterlimit: 2;"><g class="fills"><g><path class="js-fill" d="M526.09,49.24L526.09,49.24L526.09,26.29L181.98,26.29L181.98,164.65L526.09,164.65L526.09,26.29L526.09,26.29" style="fill: rgb(62, 164, 78); fill-opacity: 0.5; stroke-width: 0;"/></g></g><g class="errorbars"/><g class="lines"><path class="js-line" d="M526.09,26.29L181.98,26.29L181.98,164.65L526.09,164.65L526.09,26.29L526.09,26.29" style="vector-effect: non-scaling-stroke; fill: none; stroke: rgb(0, 0, 0); stroke-opacity: 0.5; stroke-width: 1px; opacity: 1;"/></g><g class="points"/><g class="text"/></g><g class="trace scatter trace0997d4" style="stroke-miterlimit: 2;"><g class="fills"><g><path class="js-fill" d="M527.05,49.24L527.05,49.24L527.05,32L177.13,32L177.13,190.92L527.05,190.92L527.05,32L527.05,32" style="fill: rgb(195, 113, 210); fill-opacity: 0.5; stroke-width: 0;"/></g></g><g class="errorbars"/><g class="lines"><path class="js-line" d="M527.05,32L177.13,32L177.13,190.92L527.05,190.92L527.05,32L527.05,32" style="vector-effect: non-scaling-stroke; fill: none; stroke: rgb(0, 0, 0); stroke-opacity: 0.5; stroke-width: 1px; opacity: 1;"/></g><g class="points"/><g class="text"/></g><g class="trace scatter trace84638a" style="stroke-miterlimit: 2;"><g class="fills"><g><path class="js-fill" d="M527.77,49.24L527.77,49.24L527.77,35.33L171.19,35.33L171.19,212.38L527.77,212.38L527.77,35.33L527.77,35.33" style="fill: rgb(172, 142, 24); fill-opacity: 0.5; stroke-width: 0;"/></g></g><g class="errorbars"/><g class="lines"><path class="js-line" d="M527.77,35.33L171.19,35.33L171.19,212.38L527.77,212.38L527.77,35.33L527.77,35.33" style="vector-effect: non-scaling-stroke; fill: none; stroke: rgb(0, 0, 0); stroke-opacity: 0.5; stroke-width: 1px; opacity: 1;"/></g><g class="points"/><g class="text"/></g><g class="trace scatter trace49ff43" style="stroke-miterlimit: 2;"><g class="fills"><g><path class="js-fill" d="M528.36,49.24L528.36,49.24L528.36,36.34L164.34,36.34L164.34,229.97L528.36,229.97L528.36,36.34L528.36,36.34" style="fill: rgb(0, 170, 174); fill-opacity: 0.5; stroke-width: 0;"/></g></g><g class="errorbars"/><g class="lines"><path class="js-line" d="M528.36,36.34L164.34,36.34L164.34,229.97L528.36,229.97L528.36,36.34L528.36,36.34" style="vector-effect: non-scaling-stroke; fill: none; stroke: rgb(0, 0, 0); stroke-opacity: 0.5; stroke-width: 1px; opacity: 1;"/></g><g class="points"/><g class="text"/></g><g class="trace scatter trace4b4608" style="stroke-miterlimit: 2;"><g class="fills"><g><path class="js-fill" d="M528.9,49.24L528.9,49.24L528.9,36.68L156.75,36.68L156.75,244.54L528.9,244.54L528.9,36.68L528.9,36.68" style="fill: rgb(237, 94, 147); fill-opacity: 0.5; stroke-width: 0;"/></g></g><g class="errorbars"/><g class="lines"><path class="js-line" d="M528.9,36.68L156.75,36.68L156.75,244.54L528.9,244.54L528.9,36.68L528.9,36.68" style="vector-effect: non-scaling-stroke; fill: none; stroke: rgb(0, 0, 0); stroke-opacity: 0.5; stroke-width: 1px; opacity: 1;"/></g><g class="points"/><g class="text"/></g><g class="trace scatter traceaa91fb" style="stroke-miterlimit: 2;"><g class="fills"><g><path class="js-fill" d="M529.42,49.24L529.42,49.24L529.42,36.47L148.56,36.47L148.56,256.64L529.42,256.64L529.42,36.47L529.42,36.47" style="fill: rgb(198, 130, 37); fill-opacity: 0.5; stroke-width: 0;"/></g></g><g class="errorbars"/><g class="lines"><path class="js-line" d="M529.42,36.47L148.56,36.47L148.56,256.64L529.42,256.64L529.42,36.47L529.42,36.47" style="vector-effect: non-scaling-stroke; fill: none; stroke: rgb(0, 0, 0); stroke-opacity: 0.5; stroke-width: 1px; opacity: 1;"/></g><g class="points"/><g class="text"/></g><g class="trace scatter trace3f5fe5" style="stroke-miterlimit: 2;"><g class="fills"><g><path class="js-fill" d="M529.96,49.24L529.96,49.24L529.96,35.96L139.85,35.96L139.85,266.69L529.96,266.69L529.96,35.96L529.96,35.96" style="fill: rgb(0, 169, 141); fill-opacity: 0.5; stroke-width: 0;"/></g></g><g class="errorbars"/><g class="lines"><path class="js-line" d="M529.96,35.96L139.85,35.96L139.85,266.69L529.96,266.69L529.96,35.96L529.96,35.96" style="vector-effect: non-scaling-stroke; fill: none; stroke: rgb(0, 0, 0); stroke-opacity: 0.5; stroke-width: 1px; opacity: 1;"/></g><g class="points"/><g class="text"/></g><g class="trace scatter tracee999ab" style="stroke-miterlimit: 2;"><g class="fills"><g><path class="js-fill" d="M530.52,49.24L530.52,49.24L530.52,35.17L130.72,35.17L130.72,275.06L530.52,275.06L530.52,35.17L530.52,35.17" style="fill: rgb(142, 151, 30); fill-opacity: 0.5; stroke-width: 0;"/></g></g><g class="errorbars"/><g class="lines"><path class="js-line" d="M530.52,35.17L130.72,35.17L130.72,275.06L530.52,275.06L530.52,35.17L530.52,35.17" style="vector-effect: non-scaling-stroke; fill: none; stroke: rgb(0, 0, 0); stroke-opacity: 0.5; stroke-width: 1px; opacity: 1;"/></g><g class="points"/><g class="text"/></g><g class="trace scatter trace20fc7d" style="stroke-miterlimit: 2;"><g class="fills"><g><path class="js-fill" d="M531.11,49.24L531.11,49.24L531.11,34.11L121.25,34.11L121.25,282.04L531.11,282.04L531.11,34.11L531.11,34.11" style="fill: rgb(0, 169, 204); fill-opacity: 0.5; stroke-width: 0;"/></g></g><g class="errorbars"/><g class="lines"><path class="js-line" d="M531.11,34.11L121.25,34.11L121.25,282.04L531.11,282.04L531.11,34.11L531.11,34.11" style="vector-effect: non-scaling-stroke; fill: none; stroke: rgb(0, 0, 0); stroke-opacity: 0.5; stroke-width: 1px; opacity: 1;"/></g><g class="points"/><g class="text"/></g><g class="trace scatter trace6cfaf6" style="stroke-miterlimit: 2;"><g class="fills"><g><path class="js-fill" d="M531.74,49.24L531.74,49.24L531.74,32.82L111.47,32.82L111.47,287.89L531.74,287.89L531.74,32.82L531.74,32.82" style="fill: rgb(155, 127, 233); fill-opacity: 0.5; stroke-width: 0;"/></g></g><g class="errorbars"/><g class="lines"><path class="js-line" d="M531.74,32.82L111.47,32.82L111.47,287.89L531.74,287.89L531.74,32.82L531.74,32.82" style="vector-effect: non-scaling-stroke; fill: none; stroke: rgb(0, 0, 0); stroke-opacity: 0.5; stroke-width: 1px; opacity: 1;"/></g><g class="points"/><g class="text"/></g><g class="trace scatter trace95148e" style="stroke-miterlimit: 2;"><g class="fills"><g><path class="js-fill" d="M532.43,49.24L532.43,49.24L532.43,31.32L101.46,31.32L101.46,292.77L532.43,292.77L532.43,31.32L532.43,31.32" style="fill: rgb(97, 141, 246); fill-opacity: 0.5; stroke-width: 0;"/></g></g><g class="errorbars"/><g class="lines"><path class="js-line" d="M532.43,31.32L101.46,31.32L101.46,292.77L532.43,292.77L532.43,31.32L532.43,31.32" style="vector-effect: non-scaling-stroke; fill: none; stroke: rgb(0, 0, 0); stroke-opacity: 0.5; stroke-width: 1px; opacity: 1;"/></g><g class="points"/><g class="text"/></g><g class="trace scatter traceeeafb3" style="stroke-miterlimit: 2;"><g class="fills"><g><path class="js-fill" d="M533.18,49.24L533.18,49.24L533.18,29.63L91.24,29.63L91.24,296.88L533.18,296.88L533.18,29.63L533.18,29.63" style="fill: rgb(240, 96, 115); fill-opacity: 0.5; stroke-width: 0;"/></g></g><g class="errorbars"/><g class="lines"><path class="js-line" d="M533.18,29.63L91.24,29.63L91.24,296.88L533.18,296.88L533.18,29.63L533.18,29.63" style="vector-effect: non-scaling-stroke; fill: none; stroke: rgb(0, 0, 0); stroke-opacity: 0.5; stroke-width: 1px; opacity: 1;"/></g><g class="points"/><g class="text"/></g><g class="trace scatter trace928a59" style="stroke-miterlimit: 2;"><g class="fills"><g><path class="js-fill" d="M534,49.24L534,49.24L534,27.76L80.84,27.76L80.84,300.53L534,300.53L534,27.76L534,27.76" style="fill: rgb(221, 101, 182); fill-opacity: 0.5; stroke-width: 0;"/></g></g><g class="errorbars"/><g class="lines"><path class="js-line" d="M534,27.76L80.84,27.76L80.84,300.53L534,300.53L534,27.76L534,27.76" style="vector-effect: non-scaling-stroke; fill: none; stroke: rgb(0, 0, 0); stroke-opacity: 0.5; stroke-width: 1px; opacity: 1;"/></g><g class="points"/><g class="text"/></g><g class="trace scatter trace914006" style="stroke-miterlimit: 2;"><g class="fills"><g><path class="js-fill" d="M534.91,49.24L534.91,49.24L534.91,25.72L70.3,25.72L70.3,303.79L534.91,303.79L534.91,25.72L534.91,25.72" style="fill: rgb(108, 159, 51); fill-opacity: 0.5; stroke-width: 0;"/></g></g><g class="errorbars"/><g class="lines"><path class="js-line" d="M534.91,25.72L70.3,25.72L70.3,303.79L534.91,303.79L534.91,25.72L534.91,25.72" style="vector-effect: non-scaling-stroke; fill: none; stroke: rgb(0, 0, 0); stroke-opacity: 0.5; stroke-width: 1px; opacity: 1;"/></g><g class="points"/><g class="text"/></g><g class="trace scatter tracea3f228" style="stroke-miterlimit: 2;"><g class="fills"><g><path class="js-fill" d="M535.89,49.24L535.89,49.24L535.89,23.53L59.61,23.53L59.61,306.72L535.89,306.72L535.89,23.53L535.89,23.53" style="fill: rgb(0, 154, 250); fill-opacity: 0.5; stroke-width: 0;"/></g></g><g class="errorbars"/><g class="lines"><path class="js-line" d="M535.89,23.53L59.61,23.53L59.61,306.72L535.89,306.72L535.89,23.53L535.89,23.53" style="vector-effect: non-scaling-stroke; fill: none; stroke: rgb(0, 0, 0); stroke-opacity: 0.5; stroke-width: 1px; opacity: 1;"/></g><g class="points"/><g class="text"/></g><g class="trace scatter tracebd0bbc" style="stroke-miterlimit: 2;"><g class="fills"><g><path class="js-fill" d="M536.97,49.24L536.97,49.24L536.97,21.19L48.81,21.19L48.81,309.38L536.97,309.38L536.97,21.19L536.97,21.19" style="fill: rgb(227, 111, 71); fill-opacity: 0.5; stroke-width: 0;"/></g></g><g class="errorbars"/><g class="lines"><path class="js-line" d="M536.97,21.19L48.81,21.19L48.81,309.38L536.97,309.38L536.97,21.19L536.97,21.19" style="vector-effect: non-scaling-stroke; fill: none; stroke: rgb(0, 0, 0); stroke-opacity: 0.5; stroke-width: 1px; opacity: 1;"/></g><g class="points"/><g class="text"/></g><g class="trace scatter trace00341e" style="stroke-miterlimit: 2;"><g class="fills"><g><path class="js-fill" d="M538.15,49.24L538.15,49.24L538.15,18.7L37.89,18.7L37.89,311.82L538.15,311.82L538.15,18.7L538.15,18.7" style="fill: rgb(62, 164, 78); fill-opacity: 0.5; stroke-width: 0;"/></g></g><g class="errorbars"/><g class="lines"><path class="js-line" d="M538.15,18.7L37.89,18.7L37.89,311.82L538.15,311.82L538.15,18.7L538.15,18.7" style="vector-effect: non-scaling-stroke; fill: none; stroke: rgb(0, 0, 0); stroke-opacity: 0.5; stroke-width: 1px; opacity: 1;"/></g><g class="points"/><g class="text"/></g><g class="trace scatter trace2c124e" style="stroke-miterlimit: 2;"><g class="fills"><g><path class="js-fill" d="M539.43,49.24L539.43,49.24L539.43,16.08L26.87,16.08L26.87,314.09L539.43,314.09L539.43,16.08L539.43,16.08" style="fill: rgb(195, 113, 210); fill-opacity: 0.5; stroke-width: 0;"/></g></g><g class="errorbars"/><g class="lines"><path class="js-line" d="M539.43,16.08L26.87,16.08L26.87,314.09L539.43,314.09L539.43,16.08L539.43,16.08" style="vector-effect: non-scaling-stroke; fill: none; stroke: rgb(0, 0, 0); stroke-opacity: 0.5; stroke-width: 1px; opacity: 1;"/></g><g class="points"/><g class="text"/></g><g class="trace scatter trace7115ad" style="stroke-miterlimit: 2;"><g class="fills"><g><path class="js-fill" d="M540.82,49.24L540.82,49.24L540.82,13.32L15.75,13.32L15.75,316.2L540.82,316.2L540.82,13.32L540.82,13.32" style="fill: rgb(172, 142, 24); fill-opacity: 0.5; stroke-width: 0;"/></g></g><g class="errorbars"/><g class="lines"><path class="js-line" d="M540.82,13.32L15.75,13.32L15.75,316.2L540.82,316.2L540.82,13.32L540.82,13.32" style="vector-effect: non-scaling-stroke; fill: none; stroke: rgb(0, 0, 0); stroke-opacity: 0.5; stroke-width: 1px; opacity: 1;"/></g><g class="points"/><g class="text"/></g></g></g><g class="overplot"/><path class="xlines-above crisp" d="M38.4925634295713,366.95669291338584H596.0629921259842" style="fill: none; stroke-width: 1px; stroke: rgb(0, 0, 0); stroke-opacity: 1;"/><path class="ylines-above crisp" d="M38.9925634295713,41.04330708661415V366.45669291338584" style="fill: none; stroke-width: 1px; stroke: rgb(0, 0, 0); stroke-opacity: 1;"/><g class="overlines-above"/><g class="xaxislayer-above"><path class="xtick ticks crisp" d="M0,366.45669291338584v-5" transform="translate(125.8425634295713,0)" style="stroke: rgb(0, 0, 0); stroke-opacity: 1; stroke-width: 1px;"/><path class="xtick ticks crisp" d="M0,366.45669291338584v-5" transform="translate(226.6325634295713,0)" style="stroke: rgb(0, 0, 0); stroke-opacity: 1; stroke-width: 1px;"/><path class="xtick ticks crisp" d="M0,366.45669291338584v-5" transform="translate(327.4325634295713,0)" style="stroke: rgb(0, 0, 0); stroke-opacity: 1; stroke-width: 1px;"/><path class="xtick ticks crisp" d="M0,366.45669291338584v-5" transform="translate(428.2225634295713,0)" style="stroke: rgb(0, 0, 0); stroke-opacity: 1; stroke-width: 1px;"/><path class="xtick ticks crisp" d="M0,366.45669291338584v-5" transform="translate(529.0225634295713,0)" style="stroke: rgb(0, 0, 0); stroke-opacity: 1; stroke-width: 1px;"/><g class="xtick"><text text-anchor="middle" x="0" y="380.6566929133858" transform="translate(125.8425634295713,0)" style="font-family: sans-serif; font-size: 11px; fill: rgb(0, 0, 0); fill-opacity: 1; white-space: pre; opacity: 1;">−0.3</text></g><g class="xtick"><text text-anchor="middle" x="0" y="380.6566929133858" style="font-family: sans-serif; font-size: 11px; fill: rgb(0, 0, 0); fill-opacity: 1; white-space: pre; opacity: 1;" transform="translate(226.6325634295713,0)">0.0</text></g><g class="xtick"><text text-anchor="middle" x="0" y="380.6566929133858" style="font-family: sans-serif; font-size: 11px; fill: rgb(0, 0, 0); fill-opacity: 1; white-space: pre; opacity: 1;" transform="translate(327.4325634295713,0)">0.3</text></g><g class="xtick"><text text-anchor="middle" x="0" y="380.6566929133858" style="font-family: sans-serif; font-size: 11px; fill: rgb(0, 0, 0); fill-opacity: 1; white-space: pre; opacity: 1;" transform="translate(428.2225634295713,0)">0.6</text></g><g class="xtick"><text text-anchor="middle" x="0" y="380.6566929133858" style="font-family: sans-serif; font-size: 11px; fill: rgb(0, 0, 0); fill-opacity: 1; white-space: pre; opacity: 1;" transform="translate(529.0225634295713,0)">0.9</text></g></g><g class="yaxislayer-above"><path class="ytick ticks crisp" d="M39.4925634295713,0h5" transform="translate(0,330.43330708661415)" style="stroke: rgb(0, 0, 0); stroke-opacity: 1; stroke-width: 1px;"/><path class="ytick ticks crisp" d="M39.4925634295713,0h5" transform="translate(0,250.38330708661414)" style="stroke: rgb(0, 0, 0); stroke-opacity: 1; stroke-width: 1px;"/><path class="ytick ticks crisp" d="M39.4925634295713,0h5" transform="translate(0,170.33330708661413)" style="stroke: rgb(0, 0, 0); stroke-opacity: 1; stroke-width: 1px;"/><path class="ytick ticks crisp" d="M39.4925634295713,0h5" transform="translate(0,90.28330708661414)" style="stroke: rgb(0, 0, 0); stroke-opacity: 1; stroke-width: 1px;"/><g class="ytick"><text text-anchor="end" x="36.292563429571295" y="3.8499999999999996" transform="translate(0,330.43330708661415)" style="font-family: sans-serif; font-size: 11px; fill: rgb(0, 0, 0); fill-opacity: 1; white-space: pre; opacity: 1;">−0.6</text></g><g class="ytick"><text text-anchor="end" x="36.292563429571295" y="3.8499999999999996" style="font-family: sans-serif; font-size: 11px; fill: rgb(0, 0, 0); fill-opacity: 1; white-space: pre; opacity: 1;" transform="translate(0,250.38330708661414)">−0.4</text></g><g class="ytick"><text text-anchor="end" x="36.292563429571295" y="3.8499999999999996" style="font-family: sans-serif; font-size: 11px; fill: rgb(0, 0, 0); fill-opacity: 1; white-space: pre; opacity: 1;" transform="translate(0,170.33330708661413)">−0.2</text></g><g class="ytick"><text text-anchor="end" x="36.292563429571295" y="3.8499999999999996" style="font-family: sans-serif; font-size: 11px; fill: rgb(0, 0, 0); fill-opacity: 1; white-space: pre; opacity: 1;" transform="translate(0,90.28330708661414)">0.0</text></g></g><g class="overaxes-above"/></g></g><g class="polarlayer"/><g class="ternarylayer"/><g class="geolayer"/><g class="funnelarealayer"/><g class="pielayer"/><g class="iciclelayer"/><g class="treemaplayer"/><g class="sunburstlayer"/><g class="glimages"/><defs id="topdefs-76c5e6"><g class="clips"/></defs><g class="layer-above"><g class="imagelayer"/><g class="shapelayer"/></g><g class="infolayer"><g class="g-gtitle"/><g class="g-xtitle"/><g class="g-ytitle"/><g class="annotation" data-index="0" style="opacity: 1;"><g class="annotation-text-g" transform="rotate(0,317.7777777777777,33.500000000000014)"><g class="cursor-pointer" transform="translate(140,20)"><rect class="bg" x="0.5" y="0.5" width="355" height="26" style="stroke-width: 1px; stroke: rgb(0, 0, 0); stroke-opacity: 0; fill: rgb(0, 0, 0); fill-opacity: 0;"/><text class="annotation-text" text-anchor="middle" x="178.2109375" y="20.3330078125" style="font-family: sans-serif; font-size: 20px; fill: rgb(0, 0, 0); fill-opacity: 1; white-space: pre;">Single Pendulum Concrete Reachability</text></g></g></g></g></svg>