<svg class="main-svg" xmlns="http://www.w3.org/2000/svg" xmlns:xlink="http://www.w3.org/1999/xlink" width="600" height="400" style=""><rect x="0" y="0" width="600" height="400" style="fill: rgb(255, 255, 255); fill-opacity: 1;"/><defs id="defs-7a10a7"><g class="clips"><clipPath id="clip7a10a7xyplot" class="plotclip"><rect width="556.5704286964129" height="325.4133858267717"/></clipPath><clipPath class="axesclip" id="clip7a10a7x"><rect x="39.4925634295713" y="0" width="556.5704286964129" height="400"/></clipPath><clipPath class="axesclip" id="clip7a10a7y"><rect x="0" y="41.04330708661415" width="600" height="325.4133858267717"/></clipPath><clipPath class="axesclip" id="clip7a10a7xy"><rect x="39.4925634295713" y="41.04330708661415" width="556.5704286964129" height="325.4133858267717"/></clipPath></g><g class="gradients"/><g class="patterns"/></defs><g class="bglayer"/><g class="layer-below"><g class="imagelayer"/><g class="shapelayer"/></g><g class="cartesianlayer"><g class="subplot xy"><g class="layer-subplot"><g class="shapelayer"/><g class="imagelayer"/></g><g class="gridlayer"><g class="x"><path class="xgrid crisp" transform="translate(156.8525634295713,0)" d="M0,41.04330708661415v325.4133858267717" style="stroke: rgb(0, 0, 0); stroke-opacity: 0.1; stroke-width: 0.5px;"/><path class="xgrid crisp" transform="translate(295.5325634295713,0)" d="M0,41.04330708661415v325.4133858267717" style="stroke: rgb(0, 0, 0); stroke-opacity: 0.1; stroke-width: 0.5px;"/><path class="xgrid crisp" transform="translate(434.21256342957133,0)" d="M0,41.04330708661415v325.4133858267717" style="stroke: rgb(0, 0, 0); stroke-opacity: 0.1; stroke-width: 0.5px;"/><path class="xgrid crisp" transform="translate(572.8925634295713,0)" d="M0,41.04330708661415v325.4133858267717" style="stroke: rgb(0, 0, 0); stroke-opacity: 0.1; stroke-width: 0.5px;"/></g><g class="y"><path class="ygrid crisp" transform="translate(0,330.19330708661414)" d="M39.4925634295713,0h556.5704286964129" style="stroke: rgb(0, 0, 0); stroke-opacity: 0.1; stroke-width: 0.5px;"/><path class="ygrid crisp" transform="translate(0,260.20330708661413)" d="M39.4925634295713,0h556.5704286964129" style="stroke: rgb(0, 0, 0); stroke-opacity: 0.1; stroke-width: 0.5px;"/><path class="ygrid crisp" transform="translate(0,190.22330708661417)" d="M39.4925634295713,0h556.5704286964129" style="stroke: rgb(0, 0, 0); stroke-opacity: 0.1; stroke-width: 0.5px;"/><path class="ygrid crisp" transform="translate(0,120.23330708661415)" d="M39.4925634295713,0h556.5704286964129" style="stroke: rgb(0, 0, 0); stroke-opacity: 0.1; stroke-width: 0.5px;"/><path class="ygrid crisp" transform="translate(0,50.25330708661415)" d="M39.4925634295713,0h556.5704286964129" style="stroke: rgb(0, 0, 0); stroke-opacity: 0.1; stroke-width: 0.5px;"/></g></g><g class="zerolinelayer"/><path class="xlines-below"/><path class="ylines-below"/><g class="overlines-below"/><g class="xaxislayer-below"/><g class="yaxislayer-below"/><g class="overaxes-below"/><g class="plot" transform="translate(39.4925634295713,41.04330708661415)" clip-path="url(#clip7a10a7xyplot)"><g class="scatterlayer mlayer"><g class="trace scatter traceb3e775" style="stroke-miterlimit: 2;"><g class="fills"><g><path class="js-fill" d="M533.4,79.19L533.4,79.19L533.4,9.21L394.72,9.21L394.72,79.19L533.4,79.19L533.4,9.21L533.4,9.21" style="fill: rgb(0, 154, 250); fill-opacity: 0.5; stroke-width: 0;"/></g></g><g class="errorbars"/><g class="lines"><path class="js-line" d="M533.4,9.21L394.72,9.21L394.72,79.19L533.4,79.19L533.4,9.21L533.4,9.21" style="vector-effect: non-scaling-stroke; fill: none; stroke: rgb(0, 0, 0); stroke-opacity: 0.5; stroke-width: 1px; opacity: 1;"/></g><g class="points"/><g class="text"/></g><g class="trace scatter trace574429" style="stroke-miterlimit: 2;"><g class="fills"><g><path class="js-fill" d="M540.34,79.19L540.34,79.19L540.34,74.33L394.72,74.33L394.72,137.49L540.34,137.49L540.34,74.33L540.34,74.33" style="fill: rgb(227, 111, 71); fill-opacity: 0.5; stroke-width: 0;"/></g></g><g class="errorbars"/><g class="lines"><path class="js-line" d="M540.34,74.33L394.72,74.33L394.72,137.49L540.34,137.49L540.34,74.33L540.34,74.33" style="vector-effect: non-scaling-stroke; fill: none; stroke: rgb(0, 0, 0); stroke-opacity: 0.5; stroke-width: 1px; opacity: 1;"/></g><g class="points"/><g class="text"/></g><g class="trace scatter trace0937ea" style="stroke-miterlimit: 2;"><g class="fills"><g><path class="js-fill" d="M540.82,79.19L540.82,79.19L540.82,122.3L388.95,122.3L388.95,181.27L540.82,181.27L540.82,122.3L540.82,122.3" style="fill: rgb(62, 164, 78); fill-opacity: 0.5; stroke-width: 0;"/></g></g><g class="errorbars"/><g class="lines"><path class="js-line" d="M540.82,122.3L388.95,122.3L388.95,181.27L540.82,181.27L540.82,122.3L540.82,122.3" style="vector-effect: non-scaling-stroke; fill: none; stroke: rgb(0, 0, 0); stroke-opacity: 0.5; stroke-width: 1px; opacity: 1;"/></g><g class="points"/><g class="text"/></g><g class="trace scatter trace144ebd" style="stroke-miterlimit: 2;"><g class="fills"><g><path class="js-fill" d="M536.54,79.19L536.54,79.19L536.54,157.33L378.83,157.33L378.83,214.71L536.54,214.71L536.54,157.33L536.54,157.33" style="fill: rgb(195, 113, 210); fill-opacity: 0.5; stroke-width: 0;"/></g></g><g class="errorbars"/><g class="lines"><path class="js-line" d="M536.54,157.33L378.83,157.33L378.83,214.71L536.54,214.71L536.54,157.33L536.54,157.33" style="vector-effect: non-scaling-stroke; fill: none; stroke: rgb(0, 0, 0); stroke-opacity: 0.5; stroke-width: 1px; opacity: 1;"/></g><g class="points"/><g class="text"/></g><g class="trace scatter trace6975ae" style="stroke-miterlimit: 2;"><g class="fills"><g><path class="js-fill" d="M528.8,79.19L528.8,79.19L528.8,183.08L365.4,183.08L365.4,241.47L528.8,241.47L528.8,183.08L528.8,183.08" style="fill: rgb(172, 142, 24); fill-opacity: 0.5; stroke-width: 0;"/></g></g><g class="errorbars"/><g class="lines"><path class="js-line" d="M528.8,183.08L365.4,183.08L365.4,241.47L528.8,241.47L528.8,183.08L528.8,183.08" style="vector-effect: non-scaling-stroke; fill: none; stroke: rgb(0, 0, 0); stroke-opacity: 0.5; stroke-width: 1px; opacity: 1;"/></g><g class="points"/><g class="text"/></g><g class="trace scatter trace6b6bed" style="stroke-miterlimit: 2;"><g class="fills"><g><path class="js-fill" d="M518.51,79.19L518.51,79.19L518.51,202.97L349.33,202.97L349.33,262.55L518.51,262.55L518.51,202.97L518.51,202.97" style="fill: rgb(0, 170, 174); fill-opacity: 0.5; stroke-width: 0;"/></g></g><g class="errorbars"/><g class="lines"><path class="js-line" d="M518.51,202.97L349.33,202.97L349.33,262.55L518.51,262.55L518.51,202.97L518.51,202.97" style="vector-effect: non-scaling-stroke; fill: none; stroke: rgb(0, 0, 0); stroke-opacity: 0.5; stroke-width: 1px; opacity: 1;"/></g><g class="points"/><g class="text"/></g><g class="trace scatter trace78934a" style="stroke-miterlimit: 2;"><g class="fills"><g><path class="js-fill" d="M506.25,79.19L506.25,79.19L506.25,217.99L331.16,217.99L331.16,279.08L506.25,279.08L506.25,217.99L506.25,217.99" style="fill: rgb(237, 94, 147); fill-opacity: 0.5; stroke-width: 0;"/></g></g><g class="errorbars"/><g class="lines"><path class="js-line" d="M506.25,217.99L331.16,217.99L331.16,279.08L506.25,279.08L506.25,217.99L506.25,217.99" style="vector-effect: non-scaling-stroke; fill: none; stroke: rgb(0, 0, 0); stroke-opacity: 0.5; stroke-width: 1px; opacity: 1;"/></g><g class="points"/><g class="text"/></g><g class="trace scatter tracef0c615" style="stroke-miterlimit: 2;"><g class="fills"><g><path class="js-fill" d="M492.5,79.19L492.5,79.19L492.5,229.11L311.35,229.11L311.35,291.77L492.5,291.77L492.5,229.11L492.5,229.11" style="fill: rgb(198, 130, 37); fill-opacity: 0.5; stroke-width: 0;"/></g></g><g class="errorbars"/><g class="lines"><path class="js-line" d="M492.5,229.11L311.35,229.11L311.35,291.77L492.5,291.77L492.5,229.11L492.5,229.11" style="vector-effect: non-scaling-stroke; fill: none; stroke: rgb(0, 0, 0); stroke-opacity: 0.5; stroke-width: 1px; opacity: 1;"/></g><g class="points"/><g class="text"/></g><g class="trace scatter tracec16b05" style="stroke-miterlimit: 2;"><g class="fills"><g><path class="js-fill" d="M477.65,79.19L477.65,79.19L477.65,237L290.29,237L290.29,301.18L477.65,301.18L477.65,237L477.65,237" style="fill: rgb(0, 169, 141); fill-opacity: 0.5; stroke-width: 0;"/></g></g><g class="errorbars"/><g class="lines"><path class="js-line" d="M477.65,237L290.29,237L290.29,301.18L477.65,301.18L477.65,237L477.65,237" style="vector-effect: non-scaling-stroke; fill: none; stroke: rgb(0, 0, 0); stroke-opacity: 0.5; stroke-width: 1px; opacity: 1;"/></g><g class="points"/><g class="text"/></g><g class="trace scatter trace271b28" style="stroke-miterlimit: 2;"><g class="fills"><g><path class="js-fill" d="M462.01,79.19L462.01,79.19L462.01,242.17L268.3,242.17L268.3,307.82L462.01,307.82L462.01,242.17L462.01,242.17" style="fill: rgb(142, 151, 30); fill-opacity: 0.5; stroke-width: 0;"/></g></g><g class="errorbars"/><g class="lines"><path class="js-line" d="M462.01,242.17L268.3,242.17L268.3,307.82L462.01,307.82L462.01,242.17L462.01,242.17" style="vector-effect: non-scaling-stroke; fill: none; stroke: rgb(0, 0, 0); stroke-opacity: 0.5; stroke-width: 1px; opacity: 1;"/></g><g class="points"/><g class="text"/></g><g class="trace scatter trace7e7621" style="stroke-miterlimit: 2;"><g class="fills"><g><path class="js-fill" d="M445.86,79.19L445.86,79.19L445.86,245.05L245.65,245.05L245.65,312.11L445.86,312.11L445.86,245.05L445.86,245.05" style="fill: rgb(0, 169, 204); fill-opacity: 0.5; stroke-width: 0;"/></g></g><g class="errorbars"/><g class="lines"><path class="js-line" d="M445.86,245.05L245.65,245.05L245.65,312.11L445.86,312.11L445.86,245.05L445.86,245.05" style="vector-effect: non-scaling-stroke; fill: none; stroke: rgb(0, 0, 0); stroke-opacity: 0.5; stroke-width: 1px; opacity: 1;"/></g><g class="points"/><g class="text"/></g><g class="trace scatter tracee64313" style="stroke-miterlimit: 2;"><g class="fills"><g><path class="js-fill" d="M429.43,79.19L429.43,79.19L429.43,246.22L222.57,246.22L222.57,314.82L429.43,314.82L429.43,246.22L429.43,246.22" style="fill: rgb(155, 127, 233); fill-opacity: 0.5; stroke-width: 0;"/></g></g><g class="errorbars"/><g class="lines"><path class="js-line" d="M429.43,246.22L222.57,246.22L222.57,314.82L429.43,314.82L429.43,246.22L429.43,246.22" style="vector-effect: non-scaling-stroke; fill: none; stroke: rgb(0, 0, 0); stroke-opacity: 0.5; stroke-width: 1px; opacity: 1;"/></g><g class="points"/><g class="text"/></g><g class="trace scatter tracec0dfdf" style="stroke-miterlimit: 2;"><g class="fills"><g><path class="js-fill" d="M412.88,79.19L412.88,79.19L412.88,246.12L199.23,246.12L199.23,316.12L412.88,316.12L412.88,246.12L412.88,246.12" style="fill: rgb(97, 141, 246); fill-opacity: 0.5; stroke-width: 0;"/></g></g><g class="errorbars"/><g class="lines"><path class="js-line" d="M412.88,246.12L199.23,246.12L199.23,316.12L412.88,316.12L412.88,246.12L412.88,246.12" style="vector-effect: non-scaling-stroke; fill: none; stroke: rgb(0, 0, 0); stroke-opacity: 0.5; stroke-width: 1px; opacity: 1;"/></g><g class="points"/><g class="text"/></g><g class="trace scatter trace8b04f0" style="stroke-miterlimit: 2;"><g class="fills"><g><path class="js-fill" d="M396.34,79.19L396.34,79.19L396.34,244.95L175.75,244.95L175.75,316.2L396.34,316.2L396.34,244.95L396.34,244.95" style="fill: rgb(240, 96, 115); fill-opacity: 0.5; stroke-width: 0;"/></g></g><g class="errorbars"/><g class="lines"><path class="js-line" d="M396.34,244.95L175.75,244.95L175.75,316.2L396.34,316.2L396.34,244.95L396.34,244.95" style="vector-effect: non-scaling-stroke; fill: none; stroke: rgb(0, 0, 0); stroke-opacity: 0.5; stroke-width: 1px; opacity: 1;"/></g><g class="points"/><g class="text"/></g><g class="trace scatter tracef2beae" style="stroke-miterlimit: 2;"><g class="fills"><g><path class="js-fill" d="M379.92,79.19L379.92,79.19L379.92,242.81L152.27,242.81L152.27,315.26L379.92,315.26L379.92,242.81L379.92,242.81" style="fill: rgb(221, 101, 182); fill-opacity: 0.5; stroke-width: 0;"/></g></g><g class="errorbars"/><g class="lines"><path class="js-line" d="M379.92,242.81L152.27,242.81L152.27,315.26L379.92,315.26L379.92,242.81L379.92,242.81" style="vector-effect: non-scaling-stroke; fill: none; stroke: rgb(0, 0, 0); stroke-opacity: 0.5; stroke-width: 1px; opacity: 1;"/></g><g class="points"/><g class="text"/></g><g class="trace scatter trace99b0ca" style="stroke-miterlimit: 2;"><g class="fills"><g><path class="js-fill" d="M363.71,79.19L363.71,79.19L363.71,239.86L128.88,239.86L128.88,313.48L363.71,313.48L363.71,239.86L363.71,239.86" style="fill: rgb(108, 159, 51); fill-opacity: 0.5; stroke-width: 0;"/></g></g><g class="errorbars"/><g class="lines"><path class="js-line" d="M363.71,239.86L128.88,239.86L128.88,313.48L363.71,313.48L363.71,239.86L363.71,239.86" style="vector-effect: non-scaling-stroke; fill: none; stroke: rgb(0, 0, 0); stroke-opacity: 0.5; stroke-width: 1px; opacity: 1;"/></g><g class="points"/><g class="text"/></g><g class="trace scatter trace8e4586" style="stroke-miterlimit: 2;"><g class="fills"><g><path class="js-fill" d="M347.79,79.19L347.79,79.19L347.79,236.26L105.67,236.26L105.67,311.01L347.79,311.01L347.79,236.26L347.79,236.26" style="fill: rgb(0, 154, 250); fill-opacity: 0.5; stroke-width: 0;"/></g></g><g class="errorbars"/><g class="lines"><path class="js-line" d="M347.79,236.26L105.67,236.26L105.67,311.01L347.79,311.01L347.79,236.26L347.79,236.26" style="vector-effect: non-scaling-stroke; fill: none; stroke: rgb(0, 0, 0); stroke-opacity: 0.5; stroke-width: 1px; opacity: 1;"/></g><g class="points"/><g class="text"/></g><g class="trace scatter trace6e1ece" style="stroke-miterlimit: 2;"><g class="fills"><g><path class="js-fill" d="M332.22,79.19L332.22,79.19L332.22,231.89L82.7,231.89L82.7,307.99L332.22,307.99L332.22,231.89L332.22,231.89" style="fill: rgb(227, 111, 71); fill-opacity: 0.5; stroke-width: 0;"/></g></g><g class="errorbars"/><g class="lines"><path class="js-line" d="M332.22,231.89L82.7,231.89L82.7,307.99L332.22,307.99L332.22,231.89L332.22,231.89" style="vector-effect: non-scaling-stroke; fill: none; stroke: rgb(0, 0, 0); stroke-opacity: 0.5; stroke-width: 1px; opacity: 1;"/></g><g class="points"/><g class="text"/></g><g class="trace scatter trace465077" style="stroke-miterlimit: 2;"><g class="fills"><g><path class="js-fill" d="M317.1,79.19L317.1,79.19L317.1,226.95L60.03,226.95L60.03,304.53L317.1,304.53L317.1,226.95L317.1,226.95" style="fill: rgb(62, 164, 78); fill-opacity: 0.5; stroke-width: 0;"/></g></g><g class="errorbars"/><g class="lines"><path class="js-line" d="M317.1,226.95L60.03,226.95L60.03,304.53L317.1,304.53L317.1,226.95L317.1,226.95" style="vector-effect: non-scaling-stroke; fill: none; stroke: rgb(0, 0, 0); stroke-opacity: 0.5; stroke-width: 1px; opacity: 1;"/></g><g class="points"/><g class="text"/></g><g class="trace scatter trace963185" style="stroke-miterlimit: 2;"><g class="fills"><g><path class="js-fill" d="M302.46,79.19L302.46,79.19L302.46,221.67L37.7,221.67L37.7,300.75L302.46,300.75L302.46,221.67L302.46,221.67" style="fill: rgb(195, 113, 210); fill-opacity: 0.5; stroke-width: 0;"/></g></g><g class="errorbars"/><g class="lines"><path class="js-line" d="M302.46,221.67L37.7,221.67L37.7,300.75L302.46,300.75L302.46,221.67L302.46,221.67" style="vector-effect: non-scaling-stroke; fill: none; stroke: rgb(0, 0, 0); stroke-opacity: 0.5; stroke-width: 1px; opacity: 1;"/></g><g class="points"/><g class="text"/></g><g class="trace scatter tracebc0693" style="stroke-miterlimit: 2;"><g class="fills"><g><path class="js-fill" d="M288.34,79.19L288.34,79.19L288.34,216.15L15.75,216.15L15.75,296.73L288.34,296.73L288.34,216.15L288.34,216.15" style="fill: rgb(172, 142, 24); fill-opacity: 0.5; stroke-width: 0;"/></g></g><g class="errorbars"/><g class="lines"><path class="js-line" d="M288.34,216.15L15.75,216.15L15.75,296.73L288.34,296.73L288.34,216.15L288.34,216.15" style="vector-effect: non-scaling-stroke; fill: none; stroke: rgb(0, 0, 0); stroke-opacity: 0.5; stroke-width: 1px; opacity: 1;"/></g><g class="points"/><g class="text"/></g></g></g><g class="overplot"/><path class="xlines-above crisp" d="M38.4925634295713,366.95669291338584H596.0629921259842" style="fill: none; stroke-width: 1px; stroke: rgb(0, 0, 0); stroke-opacity: 1;"/><path class="ylines-above crisp" d="M38.9925634295713,41.04330708661415V366.45669291338584" style="fill: none; stroke-width: 1px; stroke: rgb(0, 0, 0); stroke-opacity: 1;"/><g class="overlines-above"/><g class="xaxislayer-above"><path class="xtick ticks crisp" d="M0,366.45669291338584v-5" transform="translate(156.8525634295713,0)" style="stroke: rgb(0, 0, 0); stroke-opacity: 1; stroke-width: 1px;"/><path class="xtick ticks crisp" d="M0,366.45669291338584v-5" transform="translate(295.5325634295713,0)" style="stroke: rgb(0, 0, 0); stroke-opacity: 1; stroke-width: 1px;"/><path class="xtick ticks crisp" d="M0,366.45669291338584v-5" transform="translate(434.21256342957133,0)" style="stroke: rgb(0, 0, 0); stroke-opacity: 1; stroke-width: 1px;"/><path class="xtick ticks crisp" d="M0,366.45669291338584v-5" transform="translate(572.8925634295713,0)" style="stroke: rgb(0, 0, 0); stroke-opacity: 1; stroke-width: 1px;"/><g class="xtick"><text text-anchor="middle" x="0" y="380.6566929133858" transform="translate(156.8525634295713,0)" style="font-family: sans-serif; font-size: 11px; fill: rgb(0, 0, 0); fill-opacity: 1; white-space: pre; opacity: 1;">0.6</text></g><g class="xtick"><text text-anchor="middle" x="0" y="380.6566929133858" style="font-family: sans-serif; font-size: 11px; fill: rgb(0, 0, 0); fill-opacity: 1; white-space: pre; opacity: 1;" transform="translate(295.5325634295713,0)">0.8</text></g><g class="xtick"><text text-anchor="middle" x="0" y="380.6566929133858" style="font-family: sans-serif; font-size: 11px; fill: rgb(0, 0, 0); fill-opacity: 1; white-space: pre; opacity: 1;" transform="translate(434.21256342957133,0)">1.0</text></g><g class="xtick"><text text-anchor="middle" x="0" y="380.6566929133858" style="font-family: sans-serif; font-size: 11px; fill: rgb(0, 0, 0); fill-opacity: 1; white-space: pre; opacity: 1;" transform="translate(572.8925634295713,0)">1.2</text></g></g><g class="yaxislayer-above"><path class="ytick ticks crisp" d="M39.4925634295713,0h5" transform="translate(0,330.19330708661414)" style="stroke: rgb(0, 0, 0); stroke-opacity: 1; stroke-width: 1px;"/><path class="ytick ticks crisp" d="M39.4925634295713,0h5" transform="translate(0,260.20330708661413)" style="stroke: rgb(0, 0, 0); stroke-opacity: 1; stroke-width: 1px;"/><path class="ytick ticks crisp" d="M39.4925634295713,0h5" transform="translate(0,190.22330708661417)" style="stroke: rgb(0, 0, 0); stroke-opacity: 1; stroke-width: 1px;"/><path class="ytick ticks crisp" d="M39.4925634295713,0h5" transform="translate(0,120.23330708661415)" style="stroke: rgb(0, 0, 0); stroke-opacity: 1; stroke-width: 1px;"/><path class="ytick ticks crisp" d="M39.4925634295713,0h5" transform="translate(0,50.25330708661415)" style="stroke: rgb(0, 0, 0); stroke-opacity: 1; stroke-width: 1px;"/><g class="ytick"><text text-anchor="end" x="36.292563429571295" y="3.8499999999999996" transform="translate(0,330.19330708661414)" style="font-family: sans-serif; font-size: 11px; fill: rgb(0, 0, 0); fill-opacity: 1; white-space: pre; opacity: 1;">−0.6</text></g><g class="ytick"><text text-anchor="end" x="36.292563429571295" y="3.8499999999999996" style="font-family: sans-serif; font-size: 11px; fill: rgb(0, 0, 0); fill-opacity: 1; white-space: pre; opacity: 1;" transform="translate(0,260.20330708661413)">−0.4</text></g><g class="ytick"><text text-anchor="end" x="36.292563429571295" y="3.8499999999999996" style="font-family: sans-serif; font-size: 11px; fill: rgb(0, 0, 0); fill-opacity: 1; white-space: pre; opacity: 1;" transform="translate(0,190.22330708661417)">−0.2</text></g><g class="ytick"><text text-anchor="end" x="36.292563429571295" y="3.8499999999999996" style="font-family: sans-serif; font-size: 11px; fill: rgb(0, 0, 0); fill-opacity: 1; white-space: pre; opacity: 1;" transform="translate(0,120.23330708661415)">0.0</text></g><g class="ytick"><text text-anchor="end" x="36.292563429571295" y="3.8499999999999996" style="font-family: sans-serif; font-size: 11px; fill: rgb(0, 0, 0); fill-opacity: 1; white-space: pre; opacity: 1;" transform="translate(0,50.25330708661415)">0.2</text></g></g><g class="overaxes-above"/></g></g><g class="polarlayer"/><g class="ternarylayer"/><g class="geolayer"/><g class="funnelarealayer"/><g class="pielayer"/><g class="iciclelayer"/><g class="treemaplayer"/><g class="sunburstlayer"/><g class="glimages"/><defs id="topdefs-7a10a7"><g class="clips"/></defs><g class="layer-above"><g class="imagelayer"/><g class="shapelayer"/></g><g class="infolayer"><g class="g-gtitle"/><g class="g-xtitle"/><g class="g-ytitle"/><g class="annotation" data-index="0" style="opacity: 1;"><g class="annotation-text-g" transform="rotate(0,317.7777777777777,33.500000000000014)"><g class="cursor-pointer" transform="translate(140,20)"><rect class="bg" x="0.5" y="0.5" width="355" height="26" style="stroke-width: 1px; stroke: rgb(0, 0, 0); stroke-opacity: 0; fill: rgb(0, 0, 0); fill-opacity: 0;"/><text class="annotation-text" text-anchor="middle" x="178.2109375" y="20.3330078125" style="font-family: sans-serif; font-size: 20px; fill: rgb(0, 0, 0); fill-opacity: 1; white-space: pre;">Single Pendulum Concrete Reachability</text></g></g></g></g></svg>