<svg class="main-svg" xmlns="http://www.w3.org/2000/svg" xmlns:xlink="http://www.w3.org/1999/xlink" width="600" height="400" style=""><rect x="0" y="0" width="600" height="400" style="fill: rgb(255, 255, 255); fill-opacity: 1;"/><defs id="defs-ea4819"><g class="clips"><clipPath id="clipea4819xyplot" class="plotclip"><rect width="556.5704286964129" height="325.4133858267717"/></clipPath><clipPath class="axesclip" id="clipea4819x"><rect x="39.4925634295713" y="0" width="556.5704286964129" height="400"/></clipPath><clipPath class="axesclip" id="clipea4819y"><rect x="0" y="41.04330708661415" width="600" height="325.4133858267717"/></clipPath><clipPath class="axesclip" id="clipea4819xy"><rect x="39.4925634295713" y="41.04330708661415" width="556.5704286964129" height="325.4133858267717"/></clipPath></g><g class="gradients"/><g class="patterns"/></defs><g class="bglayer"/><g class="layer-below"><g class="imagelayer"/><g class="shapelayer"/></g><g class="cartesianlayer"><g class="subplot xy"><g class="layer-subplot"><g class="shapelayer"/><g class="imagelayer"/></g><g class="gridlayer"><g class="x"><path class="xgrid crisp" transform="translate(133.4825634295713,0)" d="M0,41.04330708661415v325.4133858267717" style="stroke: rgb(0, 0, 0); stroke-opacity: 0.1; stroke-width: 0.5px;"/><path class="xgrid crisp" transform="translate(270.5825634295713,0)" d="M0,41.04330708661415v325.4133858267717" style="stroke: rgb(0, 0, 0); stroke-opacity: 0.1; stroke-width: 0.5px;"/><path class="xgrid crisp" transform="translate(407.6725634295713,0)" d="M0,41.04330708661415v325.4133858267717" style="stroke: rgb(0, 0, 0); stroke-opacity: 0.1; stroke-width: 0.5px;"/><path class="xgrid crisp" transform="translate(544.7725634295713,0)" d="M0,41.04330708661415v325.4133858267717" style="stroke: rgb(0, 0, 0); stroke-opacity: 0.1; stroke-width: 0.5px;"/></g><g class="y"><path class="ygrid crisp" transform="translate(0,339.49330708661415)" d="M39.4925634295713,0h556.5704286964129" style="stroke: rgb(0, 0, 0); stroke-opacity: 0.1; stroke-width: 0.5px;"/><path class="ygrid crisp" transform="translate(0,250.73330708661416)" d="M39.4925634295713,0h556.5704286964129" style="stroke: rgb(0, 0, 0); stroke-opacity: 0.1; stroke-width: 0.5px;"/><path class="ygrid crisp" transform="translate(0,161.97330708661417)" d="M39.4925634295713,0h556.5704286964129" style="stroke: rgb(0, 0, 0); stroke-opacity: 0.1; stroke-width: 0.5px;"/><path class="ygrid crisp" transform="translate(0,73.21330708661415)" d="M39.4925634295713,0h556.5704286964129" style="stroke: rgb(0, 0, 0); stroke-opacity: 0.1; stroke-width: 0.5px;"/></g></g><g class="zerolinelayer"/><path class="xlines-below"/><path class="ylines-below"/><g class="overlines-below"/><g class="xaxislayer-below"/><g class="yaxislayer-below"/><g class="overaxes-below"/><g class="plot" transform="translate(39.4925634295713,41.04330708661415)" clip-path="url(#clipea4819xyplot)"><g class="scatterlayer mlayer"><g class="trace scatter trace8a5b73" style="stroke-miterlimit: 2;"><g class="fills"><g><path class="js-fill" d="M538.18,2073.67L538.18,2073.67L538.18,280.7L450.44,280.7L450.44,316.2L538.18,316.2L538.18,280.7L538.18,280.7" style="fill: rgb(0, 154, 250); fill-opacity: 0.5; stroke-width: 0;"/></g></g><g class="errorbars"/><g class="lines"><path class="js-line" d="M538.18,280.7L450.44,280.7L450.44,316.2L538.18,316.2L538.18,280.7L538.18,280.7" style="vector-effect: non-scaling-stroke; fill: none; stroke: rgb(0, 0, 0); stroke-opacity: 0.5; stroke-width: 1px; opacity: 1;"/></g><g class="points"/><g class="text"/></g><g class="trace scatter trace8ece5e" style="stroke-miterlimit: 2;"><g class="fills"><g><path class="js-fill" d="M539.29,2073.67L539.29,2073.67L539.29,275.09L449.36,275.09L449.36,311.3L539.29,311.3L539.29,275.09L539.29,275.09" style="fill: rgb(227, 111, 71); fill-opacity: 0.5; stroke-width: 0;"/></g></g><g class="errorbars"/><g class="lines"><path class="js-line" d="M539.29,275.09L449.36,275.09L449.36,311.3L539.29,311.3L539.29,275.09L539.29,275.09" style="vector-effect: non-scaling-stroke; fill: none; stroke: rgb(0, 0, 0); stroke-opacity: 0.5; stroke-width: 1px; opacity: 1;"/></g><g class="points"/><g class="text"/></g><g class="trace scatter trace810c6f" style="stroke-miterlimit: 2;"><g class="fills"><g><path class="js-fill" d="M540.1,2073.67L540.1,2073.67L540.1,269.45L447.95,269.45L447.95,306.39L540.1,306.39L540.1,269.45L540.1,269.45" style="fill: rgb(62, 164, 78); fill-opacity: 0.5; stroke-width: 0;"/></g></g><g class="errorbars"/><g class="lines"><path class="js-line" d="M540.1,269.45L447.95,269.45L447.95,306.39L540.1,306.39L540.1,269.45L540.1,269.45" style="vector-effect: non-scaling-stroke; fill: none; stroke: rgb(0, 0, 0); stroke-opacity: 0.5; stroke-width: 1px; opacity: 1;"/></g><g class="points"/><g class="text"/></g><g class="trace scatter tracee12549" style="stroke-miterlimit: 2;"><g class="fills"><g><path class="js-fill" d="M540.61,2073.67L540.61,2073.67L540.61,263.79L446.2,263.79L446.2,301.48L540.61,301.48L540.61,263.79L540.61,263.79" style="fill: rgb(195, 113, 210); fill-opacity: 0.5; stroke-width: 0;"/></g></g><g class="errorbars"/><g class="lines"><path class="js-line" d="M540.61,263.79L446.2,263.79L446.2,301.48L540.61,301.48L540.61,263.79L540.61,263.79" style="vector-effect: non-scaling-stroke; fill: none; stroke: rgb(0, 0, 0); stroke-opacity: 0.5; stroke-width: 1px; opacity: 1;"/></g><g class="points"/><g class="text"/></g><g class="trace scatter traceeea87c" style="stroke-miterlimit: 2;"><g class="fills"><g><path class="js-fill" d="M540.82,2073.67L540.82,2073.67L540.82,258.11L444.12,258.11L444.12,296.56L540.82,296.56L540.82,258.11L540.82,258.11" style="fill: rgb(172, 142, 24); fill-opacity: 0.5; stroke-width: 0;"/></g></g><g class="errorbars"/><g class="lines"><path class="js-line" d="M540.82,258.11L444.12,258.11L444.12,296.56L540.82,296.56L540.82,258.11L540.82,258.11" style="vector-effect: non-scaling-stroke; fill: none; stroke: rgb(0, 0, 0); stroke-opacity: 0.5; stroke-width: 1px; opacity: 1;"/></g><g class="points"/><g class="text"/></g><g class="trace scatter traceb0a4e2" style="stroke-miterlimit: 2;"><g class="fills"><g><path class="js-fill" d="M540.73,2073.67L540.73,2073.67L540.73,252.41L441.7,252.41L441.7,291.64L540.73,291.64L540.73,252.41L540.73,252.41" style="fill: rgb(0, 170, 174); fill-opacity: 0.5; stroke-width: 0;"/></g></g><g class="errorbars"/><g class="lines"><path class="js-line" d="M540.73,252.41L441.7,252.41L441.7,291.64L540.73,291.64L540.73,252.41L540.73,252.41" style="vector-effect: non-scaling-stroke; fill: none; stroke: rgb(0, 0, 0); stroke-opacity: 0.5; stroke-width: 1px; opacity: 1;"/></g><g class="points"/><g class="text"/></g><g class="trace scatter trace99ea2c" style="stroke-miterlimit: 2;"><g class="fills"><g><path class="js-fill" d="M540.34,2073.67L540.34,2073.67L540.34,246.69L438.95,246.69L438.95,286.73L540.34,286.73L540.34,246.69L540.34,246.69" style="fill: rgb(237, 94, 147); fill-opacity: 0.5; stroke-width: 0;"/></g></g><g class="errorbars"/><g class="lines"><path class="js-line" d="M540.34,246.69L438.95,246.69L438.95,286.73L540.34,286.73L540.34,246.69L540.34,246.69" style="vector-effect: non-scaling-stroke; fill: none; stroke: rgb(0, 0, 0); stroke-opacity: 0.5; stroke-width: 1px; opacity: 1;"/></g><g class="points"/><g class="text"/></g><g class="trace scatter trace366fed" style="stroke-miterlimit: 2;"><g class="fills"><g><path class="js-fill" d="M539.66,2073.67L539.66,2073.67L539.66,240.96L435.87,240.96L435.87,281.82L539.66,281.82L539.66,240.96L539.66,240.96" style="fill: rgb(198, 130, 37); fill-opacity: 0.5; stroke-width: 0;"/></g></g><g class="errorbars"/><g class="lines"><path class="js-line" d="M539.66,240.96L435.87,240.96L435.87,281.82L539.66,281.82L539.66,240.96L539.66,240.96" style="vector-effect: non-scaling-stroke; fill: none; stroke: rgb(0, 0, 0); stroke-opacity: 0.5; stroke-width: 1px; opacity: 1;"/></g><g class="points"/><g class="text"/></g><g class="trace scatter tracef041f7" style="stroke-miterlimit: 2;"><g class="fills"><g><path class="js-fill" d="M538.67,2073.67L538.67,2073.67L538.67,235.22L432.44,235.22L432.44,276.91L538.67,276.91L538.67,235.22L538.67,235.22" style="fill: rgb(0, 169, 141); fill-opacity: 0.5; stroke-width: 0;"/></g></g><g class="errorbars"/><g class="lines"><path class="js-line" d="M538.67,235.22L432.44,235.22L432.44,276.91L538.67,276.91L538.67,235.22L538.67,235.22" style="vector-effect: non-scaling-stroke; fill: none; stroke: rgb(0, 0, 0); stroke-opacity: 0.5; stroke-width: 1px; opacity: 1;"/></g><g class="points"/><g class="text"/></g><g class="trace scatter tracedc2791" style="stroke-miterlimit: 2;"><g class="fills"><g><path class="js-fill" d="M537.39,2073.67L537.39,2073.67L537.39,229.46L428.68,229.46L428.68,272.02L537.39,272.02L537.39,229.46L537.39,229.46" style="fill: rgb(142, 151, 30); fill-opacity: 0.5; stroke-width: 0;"/></g></g><g class="errorbars"/><g class="lines"><path class="js-line" d="M537.39,229.46L428.68,229.46L428.68,272.02L537.39,272.02L537.39,229.46L537.39,229.46" style="vector-effect: non-scaling-stroke; fill: none; stroke: rgb(0, 0, 0); stroke-opacity: 0.5; stroke-width: 1px; opacity: 1;"/></g><g class="points"/><g class="text"/></g><g class="trace scatter trace39d097" style="stroke-miterlimit: 2;"><g class="fills"><g><path class="js-fill" d="M535.81,2073.67L535.81,2073.67L535.81,223.69L424.59,223.69L424.59,267.13L535.81,267.13L535.81,223.69L535.81,223.69" style="fill: rgb(0, 169, 204); fill-opacity: 0.5; stroke-width: 0;"/></g></g><g class="errorbars"/><g class="lines"><path class="js-line" d="M535.81,223.69L424.59,223.69L424.59,267.13L535.81,267.13L535.81,223.69L535.81,223.69" style="vector-effect: non-scaling-stroke; fill: none; stroke: rgb(0, 0, 0); stroke-opacity: 0.5; stroke-width: 1px; opacity: 1;"/></g><g class="points"/><g class="text"/></g><g class="trace scatter trace5fc229" style="stroke-miterlimit: 2;"><g class="fills"><g><path class="js-fill" d="M533.94,2073.67L533.94,2073.67L533.94,217.92L420.16,217.92L420.16,262.26L533.94,262.26L533.94,217.92L533.94,217.92" style="fill: rgb(155, 127, 233); fill-opacity: 0.5; stroke-width: 0;"/></g></g><g class="errorbars"/><g class="lines"><path class="js-line" d="M533.94,217.92L420.16,217.92L420.16,262.26L533.94,262.26L533.94,217.92L533.94,217.92" style="vector-effect: non-scaling-stroke; fill: none; stroke: rgb(0, 0, 0); stroke-opacity: 0.5; stroke-width: 1px; opacity: 1;"/></g><g class="points"/><g class="text"/></g><g class="trace scatter trace197049" style="stroke-miterlimit: 2;"><g class="fills"><g><path class="js-fill" d="M531.77,2073.67L531.77,2073.67L531.77,212.14L415.4,212.14L415.4,257.41L531.77,257.41L531.77,212.14L531.77,212.14" style="fill: rgb(97, 141, 246); fill-opacity: 0.5; stroke-width: 0;"/></g></g><g class="errorbars"/><g class="lines"><path class="js-line" d="M531.77,212.14L415.4,212.14L415.4,257.41L531.77,257.41L531.77,212.14L531.77,212.14" style="vector-effect: non-scaling-stroke; fill: none; stroke: rgb(0, 0, 0); stroke-opacity: 0.5; stroke-width: 1px; opacity: 1;"/></g><g class="points"/><g class="text"/></g><g class="trace scatter trace9da796" style="stroke-miterlimit: 2;"><g class="fills"><g><path class="js-fill" d="M529.3,2073.67L529.3,2073.67L529.3,206.36L410.3,206.36L410.3,252.57L529.3,252.57L529.3,206.36L529.3,206.36" style="fill: rgb(240, 96, 115); fill-opacity: 0.5; stroke-width: 0;"/></g></g><g class="errorbars"/><g class="lines"><path class="js-line" d="M529.3,206.36L410.3,206.36L410.3,252.57L529.3,252.57L529.3,206.36L529.3,206.36" style="vector-effect: non-scaling-stroke; fill: none; stroke: rgb(0, 0, 0); stroke-opacity: 0.5; stroke-width: 1px; opacity: 1;"/></g><g class="points"/><g class="text"/></g><g class="trace scatter tracecfbab9" style="stroke-miterlimit: 2;"><g class="fills"><g><path class="js-fill" d="M526.55,2073.67L526.55,2073.67L526.55,200.57L404.88,200.57L404.88,247.76L526.55,247.76L526.55,200.57L526.55,200.57" style="fill: rgb(221, 101, 182); fill-opacity: 0.5; stroke-width: 0;"/></g></g><g class="errorbars"/><g class="lines"><path class="js-line" d="M526.55,200.57L404.88,200.57L404.88,247.76L526.55,247.76L526.55,200.57L526.55,200.57" style="vector-effect: non-scaling-stroke; fill: none; stroke: rgb(0, 0, 0); stroke-opacity: 0.5; stroke-width: 1px; opacity: 1;"/></g><g class="points"/><g class="text"/></g><g class="trace scatter trace72fb87" style="stroke-miterlimit: 2;"><g class="fills"><g><path class="js-fill" d="M523.5,2073.67L523.5,2073.67L523.5,194.79L399.12,194.79L399.12,242.97L523.5,242.97L523.5,194.79L523.5,194.79" style="fill: rgb(108, 159, 51); fill-opacity: 0.5; stroke-width: 0;"/></g></g><g class="errorbars"/><g class="lines"><path class="js-line" d="M523.5,194.79L399.12,194.79L399.12,242.97L523.5,242.97L523.5,194.79L523.5,194.79" style="vector-effect: non-scaling-stroke; fill: none; stroke: rgb(0, 0, 0); stroke-opacity: 0.5; stroke-width: 1px; opacity: 1;"/></g><g class="points"/><g class="text"/></g><g class="trace scatter trace217ec7" style="stroke-miterlimit: 2;"><g class="fills"><g><path class="js-fill" d="M520.17,2073.67L520.17,2073.67L520.17,189.01L393.03,189.01L393.03,238.2L520.17,238.2L520.17,189.01L520.17,189.01" style="fill: rgb(0, 154, 250); fill-opacity: 0.5; stroke-width: 0;"/></g></g><g class="errorbars"/><g class="lines"><path class="js-line" d="M520.17,189.01L393.03,189.01L393.03,238.2L520.17,238.2L520.17,189.01L520.17,189.01" style="vector-effect: non-scaling-stroke; fill: none; stroke: rgb(0, 0, 0); stroke-opacity: 0.5; stroke-width: 1px; opacity: 1;"/></g><g class="points"/><g class="text"/></g><g class="trace scatter trace999f21" style="stroke-miterlimit: 2;"><g class="fills"><g><path class="js-fill" d="M516.55,2073.67L516.55,2073.67L516.55,183.24L386.62,183.24L386.62,233.46L516.55,233.46L516.55,183.24L516.55,183.24" style="fill: rgb(227, 111, 71); fill-opacity: 0.5; stroke-width: 0;"/></g></g><g class="errorbars"/><g class="lines"><path class="js-line" d="M516.55,183.24L386.62,183.24L386.62,233.46L516.55,233.46L516.55,183.24L516.55,183.24" style="vector-effect: non-scaling-stroke; fill: none; stroke: rgb(0, 0, 0); stroke-opacity: 0.5; stroke-width: 1px; opacity: 1;"/></g><g class="points"/><g class="text"/></g><g class="trace scatter trace7697ec" style="stroke-miterlimit: 2;"><g class="fills"><g><path class="js-fill" d="M512.66,2073.67L512.66,2073.67L512.66,177.47L379.88,177.47L379.88,228.76L512.66,228.76L512.66,177.47L512.66,177.47" style="fill: rgb(62, 164, 78); fill-opacity: 0.5; stroke-width: 0;"/></g></g><g class="errorbars"/><g class="lines"><path class="js-line" d="M512.66,177.47L379.88,177.47L379.88,228.76L512.66,228.76L512.66,177.47L512.66,177.47" style="vector-effect: non-scaling-stroke; fill: none; stroke: rgb(0, 0, 0); stroke-opacity: 0.5; stroke-width: 1px; opacity: 1;"/></g><g class="points"/><g class="text"/></g><g class="trace scatter trace86bf46" style="stroke-miterlimit: 2;"><g class="fills"><g><path class="js-fill" d="M508.48,2073.67L508.48,2073.67L508.48,171.71L372.82,171.71L372.82,224.08L508.48,224.08L508.48,171.71L508.48,171.71" style="fill: rgb(195, 113, 210); fill-opacity: 0.5; stroke-width: 0;"/></g></g><g class="errorbars"/><g class="lines"><path class="js-line" d="M508.48,171.71L372.82,171.71L372.82,224.08L508.48,224.08L508.48,171.71L508.48,171.71" style="vector-effect: non-scaling-stroke; fill: none; stroke: rgb(0, 0, 0); stroke-opacity: 0.5; stroke-width: 1px; opacity: 1;"/></g><g class="points"/><g class="text"/></g><g class="trace scatter trace246873" style="stroke-miterlimit: 2;"><g class="fills"><g><path class="js-fill" d="M504.02,2073.67L504.02,2073.67L504.02,165.97L365.45,165.97L365.45,219.45L504.02,219.45L504.02,165.97L504.02,165.97" style="fill: rgb(172, 142, 24); fill-opacity: 0.5; stroke-width: 0;"/></g></g><g class="errorbars"/><g class="lines"><path class="js-line" d="M504.02,165.97L365.45,165.97L365.45,219.45L504.02,219.45L504.02,165.97L504.02,165.97" style="vector-effect: non-scaling-stroke; fill: none; stroke: rgb(0, 0, 0); stroke-opacity: 0.5; stroke-width: 1px; opacity: 1;"/></g><g class="points"/><g class="text"/></g><g class="trace scatter trace6cbbae" style="stroke-miterlimit: 2;"><g class="fills"><g><path class="js-fill" d="M499.29,2073.67L499.29,2073.67L499.29,160.24L357.75,160.24L357.75,214.85L499.29,214.85L499.29,160.24L499.29,160.24" style="fill: rgb(0, 170, 174); fill-opacity: 0.5; stroke-width: 0;"/></g></g><g class="errorbars"/><g class="lines"><path class="js-line" d="M499.29,160.24L357.75,160.24L357.75,214.85L499.29,214.85L499.29,160.24L499.29,160.24" style="vector-effect: non-scaling-stroke; fill: none; stroke: rgb(0, 0, 0); stroke-opacity: 0.5; stroke-width: 1px; opacity: 1;"/></g><g class="points"/><g class="text"/></g><g class="trace scatter trace6017c5" style="stroke-miterlimit: 2;"><g class="fills"><g><path class="js-fill" d="M494.29,2073.67L494.29,2073.67L494.29,154.52L349.74,154.52L349.74,210.29L494.29,210.29L494.29,154.52L494.29,154.52" style="fill: rgb(237, 94, 147); fill-opacity: 0.5; stroke-width: 0;"/></g></g><g class="errorbars"/><g class="lines"><path class="js-line" d="M494.29,154.52L349.74,154.52L349.74,210.29L494.29,210.29L494.29,154.52L494.29,154.52" style="vector-effect: non-scaling-stroke; fill: none; stroke: rgb(0, 0, 0); stroke-opacity: 0.5; stroke-width: 1px; opacity: 1;"/></g><g class="points"/><g class="text"/></g><g class="trace scatter trace952444" style="stroke-miterlimit: 2;"><g class="fills"><g><path class="js-fill" d="M489.02,2073.67L489.02,2073.67L489.02,148.82L341.42,148.82L341.42,205.77L489.02,205.77L489.02,148.82L489.02,148.82" style="fill: rgb(198, 130, 37); fill-opacity: 0.5; stroke-width: 0;"/></g></g><g class="errorbars"/><g class="lines"><path class="js-line" d="M489.02,148.82L341.42,148.82L341.42,205.77L489.02,205.77L489.02,148.82L489.02,148.82" style="vector-effect: non-scaling-stroke; fill: none; stroke: rgb(0, 0, 0); stroke-opacity: 0.5; stroke-width: 1px; opacity: 1;"/></g><g class="points"/><g class="text"/></g><g class="trace scatter trace156e8d" style="stroke-miterlimit: 2;"><g class="fills"><g><path class="js-fill" d="M483.49,2073.67L483.49,2073.67L483.49,143.14L332.8,143.14L332.8,201.3L483.49,201.3L483.49,143.14L483.49,143.14" style="fill: rgb(0, 169, 141); fill-opacity: 0.5; stroke-width: 0;"/></g></g><g class="errorbars"/><g class="lines"><path class="js-line" d="M483.49,143.14L332.8,143.14L332.8,201.3L483.49,201.3L483.49,143.14L483.49,143.14" style="vector-effect: non-scaling-stroke; fill: none; stroke: rgb(0, 0, 0); stroke-opacity: 0.5; stroke-width: 1px; opacity: 1;"/></g><g class="points"/><g class="text"/></g><g class="trace scatter tracee78c1d" style="stroke-miterlimit: 2;"><g class="fills"><g><path class="js-fill" d="M477.7,2073.67L477.7,2073.67L477.7,137.49L323.87,137.49L323.87,196.88L477.7,196.88L477.7,137.49L477.7,137.49" style="fill: rgb(142, 151, 30); fill-opacity: 0.5; stroke-width: 0;"/></g></g><g class="errorbars"/><g class="lines"><path class="js-line" d="M477.7,137.49L323.87,137.49L323.87,196.88L477.7,196.88L477.7,137.49L477.7,137.49" style="vector-effect: non-scaling-stroke; fill: none; stroke: rgb(0, 0, 0); stroke-opacity: 0.5; stroke-width: 1px; opacity: 1;"/></g><g class="points"/><g class="text"/></g><g class="trace scatter trace99e852" style="stroke-miterlimit: 2;"><g class="fills"><g><path class="js-fill" d="M471.66,2073.67L471.66,2073.67L471.66,131.86L314.64,131.86L314.64,192.51L471.66,192.51L471.66,131.86L471.66,131.86" style="fill: rgb(0, 169, 204); fill-opacity: 0.5; stroke-width: 0;"/></g></g><g class="errorbars"/><g class="lines"><path class="js-line" d="M471.66,131.86L314.64,131.86L314.64,192.51L471.66,192.51L471.66,131.86L471.66,131.86" style="vector-effect: non-scaling-stroke; fill: none; stroke: rgb(0, 0, 0); stroke-opacity: 0.5; stroke-width: 1px; opacity: 1;"/></g><g class="points"/><g class="text"/></g><g class="trace scatter trace8fc593" style="stroke-miterlimit: 2;"><g class="fills"><g><path class="js-fill" d="M465.37,2073.67L465.37,2073.67L465.37,126.25L305.11,126.25L305.11,188.19L465.37,188.19L465.37,126.25L465.37,126.25" style="fill: rgb(155, 127, 233); fill-opacity: 0.5; stroke-width: 0;"/></g></g><g class="errorbars"/><g class="lines"><path class="js-line" d="M465.37,126.25L305.11,126.25L305.11,188.19L465.37,188.19L465.37,126.25L465.37,126.25" style="vector-effect: non-scaling-stroke; fill: none; stroke: rgb(0, 0, 0); stroke-opacity: 0.5; stroke-width: 1px; opacity: 1;"/></g><g class="points"/><g class="text"/></g><g class="trace scatter tracee7aea8" style="stroke-miterlimit: 2;"><g class="fills"><g><path class="js-fill" d="M458.83,2073.67L458.83,2073.67L458.83,120.67L295.29,120.67L295.29,183.93L458.83,183.93L458.83,120.67L458.83,120.67" style="fill: rgb(97, 141, 246); fill-opacity: 0.5; stroke-width: 0;"/></g></g><g class="errorbars"/><g class="lines"><path class="js-line" d="M458.83,120.67L295.29,120.67L295.29,183.93L458.83,183.93L458.83,120.67L458.83,120.67" style="vector-effect: non-scaling-stroke; fill: none; stroke: rgb(0, 0, 0); stroke-opacity: 0.5; stroke-width: 1px; opacity: 1;"/></g><g class="points"/><g class="text"/></g><g class="trace scatter traceb3bf0a" style="stroke-miterlimit: 2;"><g class="fills"><g><path class="js-fill" d="M452.04,2073.67L452.04,2073.67L452.04,115.13L285.19,115.13L285.19,179.73L452.04,179.73L452.04,115.13L452.04,115.13" style="fill: rgb(240, 96, 115); fill-opacity: 0.5; stroke-width: 0;"/></g></g><g class="errorbars"/><g class="lines"><path class="js-line" d="M452.04,115.13L285.19,115.13L285.19,179.73L452.04,179.73L452.04,115.13L452.04,115.13" style="vector-effect: non-scaling-stroke; fill: none; stroke: rgb(0, 0, 0); stroke-opacity: 0.5; stroke-width: 1px; opacity: 1;"/></g><g class="points"/><g class="text"/></g><g class="trace scatter tracea36df2" style="stroke-miterlimit: 2;"><g class="fills"><g><path class="js-fill" d="M445.03,2073.67L445.03,2073.67L445.03,109.62L274.8,109.62L274.8,175.58L445.03,175.58L445.03,109.62L445.03,109.62" style="fill: rgb(221, 101, 182); fill-opacity: 0.5; stroke-width: 0;"/></g></g><g class="errorbars"/><g class="lines"><path class="js-line" d="M445.03,109.62L274.8,109.62L274.8,175.58L445.03,175.58L445.03,109.62L445.03,109.62" style="vector-effect: non-scaling-stroke; fill: none; stroke: rgb(0, 0, 0); stroke-opacity: 0.5; stroke-width: 1px; opacity: 1;"/></g><g class="points"/><g class="text"/></g><g class="trace scatter trace308305" style="stroke-miterlimit: 2;"><g class="fills"><g><path class="js-fill" d="M437.78,2073.67L437.78,2073.67L437.78,104.14L264.13,104.14L264.13,171.5L437.78,171.5L437.78,104.14L437.78,104.14" style="fill: rgb(108, 159, 51); fill-opacity: 0.5; stroke-width: 0;"/></g></g><g class="errorbars"/><g class="lines"><path class="js-line" d="M437.78,104.14L264.13,104.14L264.13,171.5L437.78,171.5L437.78,104.14L437.78,104.14" style="vector-effect: non-scaling-stroke; fill: none; stroke: rgb(0, 0, 0); stroke-opacity: 0.5; stroke-width: 1px; opacity: 1;"/></g><g class="points"/><g class="text"/></g><g class="trace scatter trace97c4e8" style="stroke-miterlimit: 2;"><g class="fills"><g><path class="js-fill" d="M430.3,2073.67L430.3,2073.67L430.3,98.7L253.19,98.7L253.19,167.49L430.3,167.49L430.3,98.7L430.3,98.7" style="fill: rgb(0, 154, 250); fill-opacity: 0.5; stroke-width: 0;"/></g></g><g class="errorbars"/><g class="lines"><path class="js-line" d="M430.3,98.7L253.19,98.7L253.19,167.49L430.3,167.49L430.3,98.7L430.3,98.7" style="vector-effect: non-scaling-stroke; fill: none; stroke: rgb(0, 0, 0); stroke-opacity: 0.5; stroke-width: 1px; opacity: 1;"/></g><g class="points"/><g class="text"/></g><g class="trace scatter trace3d8faf" style="stroke-miterlimit: 2;"><g class="fills"><g><path class="js-fill" d="M422.61,2073.67L422.61,2073.67L422.61,93.29L241.98,93.29L241.98,163.54L422.61,163.54L422.61,93.29L422.61,93.29" style="fill: rgb(227, 111, 71); fill-opacity: 0.5; stroke-width: 0;"/></g></g><g class="errorbars"/><g class="lines"><path class="js-line" d="M422.61,93.29L241.98,93.29L241.98,163.54L422.61,163.54L422.61,93.29L422.61,93.29" style="vector-effect: non-scaling-stroke; fill: none; stroke: rgb(0, 0, 0); stroke-opacity: 0.5; stroke-width: 1px; opacity: 1;"/></g><g class="points"/><g class="text"/></g><g class="trace scatter tracebd9f60" style="stroke-miterlimit: 2;"><g class="fills"><g><path class="js-fill" d="M414.7,2073.67L414.7,2073.67L414.7,87.93L230.51,87.93L230.51,159.66L414.7,159.66L414.7,87.93L414.7,87.93" style="fill: rgb(62, 164, 78); fill-opacity: 0.5; stroke-width: 0;"/></g></g><g class="errorbars"/><g class="lines"><path class="js-line" d="M414.7,87.93L230.51,87.93L230.51,159.66L414.7,159.66L414.7,87.93L414.7,87.93" style="vector-effect: non-scaling-stroke; fill: none; stroke: rgb(0, 0, 0); stroke-opacity: 0.5; stroke-width: 1px; opacity: 1;"/></g><g class="points"/><g class="text"/></g><g class="trace scatter trace616e37" style="stroke-miterlimit: 2;"><g class="fills"><g><path class="js-fill" d="M406.58,2073.67L406.58,2073.67L406.58,82.61L218.78,82.61L218.78,155.85L406.58,155.85L406.58,82.61L406.58,82.61" style="fill: rgb(195, 113, 210); fill-opacity: 0.5; stroke-width: 0;"/></g></g><g class="errorbars"/><g class="lines"><path class="js-line" d="M406.58,82.61L218.78,82.61L218.78,155.85L406.58,155.85L406.58,82.61L406.58,82.61" style="vector-effect: non-scaling-stroke; fill: none; stroke: rgb(0, 0, 0); stroke-opacity: 0.5; stroke-width: 1px; opacity: 1;"/></g><g class="points"/><g class="text"/></g><g class="trace scatter tracefdbfca" style="stroke-miterlimit: 2;"><g class="fills"><g><path class="js-fill" d="M398.25,2073.67L398.25,2073.67L398.25,77.34L206.79,77.34L206.79,152.12L398.25,152.12L398.25,77.34L398.25,77.34" style="fill: rgb(172, 142, 24); fill-opacity: 0.5; stroke-width: 0;"/></g></g><g class="errorbars"/><g class="lines"><path class="js-line" d="M398.25,77.34L206.79,77.34L206.79,152.12L398.25,152.12L398.25,77.34L398.25,77.34" style="vector-effect: non-scaling-stroke; fill: none; stroke: rgb(0, 0, 0); stroke-opacity: 0.5; stroke-width: 1px; opacity: 1;"/></g><g class="points"/><g class="text"/></g><g class="trace scatter tracec80da3" style="stroke-miterlimit: 2;"><g class="fills"><g><path class="js-fill" d="M389.73,2073.67L389.73,2073.67L389.73,72.11L194.56,72.11L194.56,148.47L389.73,148.47L389.73,72.11L389.73,72.11" style="fill: rgb(0, 170, 174); fill-opacity: 0.5; stroke-width: 0;"/></g></g><g class="errorbars"/><g class="lines"><path class="js-line" d="M389.73,72.11L194.56,72.11L194.56,148.47L389.73,148.47L389.73,72.11L389.73,72.11" style="vector-effect: non-scaling-stroke; fill: none; stroke: rgb(0, 0, 0); stroke-opacity: 0.5; stroke-width: 1px; opacity: 1;"/></g><g class="points"/><g class="text"/></g><g class="trace scatter trace5bc223" style="stroke-miterlimit: 2;"><g class="fills"><g><path class="js-fill" d="M381.01,2073.67L381.01,2073.67L381.01,66.93L182.09,66.93L182.09,144.89L381.01,144.89L381.01,66.93L381.01,66.93" style="fill: rgb(237, 94, 147); fill-opacity: 0.5; stroke-width: 0;"/></g></g><g class="errorbars"/><g class="lines"><path class="js-line" d="M381.01,66.93L182.09,66.93L182.09,144.89L381.01,144.89L381.01,66.93L381.01,66.93" style="vector-effect: non-scaling-stroke; fill: none; stroke: rgb(0, 0, 0); stroke-opacity: 0.5; stroke-width: 1px; opacity: 1;"/></g><g class="points"/><g class="text"/></g><g class="trace scatter trace781ca3" style="stroke-miterlimit: 2;"><g class="fills"><g><path class="js-fill" d="M372.11,2073.67L372.11,2073.67L372.11,61.8L169.38,61.8L169.38,141.39L372.11,141.39L372.11,61.8L372.11,61.8" style="fill: rgb(198, 130, 37); fill-opacity: 0.5; stroke-width: 0;"/></g></g><g class="errorbars"/><g class="lines"><path class="js-line" d="M372.11,61.8L169.38,61.8L169.38,141.39L372.11,141.39L372.11,61.8L372.11,61.8" style="vector-effect: non-scaling-stroke; fill: none; stroke: rgb(0, 0, 0); stroke-opacity: 0.5; stroke-width: 1px; opacity: 1;"/></g><g class="points"/><g class="text"/></g><g class="trace scatter tracec9b1b1" style="stroke-miterlimit: 2;"><g class="fills"><g><path class="js-fill" d="M363.03,2073.67L363.03,2073.67L363.03,56.73L156.44,56.73L156.44,137.98L363.03,137.98L363.03,56.73L363.03,56.73" style="fill: rgb(0, 169, 141); fill-opacity: 0.5; stroke-width: 0;"/></g></g><g class="errorbars"/><g class="lines"><path class="js-line" d="M363.03,56.73L156.44,56.73L156.44,137.98L363.03,137.98L363.03,56.73L363.03,56.73" style="vector-effect: non-scaling-stroke; fill: none; stroke: rgb(0, 0, 0); stroke-opacity: 0.5; stroke-width: 1px; opacity: 1;"/></g><g class="points"/><g class="text"/></g><g class="trace scatter trace0c0a4a" style="stroke-miterlimit: 2;"><g class="fills"><g><path class="js-fill" d="M353.78,2073.67L353.78,2073.67L353.78,51.7L143.28,51.7L143.28,134.66L353.78,134.66L353.78,51.7L353.78,51.7" style="fill: rgb(142, 151, 30); fill-opacity: 0.5; stroke-width: 0;"/></g></g><g class="errorbars"/><g class="lines"><path class="js-line" d="M353.78,51.7L143.28,51.7L143.28,134.66L353.78,134.66L353.78,51.7L353.78,51.7" style="vector-effect: non-scaling-stroke; fill: none; stroke: rgb(0, 0, 0); stroke-opacity: 0.5; stroke-width: 1px; opacity: 1;"/></g><g class="points"/><g class="text"/></g><g class="trace scatter tracef58dbf" style="stroke-miterlimit: 2;"><g class="fills"><g><path class="js-fill" d="M344.36,2073.67L344.36,2073.67L344.36,46.74L129.9,46.74L129.9,131.42L344.36,131.42L344.36,46.74L344.36,46.74" style="fill: rgb(0, 169, 204); fill-opacity: 0.5; stroke-width: 0;"/></g></g><g class="errorbars"/><g class="lines"><path class="js-line" d="M344.36,46.74L129.9,46.74L129.9,131.42L344.36,131.42L344.36,46.74L344.36,46.74" style="vector-effect: non-scaling-stroke; fill: none; stroke: rgb(0, 0, 0); stroke-opacity: 0.5; stroke-width: 1px; opacity: 1;"/></g><g class="points"/><g class="text"/></g><g class="trace scatter traceef942e" style="stroke-miterlimit: 2;"><g class="fills"><g><path class="js-fill" d="M334.78,2073.67L334.78,2073.67L334.78,41.83L116.3,41.83L116.3,128.27L334.78,128.27L334.78,41.83L334.78,41.83" style="fill: rgb(155, 127, 233); fill-opacity: 0.5; stroke-width: 0;"/></g></g><g class="errorbars"/><g class="lines"><path class="js-line" d="M334.78,41.83L116.3,41.83L116.3,128.27L334.78,128.27L334.78,41.83L334.78,41.83" style="vector-effect: non-scaling-stroke; fill: none; stroke: rgb(0, 0, 0); stroke-opacity: 0.5; stroke-width: 1px; opacity: 1;"/></g><g class="points"/><g class="text"/></g><g class="trace scatter trace158f98" style="stroke-miterlimit: 2;"><g class="fills"><g><path class="js-fill" d="M325.05,2073.67L325.05,2073.67L325.05,36.98L102.5,36.98L102.5,125.21L325.05,125.21L325.05,36.98L325.05,36.98" style="fill: rgb(97, 141, 246); fill-opacity: 0.5; stroke-width: 0;"/></g></g><g class="errorbars"/><g class="lines"><path class="js-line" d="M325.05,36.98L102.5,36.98L102.5,125.21L325.05,125.21L325.05,36.98L325.05,36.98" style="vector-effect: non-scaling-stroke; fill: none; stroke: rgb(0, 0, 0); stroke-opacity: 0.5; stroke-width: 1px; opacity: 1;"/></g><g class="points"/><g class="text"/></g><g class="trace scatter trace7b6fd5" style="stroke-miterlimit: 2;"><g class="fills"><g><path class="js-fill" d="M315.17,2073.67L315.17,2073.67L315.17,32.19L88.51,32.19L88.51,122.24L315.17,122.24L315.17,32.19L315.17,32.19" style="fill: rgb(240, 96, 115); fill-opacity: 0.5; stroke-width: 0;"/></g></g><g class="errorbars"/><g class="lines"><path class="js-line" d="M315.17,32.19L88.51,32.19L88.51,122.24L315.17,122.24L315.17,32.19L315.17,32.19" style="vector-effect: non-scaling-stroke; fill: none; stroke: rgb(0, 0, 0); stroke-opacity: 0.5; stroke-width: 1px; opacity: 1;"/></g><g class="points"/><g class="text"/></g><g class="trace scatter traced7c0bb" style="stroke-miterlimit: 2;"><g class="fills"><g><path class="js-fill" d="M305.15,2073.67L305.15,2073.67L305.15,27.46L74.32,27.46L74.32,119.37L305.15,119.37L305.15,27.46L305.15,27.46" style="fill: rgb(221, 101, 182); fill-opacity: 0.5; stroke-width: 0;"/></g></g><g class="errorbars"/><g class="lines"><path class="js-line" d="M305.15,27.46L74.32,27.46L74.32,119.37L305.15,119.37L305.15,27.46L305.15,27.46" style="vector-effect: non-scaling-stroke; fill: none; stroke: rgb(0, 0, 0); stroke-opacity: 0.5; stroke-width: 1px; opacity: 1;"/></g><g class="points"/><g class="text"/></g><g class="trace scatter trace121769" style="stroke-miterlimit: 2;"><g class="fills"><g><path class="js-fill" d="M294.99,2073.67L294.99,2073.67L294.99,22.8L59.94,22.8L59.94,116.6L294.99,116.6L294.99,22.8L294.99,22.8" style="fill: rgb(108, 159, 51); fill-opacity: 0.5; stroke-width: 0;"/></g></g><g class="errorbars"/><g class="lines"><path class="js-line" d="M294.99,22.8L59.94,22.8L59.94,116.6L294.99,116.6L294.99,22.8L294.99,22.8" style="vector-effect: non-scaling-stroke; fill: none; stroke: rgb(0, 0, 0); stroke-opacity: 0.5; stroke-width: 1px; opacity: 1;"/></g><g class="points"/><g class="text"/></g><g class="trace scatter tracec1935c" style="stroke-miterlimit: 2;"><g class="fills"><g><path class="js-fill" d="M284.71,2073.67L284.71,2073.67L284.71,18.2L45.38,18.2L45.38,113.92L284.71,113.92L284.71,18.2L284.71,18.2" style="fill: rgb(0, 154, 250); fill-opacity: 0.5; stroke-width: 0;"/></g></g><g class="errorbars"/><g class="lines"><path class="js-line" d="M284.71,18.2L45.38,18.2L45.38,113.92L284.71,113.92L284.71,18.2L284.71,18.2" style="vector-effect: non-scaling-stroke; fill: none; stroke: rgb(0, 0, 0); stroke-opacity: 0.5; stroke-width: 1px; opacity: 1;"/></g><g class="points"/><g class="text"/></g><g class="trace scatter trace0d2fdd" style="stroke-miterlimit: 2;"><g class="fills"><g><path class="js-fill" d="M274.31,2073.67L274.31,2073.67L274.31,13.67L30.65,13.67L30.65,111.35L274.31,111.35L274.31,13.67L274.31,13.67" style="fill: rgb(227, 111, 71); fill-opacity: 0.5; stroke-width: 0;"/></g></g><g class="errorbars"/><g class="lines"><path class="js-line" d="M274.31,13.67L30.65,13.67L30.65,111.35L274.31,111.35L274.31,13.67L274.31,13.67" style="vector-effect: non-scaling-stroke; fill: none; stroke: rgb(0, 0, 0); stroke-opacity: 0.5; stroke-width: 1px; opacity: 1;"/></g><g class="points"/><g class="text"/></g><g class="trace scatter traced33caf" style="stroke-miterlimit: 2;"><g class="fills"><g><path class="js-fill" d="M263.8,2073.67L263.8,2073.67L263.8,9.21L15.75,9.21L15.75,108.88L263.8,108.88L263.8,9.21L263.8,9.21" style="fill: rgb(62, 164, 78); fill-opacity: 0.5; stroke-width: 0;"/></g></g><g class="errorbars"/><g class="lines"><path class="js-line" d="M263.8,9.21L15.75,9.21L15.75,108.88L263.8,108.88L263.8,9.21L263.8,9.21" style="vector-effect: non-scaling-stroke; fill: none; stroke: rgb(0, 0, 0); stroke-opacity: 0.5; stroke-width: 1px; opacity: 1;"/></g><g class="points"/><g class="text"/></g></g></g><g class="overplot"/><path class="xlines-above crisp" d="M38.4925634295713,366.95669291338584H596.0629921259842" style="fill: none; stroke-width: 1px; stroke: rgb(0, 0, 0); stroke-opacity: 1;"/><path class="ylines-above crisp" d="M38.9925634295713,41.04330708661415V366.45669291338584" style="fill: none; stroke-width: 1px; stroke: rgb(0, 0, 0); stroke-opacity: 1;"/><g class="overlines-above"/><g class="xaxislayer-above"><path class="xtick ticks crisp" d="M0,366.45669291338584v-5" transform="translate(133.4825634295713,0)" style="stroke: rgb(0, 0, 0); stroke-opacity: 1; stroke-width: 1px;"/><path class="xtick ticks crisp" d="M0,366.45669291338584v-5" transform="translate(270.5825634295713,0)" style="stroke: rgb(0, 0, 0); stroke-opacity: 1; stroke-width: 1px;"/><path class="xtick ticks crisp" d="M0,366.45669291338584v-5" transform="translate(407.6725634295713,0)" style="stroke: rgb(0, 0, 0); stroke-opacity: 1; stroke-width: 1px;"/><path class="xtick ticks crisp" d="M0,366.45669291338584v-5" transform="translate(544.7725634295713,0)" style="stroke: rgb(0, 0, 0); stroke-opacity: 1; stroke-width: 1px;"/><g class="xtick"><text text-anchor="middle" x="0" y="380.6566929133858" transform="translate(133.4825634295713,0)" style="font-family: sans-serif; font-size: 11px; fill: rgb(0, 0, 0); fill-opacity: 1; white-space: pre; opacity: 1;">1.15</text></g><g class="xtick"><text text-anchor="middle" x="0" y="380.6566929133858" style="font-family: sans-serif; font-size: 11px; fill: rgb(0, 0, 0); fill-opacity: 1; white-space: pre; opacity: 1;" transform="translate(270.5825634295713,0)">1.20</text></g><g class="xtick"><text text-anchor="middle" x="0" y="380.6566929133858" style="font-family: sans-serif; font-size: 11px; fill: rgb(0, 0, 0); fill-opacity: 1; white-space: pre; opacity: 1;" transform="translate(407.6725634295713,0)">1.25</text></g><g class="xtick"><text text-anchor="middle" x="0" y="380.6566929133858" style="font-family: sans-serif; font-size: 11px; fill: rgb(0, 0, 0); fill-opacity: 1; white-space: pre; opacity: 1;" transform="translate(544.7725634295713,0)">1.30</text></g></g><g class="yaxislayer-above"><path class="ytick ticks crisp" d="M39.4925634295713,0h5" transform="translate(0,339.49330708661415)" style="stroke: rgb(0, 0, 0); stroke-opacity: 1; stroke-width: 1px;"/><path class="ytick ticks crisp" d="M39.4925634295713,0h5" transform="translate(0,250.73330708661416)" style="stroke: rgb(0, 0, 0); stroke-opacity: 1; stroke-width: 1px;"/><path class="ytick ticks crisp" d="M39.4925634295713,0h5" transform="translate(0,161.97330708661417)" style="stroke: rgb(0, 0, 0); stroke-opacity: 1; stroke-width: 1px;"/><path class="ytick ticks crisp" d="M39.4925634295713,0h5" transform="translate(0,73.21330708661415)" style="stroke: rgb(0, 0, 0); stroke-opacity: 1; stroke-width: 1px;"/><g class="ytick"><text text-anchor="end" x="36.292563429571295" y="3.8499999999999996" transform="translate(0,339.49330708661415)" style="font-family: sans-serif; font-size: 11px; fill: rgb(0, 0, 0); fill-opacity: 1; white-space: pre; opacity: 1;">1.00</text></g><g class="ytick"><text text-anchor="end" x="36.292563429571295" y="3.8499999999999996" style="font-family: sans-serif; font-size: 11px; fill: rgb(0, 0, 0); fill-opacity: 1; white-space: pre; opacity: 1;" transform="translate(0,250.73330708661416)">1.05</text></g><g class="ytick"><text text-anchor="end" x="36.292563429571295" y="3.8499999999999996" style="font-family: sans-serif; font-size: 11px; fill: rgb(0, 0, 0); fill-opacity: 1; white-space: pre; opacity: 1;" transform="translate(0,161.97330708661417)">1.10</text></g><g class="ytick"><text text-anchor="end" x="36.292563429571295" y="3.8499999999999996" style="font-family: sans-serif; font-size: 11px; fill: rgb(0, 0, 0); fill-opacity: 1; white-space: pre; opacity: 1;" transform="translate(0,73.21330708661415)">1.15</text></g></g><g class="overaxes-above"/></g></g><g class="polarlayer"/><g class="ternarylayer"/><g class="geolayer"/><g class="funnelarealayer"/><g class="pielayer"/><g class="iciclelayer"/><g class="treemaplayer"/><g class="sunburstlayer"/><g class="glimages"/><defs id="topdefs-ea4819"><g class="clips"/></defs><g class="layer-above"><g class="imagelayer"/><g class="shapelayer"/></g><g class="infolayer"><g class="g-gtitle"/><g class="g-xtitle"/><g class="g-ytitle"/><g class="annotation" data-index="0" style="opacity: 1;"><g class="annotation-text-g" transform="rotate(0,317.7777777777777,33.50000000000001)"><g class="cursor-pointer" transform="translate(188,20)"><rect class="bg" x="0.5" y="0.5" width="258" height="26" style="stroke-width: 1px; stroke: rgb(0, 0, 0); stroke-opacity: 0; fill: rgb(0, 0, 0); fill-opacity: 0;"/><text class="annotation-text" text-anchor="middle" x="129.3125" y="20" style="font-family: sans-serif; font-size: 20px; fill: rgb(0, 0, 0); fill-opacity: 1; white-space: pre;">Lotka_Volterra_Concrete_50</text></g></g></g></g></svg>