<svg class="main-svg" xmlns="http://www.w3.org/2000/svg" xmlns:xlink="http://www.w3.org/1999/xlink" width="600" height="400" style=""><rect x="0" y="0" width="600" height="400" style="fill: rgb(255, 255, 255); fill-opacity: 1;"/><defs id="defs-cb85f6"><g class="clips"><clipPath id="clipcb85f6xyplot" class="plotclip"><rect width="556.5704286964129" height="325.4133858267717"/></clipPath><clipPath class="axesclip" id="clipcb85f6x"><rect x="39.4925634295713" y="0" width="556.5704286964129" height="400"/></clipPath><clipPath class="axesclip" id="clipcb85f6y"><rect x="0" y="41.04330708661415" width="600" height="325.4133858267717"/></clipPath><clipPath class="axesclip" id="clipcb85f6xy"><rect x="39.4925634295713" y="41.04330708661415" width="556.5704286964129" height="325.4133858267717"/></clipPath></g><g class="gradients"/><g class="patterns"/></defs><g class="bglayer"/><g class="layer-below"><g class="imagelayer"/><g class="shapelayer"/></g><g class="cartesianlayer"><g class="subplot xy"><g class="layer-subplot"><g class="shapelayer"/><g class="imagelayer"/></g><g class="gridlayer"><g class="x"><path class="xgrid crisp" transform="translate(143.6225634295713,0)" d="M0,41.04330708661415v325.4133858267717" style="stroke: rgb(0, 0, 0); stroke-opacity: 0.1; stroke-width: 0.5px;"/><path class="xgrid crisp" transform="translate(276.28256342957127,0)" d="M0,41.04330708661415v325.4133858267717" style="stroke: rgb(0, 0, 0); stroke-opacity: 0.1; stroke-width: 0.5px;"/><path class="xgrid crisp" transform="translate(408.9425634295713,0)" d="M0,41.04330708661415v325.4133858267717" style="stroke: rgb(0, 0, 0); stroke-opacity: 0.1; stroke-width: 0.5px;"/><path class="xgrid crisp" transform="translate(541.6025634295713,0)" d="M0,41.04330708661415v325.4133858267717" style="stroke: rgb(0, 0, 0); stroke-opacity: 0.1; stroke-width: 0.5px;"/></g><g class="y"><path class="ygrid crisp" transform="translate(0,357.24330708661415)" d="M39.4925634295713,0h556.5704286964129" style="stroke: rgb(0, 0, 0); stroke-opacity: 0.1; stroke-width: 0.5px;"/><path class="ygrid crisp" transform="translate(0,289.9633070866141)" d="M39.4925634295713,0h556.5704286964129" style="stroke: rgb(0, 0, 0); stroke-opacity: 0.1; stroke-width: 0.5px;"/><path class="ygrid crisp" transform="translate(0,222.68330708661415)" d="M39.4925634295713,0h556.5704286964129" style="stroke: rgb(0, 0, 0); stroke-opacity: 0.1; stroke-width: 0.5px;"/><path class="ygrid crisp" transform="translate(0,155.39330708661413)" d="M39.4925634295713,0h556.5704286964129" style="stroke: rgb(0, 0, 0); stroke-opacity: 0.1; stroke-width: 0.5px;"/><path class="ygrid crisp" transform="translate(0,88.11330708661416)" d="M39.4925634295713,0h556.5704286964129" style="stroke: rgb(0, 0, 0); stroke-opacity: 0.1; stroke-width: 0.5px;"/></g></g><g class="zerolinelayer"/><path class="xlines-below"/><path class="ylines-below"/><g class="overlines-below"/><g class="xaxislayer-below"/><g class="yaxislayer-below"/><g class="overaxes-below"/><g class="plot" transform="translate(39.4925634295713,41.04330708661415)" clip-path="url(#clipcb85f6xyplot)"><g class="scatterlayer mlayer"><g class="trace scatter trace4f7f98" style="stroke-miterlimit: 2;"><g class="fills"><g><path class="js-fill" d="M528.64,6977.32L528.64,6977.32L528.64,181.64L104.13,181.64L104.13,316.2L528.64,316.2L528.64,181.64L528.64,181.64" style="fill: rgb(0, 0, 255); fill-opacity: 0.5; stroke-width: 0;"/></g></g><g class="errorbars"/><g class="lines"><path class="js-line" d="M528.64,181.64L104.13,181.64L104.13,316.2L528.64,316.2L528.64,181.64L528.64,181.64" style="vector-effect: non-scaling-stroke; fill: none; stroke: rgb(0, 0, 0); stroke-opacity: 0.5; stroke-width: 1px; opacity: 1;"/></g><g class="points"/><g class="text"/></g><g class="trace scatter traceddfd6e" style="stroke-miterlimit: 2;"><g class="fills"><g><path class="js-fill" d="M532.92,6977.32L532.92,6977.32L532.92,164.62L99.95,164.62L99.95,301.34L532.92,301.34L532.92,164.62L532.92,164.62" style="fill: rgb(0, 0, 255); fill-opacity: 0.5; stroke-width: 0;"/></g></g><g class="errorbars"/><g class="lines"><path class="js-line" d="M532.92,164.62L99.95,164.62L99.95,301.34L532.92,301.34L532.92,164.62L532.92,164.62" style="vector-effect: non-scaling-stroke; fill: none; stroke: rgb(0, 0, 0); stroke-opacity: 0.5; stroke-width: 1px; opacity: 1;"/></g><g class="points"/><g class="text"/></g><g class="trace scatter trace91a89d" style="stroke-miterlimit: 2;"><g class="fills"><g><path class="js-fill" d="M536.28,6977.32L536.28,6977.32L536.28,147.54L94.74,147.54L94.74,286.45L536.28,286.45L536.28,147.54L536.28,147.54" style="fill: rgb(0, 0, 255); fill-opacity: 0.5; stroke-width: 0;"/></g></g><g class="errorbars"/><g class="lines"><path class="js-line" d="M536.28,147.54L94.74,147.54L94.74,286.45L536.28,286.45L536.28,147.54L536.28,147.54" style="vector-effect: non-scaling-stroke; fill: none; stroke: rgb(0, 0, 0); stroke-opacity: 0.5; stroke-width: 1px; opacity: 1;"/></g><g class="points"/><g class="text"/></g><g class="trace scatter trace3c62b8" style="stroke-miterlimit: 2;"><g class="fills"><g><path class="js-fill" d="M538.72,6977.32L538.72,6977.32L538.72,130.41L88.5,130.41L88.5,271.56L538.72,271.56L538.72,130.41L538.72,130.41" style="fill: rgb(0, 0, 255); fill-opacity: 0.5; stroke-width: 0;"/></g></g><g class="errorbars"/><g class="lines"><path class="js-line" d="M538.72,130.41L88.5,130.41L88.5,271.56L538.72,271.56L538.72,130.41L538.72,130.41" style="vector-effect: non-scaling-stroke; fill: none; stroke: rgb(0, 0, 0); stroke-opacity: 0.5; stroke-width: 1px; opacity: 1;"/></g><g class="points"/><g class="text"/></g><g class="trace scatter tracea0932d" style="stroke-miterlimit: 2;"><g class="fills"><g><path class="js-fill" d="M540.23,6977.32L540.23,6977.32L540.23,113.23L81.22,113.23L81.22,256.65L540.23,256.65L540.23,113.23L540.23,113.23" style="fill: rgb(0, 0, 255); fill-opacity: 0.5; stroke-width: 0;"/></g></g><g class="errorbars"/><g class="lines"><path class="js-line" d="M540.23,113.23L81.22,113.23L81.22,256.65L540.23,256.65L540.23,113.23L540.23,113.23" style="vector-effect: non-scaling-stroke; fill: none; stroke: rgb(0, 0, 0); stroke-opacity: 0.5; stroke-width: 1px; opacity: 1;"/></g><g class="points"/><g class="text"/></g><g class="trace scatter trace48a38e" style="stroke-miterlimit: 2;"><g class="fills"><g><path class="js-fill" d="M540.82,6977.32L540.82,6977.32L540.82,95.99L72.91,95.99L72.91,241.75L540.82,241.75L540.82,95.99L540.82,95.99" style="fill: rgb(0, 0, 255); fill-opacity: 0.5; stroke-width: 0;"/></g></g><g class="errorbars"/><g class="lines"><path class="js-line" d="M540.82,95.99L72.91,95.99L72.91,241.75L540.82,241.75L540.82,95.99L540.82,95.99" style="vector-effect: non-scaling-stroke; fill: none; stroke: rgb(0, 0, 0); stroke-opacity: 0.5; stroke-width: 1px; opacity: 1;"/></g><g class="points"/><g class="text"/></g><g class="trace scatter trace177a94" style="stroke-miterlimit: 2;"><g class="fills"><g><path class="js-fill" d="M540.48,6977.32L540.48,6977.32L540.48,78.71L63.55,78.71L63.55,226.84L540.48,226.84L540.48,78.71L540.48,78.71" style="fill: rgb(0, 0, 255); fill-opacity: 0.5; stroke-width: 0;"/></g></g><g class="errorbars"/><g class="lines"><path class="js-line" d="M540.48,78.71L63.55,78.71L63.55,226.84L540.48,226.84L540.48,78.71L540.48,78.71" style="vector-effect: non-scaling-stroke; fill: none; stroke: rgb(0, 0, 0); stroke-opacity: 0.5; stroke-width: 1px; opacity: 1;"/></g><g class="points"/><g class="text"/></g><g class="trace scatter trace520e34" style="stroke-miterlimit: 2;"><g class="fills"><g><path class="js-fill" d="M539.21,6977.32L539.21,6977.32L539.21,61.39L53.16,61.39L53.16,211.94L539.21,211.94L539.21,61.39L539.21,61.39" style="fill: rgb(0, 0, 255); fill-opacity: 0.5; stroke-width: 0;"/></g></g><g class="errorbars"/><g class="lines"><path class="js-line" d="M539.21,61.39L53.16,61.39L53.16,211.94L539.21,211.94L539.21,61.39L539.21,61.39" style="vector-effect: non-scaling-stroke; fill: none; stroke: rgb(0, 0, 0); stroke-opacity: 0.5; stroke-width: 1px; opacity: 1;"/></g><g class="points"/><g class="text"/></g><g class="trace scatter trace50653f" style="stroke-miterlimit: 2;"><g class="fills"><g><path class="js-fill" d="M537.02,6977.32L537.02,6977.32L537.02,44.03L41.73,44.03L41.73,197.04L537.02,197.04L537.02,44.03L537.02,44.03" style="fill: rgb(0, 0, 255); fill-opacity: 0.5; stroke-width: 0;"/></g></g><g class="errorbars"/><g class="lines"><path class="js-line" d="M537.02,44.03L41.73,44.03L41.73,197.04L537.02,197.04L537.02,44.03L537.02,44.03" style="vector-effect: non-scaling-stroke; fill: none; stroke: rgb(0, 0, 0); stroke-opacity: 0.5; stroke-width: 1px; opacity: 1;"/></g><g class="points"/><g class="text"/></g><g class="trace scatter tracec2e678" style="stroke-miterlimit: 2;"><g class="fills"><g><path class="js-fill" d="M533.91,6977.32L533.91,6977.32L533.91,26.63L29.26,26.63L29.26,182.17L533.91,182.17L533.91,26.63L533.91,26.63" style="fill: rgb(0, 0, 255); fill-opacity: 0.5; stroke-width: 0;"/></g></g><g class="errorbars"/><g class="lines"><path class="js-line" d="M533.91,26.63L29.26,26.63L29.26,182.17L533.91,182.17L533.91,26.63L533.91,26.63" style="vector-effect: non-scaling-stroke; fill: none; stroke: rgb(0, 0, 0); stroke-opacity: 0.5; stroke-width: 1px; opacity: 1;"/></g><g class="points"/><g class="text"/></g><g class="trace scatter trace801eec" style="stroke-miterlimit: 2;"><g class="fills"><g><path class="js-fill" d="M529.87,6977.32L529.87,6977.32L529.87,9.21L15.75,9.21L15.75,167.3L529.87,167.3L529.87,9.21L529.87,9.21" style="fill: rgb(0, 0, 255); fill-opacity: 0.5; stroke-width: 0;"/></g></g><g class="errorbars"/><g class="lines"><path class="js-line" d="M529.87,9.21L15.75,9.21L15.75,167.3L529.87,167.3L529.87,9.21L529.87,9.21" style="vector-effect: non-scaling-stroke; fill: none; stroke: rgb(0, 0, 0); stroke-opacity: 0.5; stroke-width: 1px; opacity: 1;"/></g><g class="points"/><g class="text"/></g><g class="trace scatter traced664d4" style="stroke-miterlimit: 2;"><g class="fills"><g><path class="js-fill" d="M528.64,6977.32L528.64,6977.32L528.64,181.64L104.13,181.64L104.13,316.2L528.64,316.2L528.64,181.64L528.64,181.64" style="fill: rgb(255, 0, 0); fill-opacity: 0.5; stroke-width: 0;"/></g></g><g class="errorbars"/><g class="lines"><path class="js-line" d="M528.64,181.64L104.13,181.64L104.13,316.2L528.64,316.2L528.64,181.64L528.64,181.64" style="vector-effect: non-scaling-stroke; fill: none; stroke: rgb(0, 0, 0); stroke-opacity: 0.5; stroke-width: 1px; opacity: 1;"/></g><g class="points"/><g class="text"/></g><g class="trace scatter trace3ba6ad" style="stroke-miterlimit: 2;"><g class="fills"><g><path class="js-fill" d="M524.67,6977.32L524.67,6977.32L524.67,164.62L108.1,164.62L108.1,301.34L524.67,301.34L524.67,164.62L524.67,164.62" style="fill: rgb(255, 0, 0); fill-opacity: 0.5; stroke-width: 0;"/></g></g><g class="errorbars"/><g class="lines"><path class="js-line" d="M524.67,164.62L108.1,164.62L108.1,301.34L524.67,301.34L524.67,164.62L524.67,164.62" style="vector-effect: non-scaling-stroke; fill: none; stroke: rgb(0, 0, 0); stroke-opacity: 0.5; stroke-width: 1px; opacity: 1;"/></g><g class="points"/><g class="text"/></g><g class="trace scatter trace1d6fe6" style="stroke-miterlimit: 2;"><g class="fills"><g><path class="js-fill" d="M519.83,6977.32L519.83,6977.32L519.83,147.55L111.01,147.55L111.01,286.44L519.83,286.44L519.83,147.55L519.83,147.55" style="fill: rgb(255, 0, 0); fill-opacity: 0.5; stroke-width: 0;"/></g></g><g class="errorbars"/><g class="lines"><path class="js-line" d="M519.83,147.55L111.01,147.55L111.01,286.44L519.83,286.44L519.83,147.55L519.83,147.55" style="vector-effect: non-scaling-stroke; fill: none; stroke: rgb(0, 0, 0); stroke-opacity: 0.5; stroke-width: 1px; opacity: 1;"/></g><g class="points"/><g class="text"/></g><g class="trace scatter tracedd18e5" style="stroke-miterlimit: 2;"><g class="fills"><g><path class="js-fill" d="M514.11,6977.32L514.11,6977.32L514.11,130.43L112.87,130.43L112.87,271.54L514.11,271.54L514.11,130.43L514.11,130.43" style="fill: rgb(255, 0, 0); fill-opacity: 0.5; stroke-width: 0;"/></g></g><g class="errorbars"/><g class="lines"><path class="js-line" d="M514.11,130.43L112.87,130.43L112.87,271.54L514.11,271.54L514.11,130.43L514.11,130.43" style="vector-effect: non-scaling-stroke; fill: none; stroke: rgb(0, 0, 0); stroke-opacity: 0.5; stroke-width: 1px; opacity: 1;"/></g><g class="points"/><g class="text"/></g><g class="trace scatter traced47fb5" style="stroke-miterlimit: 2;"><g class="fills"><g><path class="js-fill" d="M507.51,6977.32L507.51,6977.32L507.51,113.27L113.66,113.27L113.66,256.61L507.51,256.61L507.51,113.27L507.51,113.27" style="fill: rgb(255, 0, 0); fill-opacity: 0.5; stroke-width: 0;"/></g></g><g class="errorbars"/><g class="lines"><path class="js-line" d="M507.51,113.27L113.66,113.27L113.66,256.61L507.51,256.61L507.51,113.27L507.51,113.27" style="vector-effect: non-scaling-stroke; fill: none; stroke: rgb(0, 0, 0); stroke-opacity: 0.5; stroke-width: 1px; opacity: 1;"/></g><g class="points"/><g class="text"/></g><g class="trace scatter trace0e27ed" style="stroke-miterlimit: 2;"><g class="fills"><g><path class="js-fill" d="M500.03,6977.32L500.03,6977.32L500.03,96.06L113.4,96.06L113.4,241.67L500.03,241.67L500.03,96.06L500.03,96.06" style="fill: rgb(255, 0, 0); fill-opacity: 0.5; stroke-width: 0;"/></g></g><g class="errorbars"/><g class="lines"><path class="js-line" d="M500.03,96.06L113.4,96.06L113.4,241.67L500.03,241.67L500.03,96.06L500.03,96.06" style="vector-effect: non-scaling-stroke; fill: none; stroke: rgb(0, 0, 0); stroke-opacity: 0.5; stroke-width: 1px; opacity: 1;"/></g><g class="points"/><g class="text"/></g><g class="trace scatter trace2a7acd" style="stroke-miterlimit: 2;"><g class="fills"><g><path class="js-fill" d="M491.66,6977.32L491.66,6977.32L491.66,78.81L112.09,78.81L112.09,226.74L491.66,226.74L491.66,78.81L491.66,78.81" style="fill: rgb(255, 0, 0); fill-opacity: 0.5; stroke-width: 0;"/></g></g><g class="errorbars"/><g class="lines"><path class="js-line" d="M491.66,78.81L112.09,78.81L112.09,226.74L491.66,226.74L491.66,78.81L491.66,78.81" style="vector-effect: non-scaling-stroke; fill: none; stroke: rgb(0, 0, 0); stroke-opacity: 0.5; stroke-width: 1px; opacity: 1;"/></g><g class="points"/><g class="text"/></g><g class="trace scatter trace9a3cae" style="stroke-miterlimit: 2;"><g class="fills"><g><path class="js-fill" d="M482.39,6977.32L482.39,6977.32L482.39,61.53L109.72,61.53L109.72,211.8L482.39,211.8L482.39,61.53L482.39,61.53" style="fill: rgb(255, 0, 0); fill-opacity: 0.5; stroke-width: 0;"/></g></g><g class="errorbars"/><g class="lines"><path class="js-line" d="M482.39,61.53L109.72,61.53L109.72,211.8L482.39,211.8L482.39,61.53L482.39,61.53" style="vector-effect: non-scaling-stroke; fill: none; stroke: rgb(0, 0, 0); stroke-opacity: 0.5; stroke-width: 1px; opacity: 1;"/></g><g class="points"/><g class="text"/></g><g class="trace scatter trace0a8d69" style="stroke-miterlimit: 2;"><g class="fills"><g><path class="js-fill" d="M472.24,6977.32L472.24,6977.32L472.24,44.22L106.29,44.22L106.29,196.87L472.24,196.87L472.24,44.22L472.24,44.22" style="fill: rgb(255, 0, 0); fill-opacity: 0.5; stroke-width: 0;"/></g></g><g class="errorbars"/><g class="lines"><path class="js-line" d="M472.24,44.22L106.29,44.22L106.29,196.87L472.24,196.87L472.24,44.22L472.24,44.22" style="vector-effect: non-scaling-stroke; fill: none; stroke: rgb(0, 0, 0); stroke-opacity: 0.5; stroke-width: 1px; opacity: 1;"/></g><g class="points"/><g class="text"/></g><g class="trace scatter trace630c13" style="stroke-miterlimit: 2;"><g class="fills"><g><path class="js-fill" d="M461.18,6977.32L461.18,6977.32L461.18,26.88L101.8,26.88L101.8,181.94L461.18,181.94L461.18,26.88L461.18,26.88" style="fill: rgb(255, 0, 0); fill-opacity: 0.5; stroke-width: 0;"/></g></g><g class="errorbars"/><g class="lines"><path class="js-line" d="M461.18,26.88L101.8,26.88L101.8,181.94L461.18,181.94L461.18,26.88L461.18,26.88" style="vector-effect: non-scaling-stroke; fill: none; stroke: rgb(0, 0, 0); stroke-opacity: 0.5; stroke-width: 1px; opacity: 1;"/></g><g class="points"/><g class="text"/></g><g class="trace scatter traceee5fd4" style="stroke-miterlimit: 2;"><g class="fills"><g><path class="js-fill" d="M449.24,6977.32L449.24,6977.32L449.24,9.51L96.2,9.51L96.2,167.03L449.24,167.03L449.24,9.51L449.24,9.51" style="fill: rgb(255, 0, 0); fill-opacity: 0.5; stroke-width: 0;"/></g></g><g class="errorbars"/><g class="lines"><path class="js-line" d="M449.24,9.51L96.2,9.51L96.2,167.03L449.24,167.03L449.24,9.51L449.24,9.51" style="vector-effect: non-scaling-stroke; fill: none; stroke: rgb(0, 0, 0); stroke-opacity: 0.5; stroke-width: 1px; opacity: 1;"/></g><g class="points"/><g class="text"/></g></g></g><g class="overplot"/><path class="xlines-above crisp" d="M38.4925634295713,366.95669291338584H596.0629921259842" style="fill: none; stroke-width: 1px; stroke: rgb(0, 0, 0); stroke-opacity: 1;"/><path class="ylines-above crisp" d="M38.9925634295713,41.04330708661415V366.45669291338584" style="fill: none; stroke-width: 1px; stroke: rgb(0, 0, 0); stroke-opacity: 1;"/><g class="overlines-above"/><g class="xaxislayer-above"><path class="xtick ticks crisp" d="M0,366.45669291338584v-5" transform="translate(143.6225634295713,0)" style="stroke: rgb(0, 0, 0); stroke-opacity: 1; stroke-width: 1px;"/><path class="xtick ticks crisp" d="M0,366.45669291338584v-5" transform="translate(276.28256342957127,0)" style="stroke: rgb(0, 0, 0); stroke-opacity: 1; stroke-width: 1px;"/><path class="xtick ticks crisp" d="M0,366.45669291338584v-5" transform="translate(408.9425634295713,0)" style="stroke: rgb(0, 0, 0); stroke-opacity: 1; stroke-width: 1px;"/><path class="xtick ticks crisp" d="M0,366.45669291338584v-5" transform="translate(541.6025634295713,0)" style="stroke: rgb(0, 0, 0); stroke-opacity: 1; stroke-width: 1px;"/><g class="xtick"><text text-anchor="middle" x="0" y="380.6566929133858" transform="translate(143.6225634295713,0)" style="font-family: sans-serif; font-size: 11px; fill: rgb(0, 0, 0); fill-opacity: 1; white-space: pre; opacity: 1;">1.28</text></g><g class="xtick"><text text-anchor="middle" x="0" y="380.6566929133858" style="font-family: sans-serif; font-size: 11px; fill: rgb(0, 0, 0); fill-opacity: 1; white-space: pre; opacity: 1;" transform="translate(276.28256342957127,0)">1.29</text></g><g class="xtick"><text text-anchor="middle" x="0" y="380.6566929133858" style="font-family: sans-serif; font-size: 11px; fill: rgb(0, 0, 0); fill-opacity: 1; white-space: pre; opacity: 1;" transform="translate(408.9425634295713,0)">1.30</text></g><g class="xtick"><text text-anchor="middle" x="0" y="380.6566929133858" style="font-family: sans-serif; font-size: 11px; fill: rgb(0, 0, 0); fill-opacity: 1; white-space: pre; opacity: 1;" transform="translate(541.6025634295713,0)">1.31</text></g></g><g class="yaxislayer-above"><path class="ytick ticks crisp" d="M39.4925634295713,0h5" transform="translate(0,357.24330708661415)" style="stroke: rgb(0, 0, 0); stroke-opacity: 1; stroke-width: 1px;"/><path class="ytick ticks crisp" d="M39.4925634295713,0h5" transform="translate(0,289.9633070866141)" style="stroke: rgb(0, 0, 0); stroke-opacity: 1; stroke-width: 1px;"/><path class="ytick ticks crisp" d="M39.4925634295713,0h5" transform="translate(0,222.68330708661415)" style="stroke: rgb(0, 0, 0); stroke-opacity: 1; stroke-width: 1px;"/><path class="ytick ticks crisp" d="M39.4925634295713,0h5" transform="translate(0,155.39330708661413)" style="stroke: rgb(0, 0, 0); stroke-opacity: 1; stroke-width: 1px;"/><path class="ytick ticks crisp" d="M39.4925634295713,0h5" transform="translate(0,88.11330708661416)" style="stroke: rgb(0, 0, 0); stroke-opacity: 1; stroke-width: 1px;"/><g class="ytick"><text text-anchor="end" x="36.292563429571295" y="3.8499999999999996" transform="translate(0,357.24330708661415)" style="font-family: sans-serif; font-size: 11px; fill: rgb(0, 0, 0); fill-opacity: 1; white-space: pre; opacity: 1;">0.99</text></g><g class="ytick"><text text-anchor="end" x="36.292563429571295" y="3.8499999999999996" style="font-family: sans-serif; font-size: 11px; fill: rgb(0, 0, 0); fill-opacity: 1; white-space: pre; opacity: 1;" transform="translate(0,289.9633070866141)">1.00</text></g><g class="ytick"><text text-anchor="end" x="36.292563429571295" y="3.8499999999999996" style="font-family: sans-serif; font-size: 11px; fill: rgb(0, 0, 0); fill-opacity: 1; white-space: pre; opacity: 1;" transform="translate(0,222.68330708661415)">1.01</text></g><g class="ytick"><text text-anchor="end" x="36.292563429571295" y="3.8499999999999996" style="font-family: sans-serif; font-size: 11px; fill: rgb(0, 0, 0); fill-opacity: 1; white-space: pre; opacity: 1;" transform="translate(0,155.39330708661413)">1.02</text></g><g class="ytick"><text text-anchor="end" x="36.292563429571295" y="3.8499999999999996" style="font-family: sans-serif; font-size: 11px; fill: rgb(0, 0, 0); fill-opacity: 1; white-space: pre; opacity: 1;" transform="translate(0,88.11330708661416)">1.03</text></g></g><g class="overaxes-above"/></g></g><g class="polarlayer"/><g class="ternarylayer"/><g class="geolayer"/><g class="funnelarealayer"/><g class="pielayer"/><g class="iciclelayer"/><g class="treemaplayer"/><g class="sunburstlayer"/><g class="glimages"/><defs id="topdefs-cb85f6"><g class="clips"/></defs><g class="layer-above"><g class="imagelayer"/><g class="shapelayer"/></g><g class="infolayer"><g class="g-gtitle"/><g class="g-xtitle"/><g class="g-ytitle"/><g class="annotation" data-index="0" style="opacity: 1;"><g class="annotation-text-g" transform="rotate(0,317.7777777777777,33.000000000000014)"><g class="cursor-pointer" transform="translate(119,20)"><rect class="bg" x="0.5" y="0.5" width="397" height="25" style="stroke-width: 1px; stroke: rgb(0, 0, 0); stroke-opacity: 0; fill: rgb(0, 0, 0); fill-opacity: 0;"/><text class="annotation-text" text-anchor="middle" x="199.158203125" y="19.5" style="font-family: sans-serif; font-size: 20px; fill: rgb(0, 0, 0); fill-opacity: 1; white-space: pre;">Comparing_LV_Concrete_and_Symbolic_10</text></g></g></g></g></svg>